<mxfile host="app.diagrams.net" modified="2023-04-12T12:56:10.743Z" agent="Mozilla/5.0 (Windows NT 10.0; Win64; x64) AppleWebKit/537.36 (KHTML, like Gecko) Chrome/112.0.0.0 Safari/537.36" etag="rGbdaGMzkTm6uQs9o4xJ" version="21.1.7" type="github">
  <diagram name="PÃ¡gina-1" id="lwLTbvfKmOzdPsfkVhAu">
    <mxGraphModel dx="1434" dy="796" grid="1" gridSize="10" guides="1" tooltips="1" connect="1" arrows="1" fold="1" page="1" pageScale="1" pageWidth="827" pageHeight="1169" math="0" shadow="0">
      <root>
        <mxCell id="0" />
        <mxCell id="1" parent="0" />
        <mxCell id="60e8tbbSV8j_KbbyS9Ai-1" value="" style="shape=cylinder3;whiteSpace=wrap;html=1;boundedLbl=1;backgroundOutline=1;size=15;" parent="1" vertex="1">
          <mxGeometry x="29" y="290" width="60" height="80" as="geometry" />
        </mxCell>
        <mxCell id="60e8tbbSV8j_KbbyS9Ai-7" style="edgeStyle=orthogonalEdgeStyle;rounded=0;orthogonalLoop=1;jettySize=auto;html=1;entryX=1;entryY=0.5;entryDx=0;entryDy=0;entryPerimeter=0;" parent="1" target="60e8tbbSV8j_KbbyS9Ai-1" edge="1">
          <mxGeometry relative="1" as="geometry">
            <mxPoint x="199" y="330" as="sourcePoint" />
          </mxGeometry>
        </mxCell>
        <mxCell id="60e8tbbSV8j_KbbyS9Ai-4" value="CORPEPIDB.[EpicorERP]" style="text;html=1;strokeColor=none;fillColor=none;align=center;verticalAlign=middle;whiteSpace=wrap;rounded=0;" parent="1" vertex="1">
          <mxGeometry x="19" y="370" width="80" height="30" as="geometry" />
        </mxCell>
        <mxCell id="60e8tbbSV8j_KbbyS9Ai-10" value="CORPEPISSRS01" style="swimlane;startSize=20;horizontal=1;containerType=tree;newEdgeStyle={&quot;edgeStyle&quot;:&quot;elbowEdgeStyle&quot;,&quot;startArrow&quot;:&quot;none&quot;,&quot;endArrow&quot;:&quot;none&quot;};" parent="1" vertex="1">
          <mxGeometry x="159" y="155" width="451" height="345" as="geometry" />
        </mxCell>
        <mxCell id="60e8tbbSV8j_KbbyS9Ai-23" style="edgeStyle=elbowEdgeStyle;rounded=0;orthogonalLoop=1;jettySize=auto;html=1;startArrow=none;endArrow=none;entryX=0.5;entryY=1;entryDx=0;entryDy=0;entryPerimeter=0;" parent="60e8tbbSV8j_KbbyS9Ai-10" source="60e8tbbSV8j_KbbyS9Ai-13" target="60e8tbbSV8j_KbbyS9Ai-24" edge="1">
          <mxGeometry relative="1" as="geometry">
            <mxPoint x="297" y="72" as="targetPoint" />
          </mxGeometry>
        </mxCell>
        <UserObject label="SMB://CORPEPISSRS01/Cheques_Recibidos/" treeRoot="1" id="60e8tbbSV8j_KbbyS9Ai-13">
          <mxCell style="whiteSpace=wrap;html=1;align=center;treeFolding=1;treeMoving=1;newEdgeStyle={&quot;edgeStyle&quot;:&quot;elbowEdgeStyle&quot;,&quot;startArrow&quot;:&quot;none&quot;,&quot;endArrow&quot;:&quot;none&quot;};" parent="60e8tbbSV8j_KbbyS9Ai-10" vertex="1">
            <mxGeometry x="90" y="242" width="270" height="50" as="geometry" />
          </mxCell>
        </UserObject>
        <mxCell id="60e8tbbSV8j_KbbyS9Ai-24" value="" style="shape=cylinder3;whiteSpace=wrap;html=1;boundedLbl=1;backgroundOutline=1;size=15;" parent="60e8tbbSV8j_KbbyS9Ai-10" vertex="1">
          <mxGeometry x="195" y="62" width="60" height="80" as="geometry" />
        </mxCell>
        <mxCell id="60e8tbbSV8j_KbbyS9Ai-25" value="CORPEPISSRS01.[RVF_Local]" style="text;html=1;strokeColor=none;fillColor=none;align=center;verticalAlign=middle;whiteSpace=wrap;rounded=0;" parent="60e8tbbSV8j_KbbyS9Ai-10" vertex="1">
          <mxGeometry x="187" y="32" width="80" height="30" as="geometry" />
        </mxCell>
        <mxCell id="60e8tbbSV8j_KbbyS9Ai-26" style="edgeStyle=orthogonalEdgeStyle;rounded=0;orthogonalLoop=1;jettySize=auto;html=1;entryX=1;entryY=0.5;entryDx=0;entryDy=0;entryPerimeter=0;" parent="1" source="60e8tbbSV8j_KbbyS9Ai-24" target="60e8tbbSV8j_KbbyS9Ai-1" edge="1">
          <mxGeometry relative="1" as="geometry" />
        </mxCell>
        <mxCell id="60e8tbbSV8j_KbbyS9Ai-27" value="Servidor Horizon" style="swimlane;whiteSpace=wrap;html=1;" parent="1" vertex="1">
          <mxGeometry x="1040" y="160" width="237" height="240" as="geometry" />
        </mxCell>
        <mxCell id="60e8tbbSV8j_KbbyS9Ai-28" value="" style="shape=image;verticalLabelPosition=bottom;labelBackgroundColor=default;verticalAlign=top;aspect=fixed;imageAspect=0;image=data:image/x-icon,AAABAAEAgIAAAAEAIAAoCAEAFgAAACgAAACAAAAAAAEAAAEAIAAAAAAAAAgBAAAAAAAAAAAAAAAAAAAAAAAAAAAAAAAAAAAAAAAAAAAAAAAAAAAAAAAAAAAAAAAAAAAAAAAAAAAAAAAAAAAAAAAAAAAAAAAAAAAAAAAAAAAAAAAAAAAAAAAAAAAAAAAAAAAAAAAAAAAAAAAAAAAAAAAAAAAAAAAAAAAAAAAAAAAAAAAAAAAAAAH///8Bf39/An9/fwJ/f38Cf39/An9/fwKqqqoDf39/BL+/vwSZmZkFmZmZBZmZmQWZmZkFmZmZBZmZmQWZmZkFmZmZBZmZmQWZmZkFmZmZBaqqqgafn58IqqqqCaKioguioqILoqKiC6KioguioqILoqKiC6KioguioqILoqKiC6KioguioqILoqKiC6KioguioqILoqKiC6KioguioqILoqKiC6KioguioqILoqKiC6KioguysrIKjY2NCZGRkQeZmZkFmZmZBZmZmQWZmZkFmZmZBZmZmQWZmZkFmZmZBZmZmQWZmZkFmZmZBZmZmQW/v78Ef39/BKqqqgN/f38Cf39/An9/fwJ/f38Cf39/Av///wEAAAABAAAAAAAAAAAAAAAAAAAAAAAAAAAAAAAAAAAAAAAAAAAAAAAAAAAAAAAAAAAAAAAAAAAAAAAAAAAAAAAAAAAAAAAAAAAAAAAAAAAAAAAAAAAAAAAAAAAAAAAAAAAAAAAAAAAAAAAAAAAAAAAAAAAAAAAAAAAAAAAAAAAAAAAAAAAAAAAAAAAAAAAAAAAAAAAAAAAAAAAAAAAAAAAAAAAAAAAAAAAAAAAAAAAAAAAAAAAAAAAAAAAAAAAAAAAAAAABAAAAAX9/fwL///8CqqqqA39/fwS/v78EmZmZBaqqqgafn58IqqqqCaKioguioqILoqKiC6KioguqqqoMo6OjDpaWlhGhoaETqqqqFZubmxebm5sXm5ubF5ubmxebm5sXm5ubF5ubmxebm5sXm5ubF5ubmxeqqqoYoKCgG6SkpB+goKAjp6enJqWlpSilpaUopaWlKKWlpSilpaUopaWlKKWlpSilpaUopaWlKKWlpSilpaUopaWlKKWlpSilpaUopaWlKKWlpSilpaUopaWlKKWlpSilpaUon5+fKKWlpSWdnZ0ip6enHaOjoxmfn58Ym5ubF5ubmxebm5sXm5ubF5ubmxebm5sXm5ubF5ubmxebm5sXm5ubF6qqqhWZmZkUpaWlEaOjow6qqqoMoqKiC6KioguioqILoqKiC6qqqgmfn58IqqqqBpmZmQW/v78Ef39/BKqqqgP///8Cf39/Av///wEAAAABAAAAAAAAAAAAAAAAAAAAAAAAAAAAAAAAAAAAAAAAAAAAAAAAAAAAAAAAAAAAAAAAAAAAAAAAAAAAAAAAAAAAAAAAAAAAAAAAAAAAAAAAAAAAAAAAAAAAAAAAAAAAAAAAAAAAAAAAAAAAAAAAAAAAAAAAAAAAAAAAAAAAAAAAAAAAAAAA////Af///wJ/f38EkZGRB5+fnwiioqILqqqqDJmZmQ+bm5sSpaWlFKKiohafn58YoKCgG6SkpB+goKAjp6enJqWlpSilpaUooaGhKaOjoyqgoKAuoaGhNKKiojqkpKQ+o6OjQKSkpEGkpKRBpKSkQaSkpEGkpKRBpKSkQaSkpEGkpKRBpKSkQaOjo0OlpaVHoaGhT6Ojo1aioqJbpKSkXaWlpV6jo6Nfo6OjX6Ojo1+jo6Nfo6OjX6Ojo1+jo6Nfo6OjX6Ojo1+jo6Nfo6OjX6Ojo1+jo6Nfo6OjX6Ojo1+jo6Nfo6OjX6Kiol6hoaFdo6OjWaKiolOjo6NLoqKiRaKiokKkpKRBpKSkQaSkpEGkpKRBpKSkQaSkpEGkpKRBpKSkQaSkpEGjo6NApKSkPqKiojqhoaE0pqamLqCgoCuhoaEppaWlKKWlpSijo6MnoqKiJKSkpB+goKAbn5+fGKKiohadnZ0VqqqqEqqqqg+cnJwNoqKiC42NjQmRkZEHv7+/BKqqqgP///8BAAAAAAAAAAAAAAAAAAAAAAAAAAAAAAAAAAAAAAAAAAAAAAAAAAAAAAAAAAAAAAAAAAAAAAAAAAAAAAAAAAAAAAAAAAAAAAAAAAAAAAAAAAAAAAAAAAAAAAAAAAAAAAAAAAAAAAAAAAAAAAAAf39/ApmZmQWZmZkKn5+fEKKiohajo6McnZ2dIqGhoSampqYroaGhMaKiojelpaU8paWlP6KiokKlpaVHoaGhT6Ojo1aioqJbpKSkXaWlpV6jo6NfoqKiYaWlpWaioqJupKSkdqKionyjo6N+pKSkf6SkpH+kpKR/pKSkf6SkpH+kpKR/pKSkf6SkpH+kpKR/oqKigqKiooekpKSPo6Ojl6Kiop2jo6OfpKSkoKSkpKCkpKSgpKSkoKSkpKCkpKSgpKSkoKSkpKCkpKSgpKSkoKSkpKCkpKSgpKSkoKSkpKCkpKSgpKSkoKSkpKCkpKSgpaWln6SkpJ6jo6OapKSkk6Ojo4uioqKEo6OjgKSkpH+kpKR/pKSkf6SkpH+kpKR/pKSkf6SkpH+kpKR/pKSkf6Ojo36ioqJ8pKSkdqSkpG6lpaVmoqKiYaOjo1+lpaVepKSkXaKiolujo6NWpKSkT6Kiokijo6NDo6OjQKOjoz2ioqI3oaGhMaampiuhoaEmpaWlIqOjoxyioqIWn5+fEJmZmQqZmZkFf39/AgAAAAAAAAAAAAAAAAAAAAAAAAAAAAAAAAAAAAAAAAAAAAAAAAAAAAAAAAAAAAAAAAAAAAAAAAAAAAAAAAAAAAAAAAAAAAAAAAAAAAAAAAAAAAAAAAAAAAAAAAAAAAAAAH9/fwKfn58IoaGhE6KioiGkpKQwpaWlPKKiokihoaFSpKSkWqGhoWKjo6Nqo6OjcqOjo3qjo6N+pKSkgaKiooekpKSPo6Ojl6Kiop2jo6OfpKSkoKSkpKCjo6Oio6Ojp6SkpK6jo6O1pKSkuqSkpLykpKS9o6OjvqOjo76jo6O+o6OjvqOjo76jo6O+o6OjvqOjo76ioqK/o6Ojw6Ojo8mkpKTOo6Oj06Ojo9SkpKTVpKSk1qSkpNakpKTWpKSk1qSkpNakpKTWpKSk1qSkpNakpKTWpKSk1qSkpNakpKTWpKSk1qSkpNakpKTWpKSk1qOjo9akpKTVo6Oj1KOjo9Gjo6PMo6OjxqOjo8Gjo6O+o6OjvqOjo76jo6O+o6OjvqOjo76jo6O+o6OjvqOjo76kpKS9pKSkvKSkpLqkpKS1pKSkrqOjo6ejo6OipKSkoKSkpKCjo6OfpKSknaOjo5ekpKSPpKSkh6SkpIGjo6N+o6OjeqOjo3Kjo6Nqo6OjYqSkpFqkpKRSoqKiSKOjoz2kpKQwqqqqIaGhoROfn58If39/AgAAAAAAAAAAAAAAAAAAAAAAAAAAAAAAAAAAAAAAAAAAAAAAAAAAAAAAAAAAAAAAAAAAAAAAAAAAAAAAAAAAAAAAAAAAAAAAAAAAAAAAAAAAAAAAAAAAAAAAAAAAmZmZBaqqqhKhoaEpoqKiRaOjo1+ioqJ0pKSkhKKiopCjo6OZpKSkoaKioqmioqKxpKSkt6Ojo7ujo6O+oqKiwqSkpMikpKTOo6Oj0qOjo9SkpKTVpKSk1aSkpNajo6PZo6Oj3qOjo+Kjo6PlpKSk5qSkpOejo6Poo6Oj6KOjo+ijo6Poo6Oj6KOjo+ijo6Poo6Oj6KOjo+ikpKTppKSk7KOjo++kpKTxpKSk8qOjo/Ojo6Pzo6Oj86Ojo/Ojo6Pzo6Oj86Ojo/Ojo6Pzo6Oj86Ojo/Ojo6Pzo6Oj86Ojo/Ojo6Pzo6Oj86Ojo/Ojo6Pzo6Oj86SkpPKjo6Pyo6Oj8KOjo+6jo6Pro6Oj6aOjo+ijo6Poo6Oj6KOjo+ijo6Poo6Oj6KOjo+ijo6Poo6Oj6KSkpOekpKTmo6Oj5aOjo+Kjo6PepKSk2aOjo9ekpKTVpKSk1aOjo9Sjo6PTpKSkzqOjo8mjo6PDo6OjvqWlpbujo6O4pKSksaSkpKmjo6Oio6OjmqSkpJCkpKSEpKSkdKKiomCioqJFoaGhKaGhoROqqqoGAAAAAAAAAAAAAAAAAAAAAAAAAAAAAAAAAAAAAAAAAAAAAAAAAAAAAAAAAAAAAAAAAAAAAAAAAAAAAAAAAAAAAAAAAAAAAAAAAAAAAAAAAAAAAAAAAAAAAP///wGqqqoJnp6eHaOjoz2kpKRlo6OjiKOjo6Gjo6Oyo6OjvqSkpMejo6PPo6Oj1KOjo9qkpKTepKSk4aSkpOOkpKTmo6Oj6qOjo+2kpKTvo6Oj8KSkpPGkpKTxo6Oj8qOjo/OkpKT0o6Oj9qOjo/ijo6P5o6Oj+aOjo/mjo6P5o6Oj+aOjo/mjo6P5o6Oj+qOjo/qjo6P6o6Oj+qOjo/qkpKT6pKSk+6Ojo/yjo6P9o6Oj/aOjo/2jo6P9o6Oj/aOjo/2jo6P9o6Oj/aOjo/2jo6P9o6Oj/aOjo/2jo6P9o6Oj/aOjo/2jo6P9o6Oj/aOjo/2jo6P9o6Oj/aOjo/yjo6P8o6Oj+6Ojo/qjo6P6o6Oj+qOjo/qjo6P6o6Oj+qOjo/mjo6P5o6Oj+aOjo/mjo6P5o6Oj+aOjo/mjo6P4pKSk96Ojo/Wjo6Pzo6Oj8qSkpPGkpKTxo6Oj8KSkpO+jo6Pto6Oj6qOjo+ejo6Pko6Oj4qOjo9+jo6PapKSk1aOjo8+jo6PIoqKiv6SkpLKjo6Oho6OjiKSkpGWkpKQ+np6eHaqqqgn///8BAAAAAAAAAAAAAAAAAAAAAAAAAAAAAAAAAAAAAAAAAAAAAAAAAAAAAAAAAAAAAAAAAAAAAAAAAAAAAAAAAAAAAAAAAAAAAAAAAAAAAAAAAAAAAAAA////AaqqqgmhoaEepKSkQaWlpWmioqKNoqKipqOjo7ejo6PDoqKizaOjo9Sjo6PapKSk3qSkpOGjo6Plo6Oj6aOjo+ujo6Puo6Oj76Ojo/CkpKTxpKSk8qSkpPSjo6P2o6Oj9qOjo/ejo6P4o6Oj+KOjo/ijo6P4o6Oj+KKiovmjo6P6pKSk+qOjo/ujo6P7o6Oj/KOjo/ylpaX8qqqq/K2trf2wsLD9sbGx/rKysv6zs7P+srKy/rKysv6wsLD+sLCw/q6urv6srKz+q6ur/qqqqv6oqKj+p6en/qampv6lpaX+pKSk/qOjo/6jo6P+o6Oj/qSkpP6kpKT+pKSk/qampv2lpaX9pKSk/KOjo/yjo6P8o6Oj/KOjo/yjo6P7o6Oj+6SkpPqjo6P6oqKi+aOjo/ijo6P4o6Oj+KOjo/ijo6P4o6Oj96Ojo/ajo6P2pKSk9KSkpPKkpKTxo6Oj8KOjo++jo6Puo6Oj66Ojo+mjo6PlpKSk4aSkpN6jo6Pao6Oj1KKios2jo6PDo6Ojt6KioqaioqKNpaWlaaSkpEGhoaEeqqqqCX9/fwIAAAAAAAAAAAAAAAAAAAAAAAAAAAAAAAAAAAAAAAAAAAAAAAAAAAAAAAAAAAAAAAAAAAAAAAAAAAAAAAAAAAAAAAAAAAAAAAAAAAAAAAAAAAAAAAAAAAAAkZGRB6KiohakpKQwoaGhT6SkpGukpKR/pKSkj6KiopuioqKmo6OjsKOjo7ajo6O7pKSkv6Ojo8WkpKTLo6Oj0aSkpNOjo6PUpKSk1aOjo9ekpKTbo6Oj4KSkpOOioqLmpKSk5qSkpOekpKTnpKSk56SkpOejo6PopKSk6aqqqu+3t7f1v7+/+cfHx/vMzMz9z8/P/tHR0f/Nzc3/ysrK/8bGxv/Dw8P/wMDA/729vf+6urr/t7e3/7W1tf+zs7P/sLCw/66urv+tra3/q6ur/6mpqf+oqKj/p6en/6ampv+lpaX/pKSk/6SkpP+kpKT/paWl/6ampv+oqKj/qqqq/6urq/+tra3/r6+v/6+vr/2vr6/8ra2t+6ysrPmoqKj1pKSk8KSkpOykpKTpo6Oj6KSkpOekpKTnpKSk56CjoeiLppXshKaR7oWnkeyEppDqhaeR5oOmkeSEqJDihaaR4Zujndejo6PRpKSky6Ojo8WkpKS/o6Oju6Ojo7ajo6OwoqKipqKiopukpKSPpKSkf6SkpGuhoaFPpKSkMKKiohaRkZEHAAAAAQAAAAAAAAAAAAAAAAAAAAAAAAAAAAAAAAAAAAAAAAAAAAAAAAAAAAAAAAAAAAAAAAAAAAAAAAAAAAAAAAAAAAAAAAAAAAAAAAAAAAAAAAAAAAAAAAAAAACqqqoDoqKiC6qqqhijo6MqpaWlOaGhoUeioqJToqKiXqSkpGijo6NypKSkeaOjo36jo6ODpKSkiqOjo5Ojo6Oao6OjnqOjo5+kpKSgo6OjpKOjo6qjo6Oyo6OjuKOjo7ujo6O9o6OjvampqcG/v7/S0NDQ5Nzc3O/m5ub76Ojo/+Tk5P/g4OD/3Nzc/9jY2P/U1NT/0dHR/83Nzf/Kysr/xsbG/8PDw//AwMD/vb29/7q6uv+3t7f/tbW1/7Ozs/+wsLD/rq6u/62trf+rq6v/qamp/6ioqP+np6f/pqam/6Wlpf+kpKT/pKSk/6SkpP+lpaX/pqam/6ioqP+qqqr/q6ur/62trf+vr6//sbGx/7Ozs/+1tbX/t7e3/7m5uf+7u7v/u7u7+Le3t+6ysrLfq6urzKGjor5mqn/iOa9l+zWxY/81sWP/NbFj/zWxY/81sWP/NbFj/zWxY/81sWP/NbBj/U6sceKSppmepKSkiqOjo4Ojo6N+pKSkeaOjo3KkpKRooqKiXqKiolOhoaFHpaWlOaOjoyqqqqoYoqKiC6qqqgMAAAAAAAAAAAAAAAAAAAAAAAAAAAAAAAAAAAAAAAAAAAAAAAAAAAAAAAAAAAAAAAAAAAAAAAAAAAAAAAAAAAAAAAAAAAAAAAAAAAAAAAAAAAAAAAAAAAAAAAAAAAAAAACqqqoDn5+fCKOjow6dnZ0VmpqaHKWlpSKhoaEppKSkMKKiojelpaU8oKCgQaKiokWjo6NLpKSkUqOjo1mjo6NcoqKiXqOjo1+ioqJjo6OjaqOjo3KkpKR5v7+/mNvb28Pv7+/j+/v7/fn5+f/09PT/8PDw/+zs7P/o6Oj/5OTk/+Dg4P/c3Nz/2NjY/9TU1P/R0dH/zc3N/8rKyv/Gxsb/w8PD/8DAwP+9vb3/urq6/7e3t/+1tbX/s7Oz/7CwsP+urq7/ra2t/6urq/+pqan/qKio/6enp/+mpqb/paWl/6SkpP+kpKT/pKSk/6Wlpf+mpqb/qKio/6qqqv+rq6v/ra2t/6+vr/+xsbH/s7Oz/7W1tf+3t7f/ubm5/7u7u/++vr7/wMDA/8LCwv/CxML/YraB+zWxY/81sWP/NbFj/zWxY/81sWP/NbFj/zWxY/81sWP/NbFj/zWxY/81sWP/NbFj/ziwZPCCp49goqKiRaCgoEGlpaU8oqKiN6SkpDChoaEppaWlIpqamhydnZ0Vo6OjDp+fnwiqqqoDAAAAAAAAAAAAAAAAAAAAAAAAAAAAAAAAAAAAAAAAAAAAAAAAAAAAAAAAAAAAAAAAAAAAAAAAAAAAAAAAAAAAAAAAAAAAAAAAAAAAAAAAAAAAAAAAAAAAAAAAAAAAAAAAAAAAAAAAAAAAAAABf39/An9/fwSRkZEHjY2NCZSUlAyZmZkPm5ubEp2dnRWbm5sXo6OjGZ6enh2ioqIhpaWlJaOjoyefn58ooaGhKaKioizOzs5Z5ubmqfT09Oj6+vr//Pz8//39/f/9/f3/+fn5//T09P/w8PD/7Ozs/+jo6P/k5OT/4ODg/9zc3P/Y2Nj/1NTU/9HR0f/Nzc3/ysrK/8bGxv/Dw8P/wMDA/729vf+6urr/t7e3/7W1tf+zs7P/sLCw/66urv+tra3/q6ur/6mpqf+oqKj/p6en/6ampv+lpaX/pKSk/6SkpP+kpKT/paWl/6ampv+oqKj/qqqq/6urq/+tra3/r6+v/7Gxsf+zs7P/tbW1/7e3t/+5ubn/u7u7/76+vv/AwMD/wsLC/4e7m/81sWP/NbFj/zWxY/81sWP/NbFj/zWxY/81sWP/NbFj/zWxY/81sWP/NbFj/zWxY/81sWP/NbFj/zmwZsOjo6MZm5ubF52dnRWbm5sSmZmZD5SUlAyNjY0JkZGRB39/fwR/f38CAAAAAQAAAAAAAAAAAAAAAAAAAAAAAAAAAAAAAAAAAAAAAAAAAAAAAAAAAAAAAAAAAAAAAAAAAAAAAAAAAAAAAAAAAAAAAAAAAAAAAAAAAAAAAAAAAAAAAAAAAAAAAAAAAAAAAAAAAAAAAAAAAAAAAAAAAAAAAAAAAAAAAAAAAAAAAAAA////AX9/fwKqqqoDf39/BL+/vwSZmZkFkZGRB5+fnwiZmZkKoqKiC7u7uxPo6Ohw7+/v0vLy8v/19fX/9/f3//r6+v/8/Pz//f39//39/f/5+fn/9PT0//Dw8P/s7Oz/6Ojo/+Tk5P/g4OD/3Nzc/9jY2P/U1NT/0dHR/83Nzf/Kysr/xsbG/8PDw//AwMD/vb29/7q6uv+3t7f/tbW1/7Ozs/+wsLD/rq6u/62trf+rq6v/qamp/6ioqP+np6f/pqam/6Wlpf+kpKT/pKSk/6SkpP+lpaX/pqam/6ioqP+qqqr/q6ur/62trf+vr6//sbGx/7Ozs/+1tbX/t7e3/7m5uf+7u7v/vr6+/8DAwP/CwsL/SrRz/zSyZP80smT/NLJk/zSyZP80smT/NLJk/zSyZP80smT/NLJk/zSyZP80smT/NLJk/zSyZP80smT/NLJk/z+ybCi/v78Ef39/BKqqqgN/f38C////AQAAAAAAAAAAAAAAAAAAAAAAAAAAAAAAAAAAAAAAAAAAAAAAAAAAAAAAAAAAAAAAAAAAAAAAAAAAAAAAAAAAAAAAAAAAAAAAAAAAAAAAAAAAAAAAAAAAAAAAAAAAAAAAAAAAAAAAAAAAAAAAAAAAAAAAAAAAAAAAAAAAAAAAAAAAAAAAAAAAAAAAAAAAAAAAAAAAAAAAAAAAAAAAAAAAAAAAAAAAAAAAAAAAAAAAAAAAAAAAAN/f3xDn5+eA6urq7+3t7f/w8PD/8vLy//X19f/39/f/+vr6//z8/P/9/f3//f39//n5+f/09PT/8PDw/+zs7P/o6Oj/5OTk/+Dg4P/c3Nz/2NjY/9TU1P/R0dH/zc3N/8rKyv/Gxsb/w8PD/8DAwP+9vb3/urq6/7e3t/+1tbX/s7Oz/7CwsP+urq7/ra2t/6urq/+pqan/qKio/6enp/+mpqb/paWl/6SkpP+kpKT/pKSk/6Wlpf+mpqb/qKio/6qqqv+rq6v/ra2t/6+vr/+xsbH/s7Oz/7W1tf+3t7f/ubm5/7u7u/++vr7/wMDA/7vBvf8zs2X/M7Nl/zOzZf8zs2X/M7Nl/zOzZf8zs2X/M7Nl/zOzZf8zs2X/M7Nl/zOzZf8zs2X/M7Nl/zOzZf8zs2X/MbJmVwAAAAAAAAAAAAAAAAAAAAAAAAAAAAAAAAAAAAAAAAAAAAAAAAAAAAAAAAAAAAAAAAAAAAAAAAAAAAAAAAAAAAAAAAAAAAAAAAAAAAAAAAAAAAAAAAAAAAAAAAAAAAAAAAAAAAAAAAAAAAAAAAAAAAAAAAAAAAAAAAAAAAAAAAAAAAAAAAAAAAAAAAAAAAAAAAAAAAAAAAAAAAAAAAAAAAAAAAAAAAAAAAAAAAAAAAAAAAAAAAAAAAAAAAAAAAAAAP///wPi4uJz5OTk7+fn5//q6ur/7e3t//Dw8P/y8vL/9fX1//f39//6+vr//Pz8//39/f/9/f3/+fn5//T09P/w8PD/7Ozs/+jo6P/k5OT/4ODg/9zc3P/Y2Nj/1NTU/9HR0f/Nzc3/ysrK/8bGxv/Dw8P/wMDA/729vf+6urr/t7e3/7W1tf+zs7P/sLCw/66urv+tra3/q6ur/6mpqf+oqKj/p6en/6ampv+lpaX/pKSk/6SkpP+kpKT/paWl/6ampv+oqKj/qqqq/6urq/+tra3/r6+v/7Gxsf+zs7P/tbW1/7e3t/+5ubn/u7u7/76+vv/AwMD/sMC3/zO0Z/8ztGf/M7Rn/zO0Z/8ztGf/M7Rn/zO0Z/8ztGf/M7Rn/zO0Z/8ztGf/M7Rn/zO0Z/8ztGf/M7Rn/zO0Z/8zs2ZfAAAAAAAAAAAAAAAAAAAAAAAAAAAAAAAAAAAAAAAAAAAAAAAAAAAAAAAAAAAAAAAAAAAAAAAAAAAAAAAAAAAAAAAAAAAAAAAAAAAAAAAAAAAAAAAAAAAAAAAAAAAAAAAAAAAAAAAAAAAAAAAAAAAAAAAAAAAAAAAAAAAAAAAAAAAAAAAAAAAAAAAAAAAAAAAAAAAAAAAAAAAAAAAAAAAAAAAAAAAAAAAAAAAAAAAAAAAAAAAAAAAAAAAAAADe3t4v3t7e0+Hh4f/k5OT/5+fn/+rq6v/t7e3/8PDw//Ly8v/19fX/9/f3//r6+v/8/Pz//f39//39/f/5+fn/9PT0//Dw8P/s7Oz/6Ojo/+Tk5P/g4OD/3Nzc/9jY2P/U1NT/0dHR/83Nzf/Kysr/xsbG/8PDw//AwMD/vb29/7q6uv+3t7f/tbW1/7Ozs/+wsLD/rq6u/62trf+rq6v/qamp/6ioqP+np6f/pqam/6Wlpf+kpKT/pKSk/6SkpP+lpaX/pqam/6ioqP+qqqr/q6ur/62trf+vr6//sbGx/7Ozs/+1tbX/t7e3/7m5uf+7u7v/vr6+/8DAwP+wwLf/MrVo/zK1aP8ytWj/MrVo/zK1aP8ytWj/MrVo/zK1aP8ytWj/MrVo/zK1aP8ytWj/MrVo/zK1aP8ytWj/MrVo/zC2aF8AAAAAAAAAAAAAAAAAAAAAAAAAAAAAAAAAAAAAAAAAAAAAAAAAAAAAAAAAAAAAAAAAAAAAAAAAAAAAAAAAAAAAAAAAAAAAAAAAAAAAAAAAAAAAAAAAAAAAAAAAAAAAAAAAAAAAAAAAAAAAAAAAAAAAAAAAAAAAAAAAAAAAAAAAAAAAAAAAAAAAAAAAAAAAAAAAAAAAAAAAAAAAAAAAAAAAAAAAAAAAAAAAAAAAAAAAAAAAAAAAAAAA2NjYY9vb2/re3t7/4eHh/+Tk5P/n5+f/6urq/+3t7f/w8PD/8vLy//X19f/39/f/+vr6//z8/P/9/f3//f39//n5+f/09PT/8PDw/+zs7P/o6Oj/5OTk/+Dg4P/c3Nz/2NjY/9TU1P/R0dH/zc3N/8rKyv/Gxsb/w8PD/8DAwP+9vb3/urq6/7e3t/+1tbX/s7Oz/7CwsP+urq7/ra2t/6urq/+pqan/qKio/6enp/+mpqb/paWl/6SkpP+kpKT/pKSk/6Wlpf+mpqb/qKio/6qqqv+rq6v/ra2t/6+vr/+xsbH/s7Oz/7W1tf+3t7f/ubm5/7u7u/++vr7/wMDA/7DBt/8xtmn/MbZp/zG2af8xtmn/MbZp/zG2af8xtmn/MbZp/zG2af8xtmn/MbZp/zG2af8xtmn/MbZp/zG2af8xtmn/M7RpYwAAAAAAAAAAAAAAAAAAAAAAAAAAAAAAAAAAAAAAAAAAAAAAAAAAAAAAAAAAAAAAAAAAAAAAAAAAAAAAAAAAAAAAAAAAAAAAAAAAAAAAAAAAAAAAAAAAAAAAAAAAAAAAAAAAAAAAAAAAAAAAAAAAAAAAAAAAAAAAAAAAAAAAAAAAAAAAAAAAAAAAAAAAAAAAAAAAAAAAAAAAAAAAAAAAAAAAAAAAAAAAAAAAAAAAAAAAAAAAANXV1XvX19f/29vb/97e3v/h4eH/5OTk/+fn5//q6ur/7e3t//Dw8P/y8vL/9fX1//f39//6+vr//Pz8//39/f/9/f3/+fn5//T09P/w8PD/7Ozs/+jo6P/k5OT/4ODg/9zc3P/Y2Nj/1NTU/9HR0f/Nzc3/ysrK/8bGxv/Dw8P/wMDA/729vf+6urr/t7e3/7W1tf+zs7P/sLCw/66urv+tra3/q6ur/6mpqf+oqKj/p6en/6ampv+lpaX/pKSk/6SkpP+kpKT/paWl/6ampv+oqKj/qqqq/6urq/+tra3/r6+v/7Gxsf+zs7P/tbW1/7e3t/+5ubn/u7u7/76+vv/AwMD/sMG3/zC3av8wt2r/MLdq/zC3av8wt2r/MLdq/zC3av8wt2r/MLdq/zC3av8wt2r/MLdq/zC3av8wt2r/MLdq/zC3av9kmnvzhYWFOwAAAAAAAAAAAAAAAAAAAAAAAAAAAAAAAAAAAAAAAAAAAAAAAAAAAAAAAAAAAAAAAAAAAAAAAAAAAAAAAAAAAAAAAAAAAAAAAAAAAAAAAAAAAAAAAAAAAAAAAAAAAAAAAAAAAAAAAAAAAAAAAAAAAAAAAAAAAAAAAAAAAAAAAAAAAAAAAAAAAAAAAAAAAAAAAAAAAAAAAAAAAAAAAAAAAAAAAAAAAAAAAAAAAADQ0NBj1NTU/9fX1//b29v/3t7e/+Hh4f/k5OT/5+fn/+rq6v/t7e3/8PDw//Ly8v/19fX/9/f3//r6+v/8/Pz//f39//39/f/5+fn/9PT0//Dw8P/s7Oz/6Ojo/+Tk5P/g4OD/3Nzc/9jY2P/U1NT/0dHR/83Nzf/Kysr/xsbG/8PDw//AwMD/vb29/7q6uv+3t7f/tbW1/7Ozs/+wsLD/rq6u/62trf+rq6v/qamp/6ioqP+np6f/pqam/6Wlpf+kpKT/pKSk/6SkpP+lpaX/pqam/6ioqP+qqqr/q6ur/62trf+vr6//sbGx/7Ozs/+1tbX/t7e3/7m5uf+7u7v/vr6+/8DAwP+wwbf/MLhr/zC4a/8wuGv/MLhr/zC4a/8wuGv/MLhr/zC4a/8wuGv/MLhr/zC4a/8wuGv/MLhr/zC4a/8wuGv/MLhr/2aaff+Dg4Pre3t7HwAAAAAAAAAAAAAAAAAAAAAAAAAAAAAAAAAAAAAAAAAAAAAAAAAAAAAAAAAAAAAAAAAAAAAAAAAAAAAAAAAAAAAAAAAAAAAAAAAAAAAAAAAAAAAAAAAAAAAAAAAAAAAAAAAAAAAAAAAAAAAAAAAAAAAAAAAAAAAAAAAAAAAAAAAAAAAAAAAAAAAAAAAAAAAAAAAAAAAAAAAAAAAAAAAAAAAAAAAAzMzMI9DQ0PfU1NT/19fX/9vb2//e3t7/4eHh/+Tk5P/n5+f/6urq/+3t7f/w8PD/8vLy//X19f/39/f/+vr6//z8/P/9/f3//f39//n5+f/09PT/8PDw/+zs7P/o6Oj/5OTk/+Dg4P/c3Nz/2NjY/9TU1P/R0dH/zc3N/8rKyv/Gxsb/w8PD/8DAwP+9vb3/urq6/7e3t/+1tbX/s7Oz/7CwsP+urq7/ra2t/6urq/+pqan/qKio/6enp/+mpqb/paWl/6SkpP+kpKT/pKSk/6Wlpf+mpqb/qKio/6qqqv+rq6v/ra2t/6+vr/+xsbH/s7Oz/7W1tf+3t7f/ubm5/7u7u/++vr7/wMDA/7DBt/8vuW3/L7lt/y+5bf8vuW3/L7lt/y+5bf8vuW3/L7lt/y+5bf8vuW3/L7lt/y+5bf8vuW3/L7lt/y+5bf8vuW3/Zpp9/4ODg/98fHzDAAAAAAAAAAAAAAAAAAAAAAAAAAAAAAAAAAAAAAAAAAAAAAAAAAAAAAAAAAAAAAAAAAAAAAAAAAAAAAAAAAAAAAAAAAAAAAAAAAAAAAAAAAAAAAAAAAAAAAAAAAAAAAAAAAAAAAAAAAAAAAAAAAAAAAAAAAAAAAAAAAAAAAAAAAAAAAAAAAAAAAAAAAAAAAAAAAAAAAAAAAAAAAAAAAAAAAAAAADOzs6a0NDQ/9TU1P/X19f/29vb/97e3v/h4eH/5OTk/+fn5//q6ur/7e3t//Dw8P/y8vL/9fX1//f39//6+vr//Pz8//39/f/9/f3/+fn5//T09P/w8PD/7Ozs/+jo6P/k5OT/4ODg/9zc3P/Y2Nj/1NTU/9HR0f/Nzc3/ysrK/8bGxv/Dw8P/wMDA/729vf+6urr/t7e3/7W1tf+zs7P/sLCw/66urv+tra3/q6ur/6mpqf+oqKj/p6en/6ampv+lpaX/pKSk/6SkpP+kpKT/paWl/6ampv+oqKj/qqqq/6urq/+tra3/r6+v/7Gxsf+zs7P/tbW1/7e3t/+5ubn/u7u7/76+vv/AwMD/sMG4/y66bv8uum7/Lrpu/y66bv8uum7/Lrpu/y66bv8uum7/Lrpu/y66bv8uum7/Lrpu/y66bv8uum7/Lrpu/y66bv9mm37/g4OD/3x8fP92dnZHAAAAAAAAAAAAAAAAAAAAAAAAAAAAAAAAAAAAAAAAAAAAAAAAAAAAAAAAAAAAAAAAAAAAAAAAAAAAAAAAAAAAAAAAAAAAAAAAAAAAAAAAAAAAAAAAAAAAAAAAAAAAAAAAAAAAAAAAAAAAAAAAAAAAAAAAAAAAAAAAAAAAAAAAAAAAAAAAAAAAAAAAAAAAAAAAAAAAAAAAAAAAAAAAAAAAAM7OzvLQ0ND/1NTU/9fX1//b29v/3t7e/+Hh4f/k5OT/5+fn/+rq6v/t7e3/8PDw//Ly8v/19fX/9/f3//r6+v/8/Pz//f39//39/f/5+fn/9PT0//Dw8P/s7Oz/6Ojo/+Tk5P/g4OD/3Nzc/9jY2P/U1NT/0dHR/83Nzf/Kysr/xsbG/8PDw//AwMD/vb29/7q6uv+3t7f/tbW1/7Ozs/+wsLD/rq6u/62trf+rq6v/qamp/6ioqP+np6f/pqam/6Wlpf+kpKT/pKSk/6SkpP+lpaX/pqam/6ioqP+qqqr/q6ur/62trf+vr6//sbGx/7Ozs/+1tbX/t7e3/7m5uf+7u7v/vr6+/8DAwP+wwbj/Lrtv/y67b/8uu2//Lrtv/y67b/8uu2//Lrtv/y67b/8uu2//Lrtv/y67b/8uu2//Lrtv/y67b/8uu2//Lrtv/2abfv+Dg4P/fHx8/3Z2dpsAAAAAAAAAAAAAAAAAAAAAAAAAAAAAAAAAAAAAAAAAAAAAAAAAAAAAAAAAAAAAAAAAAAAAAAAAAAAAAAAAAAAAAAAAAAAAAAAAAAAAAAAAAAAAAAAAAAAAAAAAAAAAAAAAAAAAAAAAAAAAAAAAAAAAAAAAAAAAAAAAAAAAAAAAAAAAAAAAAAAAAAAAAAAAAAAAAAAAAAAAAAAAAADNzc0fzs7O/9DQ0P/U1NT/19fX/9vb2//e3t7/4eHh/+Tk5P/n5+f/6urq/+3t7f/w8PD/8vLy//X19f/39/f/+vr6//z8/P/9/f3//f39//n5+f/09PT/8PDw/+zs7P/o6Oj/5OTk/+Dg4P/c3Nz/2NjY/9TU1P/R0dH/zc3N/8rKyv/Gxsb/w8PD/8DAwP+9vb3/urq6/7e3t/+1tbX/s7Oz/7CwsP+urq7/ra2t/6urq/+pqan/qKio/6enp/+mpqb/paWl/6SkpP+kpKT/pKSk/6Wlpf+mpqb/qKio/6qqqv+rq6v/ra2t/6+vr/+xsbH/s7Oz/7W1tf+3t7f/ubm5/7u7u/++vr7/wMDA/6/BuP8tvHD/Lbxw/y28cP8tvHD/Lbxw/y28cP8tvHD/Lbxw/y28cP8tvHD/Lbxw/y28cP8tvHD/Lbxw/y28cP8tvHD/Zpt//4ODg/98fHz/dXV1vwAAAAAAAAAAAAAAAAAAAAAAAAAAAAAAAAAAAAAAAAAAAAAAAAAAAAAAAAAAAAAAAAAAAAAAAAAAAAAAAAAAAAAAAAAAAAAAAAAAAAAAAAAAAAAAAAAAAAAAAAAAAAAAAAAAAAAAAAAAAAAAAAAAAAAAAAAAAAAAAAAAAAAAAAAAAAAAAAAAAAAAAAAAAAAAAAAAAAAAAAAAAAAAAM3NzR/Ozs7/0NDQ/9TU1P/X19f/29vb/97e3v/h4eH/5OTk/+fn5//q6ur/7e3t//Dw8P/y8vL/9fX1//f39//6+vr//Pz8//39/f/9/f3/+fn5//T09P/w8PD/7Ozs/+jo6P/k5OT/4ODg/9zc3P/Y2Nj/1NTU/9HR0f/Nzc3/ysrK/8bGxv/Dw8P/wMDA/729vf+6urr/t7e3/7W1tf+zs7P/sLCw/66urv+tra3/q6ur/6mpqf+oqKj/p6en/6ampv+lpaX/pKSk/6SkpP+kpKT/paWl/6ampv+oqKj/qqqq/6urq/+tra3/r6+v/7Gxsf+zs7P/tbW1/7e3t/+5ubn/u7u7/76+vv/AwMD/r8G4/y29cf8tvXH/Lb1x/y29cf8tvXH/Lb1x/y29cf8tvXH/Lb1x/y29cf8tvXH/Lb1x/y29cf8tvXH/Lb1x/y29cf9lnH//g4OD/3x8fP91dXW/AAAAAAAAAAAAAAAAAAAAAAAAAAAAAAAAAAAAAAAAAAAAAAAAAAAAAAAAAAAAAAAAAAAAAAAAAAAAAAAAAAAAAAAAAAAAAAAAAAAAAAAAAAAAAAAAAAAAAAAAAAAAAAAAAAAAAAAAAAAAAAAAAAAAAAAAAAAAAAAAAAAAAAAAAAAAAAAAAAAAAAAAAAAAAAAAAAAAAAAAAAAAAAAAzc3NH87Ozv/Q0ND/1NTU/9fX1//b29v/3t7e/+Hh4f/k5OT/5+fn/+rq6v/t7e3/8PDw//Ly8v/19fX/9/f3//r6+v/8/Pz//f39//39/f/5+fn/9PT0//Dw8P/s7Oz/6Ojo/+Tk5P/g4OD/3Nzc/9jY2P/U1NT/0dHR/83Nzf/Kysr/xsbG/8PDw//AwMD/vb29/7q6uv+3t7f/tbW1/7Ozs/+wsLD/rq6u/62trf+rq6v/qamp/6ioqP+np6f/pqam/6Wlpf+kpKT/pKSk/6SkpP+lpaX/pqam/6ioqP+qqqr/q6ur/62trf+vr6//sbGx/7Ozs/+1tbX/t7e3/7m5uf+7u7v/vr6+/8DAwP+vwrj/LL5z/yy+c/8svnP/LL5z/yy+c/8svnP/LL5z/yy+c/8svnP/LL5z/yy+c/8svnP/LL5z/yy+c/8svnP/LL5z/2WcgP+Dg4P/fHx8/3V1db8AAAAAAAAAAAAAAAAAAAAAAAAAAAAAAAAAAAAAAAAAAAAAAAAAAAAAAAAAAAAAAAAAAAAAAAAAAAAAAAAAAAAAAAAAAAAAAAAAAAAAAAAAAAAAAAAAAAAAAAAAAAAAAAAAAAAAAAAAAAAAAAAAAAAAAAAAAAAAAAAAAAAAAAAAAAAAAAAAAAAAAAAAAAAAAAAAAAAAAAAAAAAAAADNzc0fzs7O/9DQ0P/U1NT/19fX/9vb2//e3t7/4eHh/+Tk5P/n5+f/6urq/+3t7f/w8PD/8vLy//X19f/39/f/+vr6//z8/P/9/f3//f39//n5+f/09PT/8PDw/+zs7P/o6Oj/5OTk/+Dg4P/c3Nz/2NjY/9TU1P/R0dH/zc3N/8rKyv/Gxsb/w8PD/8DAwP+9vb3/urq6/7e3t/+1tbX/s7Oz/7CwsP+urq7/ra2t/6urq/+pqan/qKio/6enp/+mpqb/paWl/6SkpP+kpKT/pKSk/6Wlpf+mpqb/qKio/6qqqv+rq6v/ra2t/6+vr/+xsbH/s7Oz/7W1tf+3t7f/ubm5/7u7u/++vr7/wMDA/6/CuP8rv3T/K790/yu/dP8rv3T/K790/yu/dP8rv3T/K790/yu/dP8rv3T/K790/yu/dP8rv3T/K790/yu/dP8rv3T/ZZ2A/4ODg/98fHz/dXV1vwAAAAAAAAAAAAAAAAAAAAAAAAAAAAAAAAAAAAAAAAAAAAAAAAAAAAAAAAAAAAAAAAAAAAAAAAAAAAAAAAAAAAAAAAAAAAAAAAAAAAAAAAAAAAAAAAAAAAAAAAAAAAAAAAAAAAAAAAAAAAAAAAAAAAAAAAAAAAAAAAAAAAAAAAAAAAAAAAAAAAAAAAAAAAAAAAAAAAAAAAAAAAAAAM3NzR/Ozs7/0NDQ/9TU1P/X19f/29vb/97e3v/h4eH/5OTk/+fn5//q6ur/7e3t//Dw8P/y8vL/9fX1//f39//6+vr//Pz8//39/f/9/f3/+fn5//T09P/w8PD/7Ozs/+jo6P/k5OT/4ODg/9zc3P/Y2Nj/1NTU/9HR0f/Nzc3/ysrK/8bGxv/Dw8P/wMDA/729vf+6urr/t7e3/7W1tf+zs7P/sLCw/66urv+tra3/q6ur/6mpqf+oqKj/p6en/6ampv+lpaX/pKSk/6SkpP+kpKT/paWl/6ampv+oqKj/qqqq/6urq/+tra3/r6+v/7Gxsf+zs7P/tbW1/7e3t/+5ubn/u7u7/76+vv/AwMD/r8K4/yvAdf8rwHX/K8B1/yvAdf8rwHX/K8B1/yvAdf8rwHX/K8B1/yvAdf8rwHX/K8B1/yvAdf8rwHX/K8B1/yvAdf9lnYD/g4OD/3x8fP91dXW/AAAAAAAAAAAAAAAAAAAAAAAAAAAAAAAAAAAAAAAAAAAAAAAAAAAAAAAAAAAAAAAAAAAAAAAAAAAAAAAAAAAAAAAAAAAAAAAAAAAAAAAAAAAAAAAAAAAAAAAAAAAAAAAAAAAAAAAAAAAAAAAAAAAAAAAAAAAAAAAAAAAAAAAAAAAAAAAAAAAAAAAAAAAAAAAAAAAAAAAAAAAAAAAAzc3NH87Ozv/Q0ND/1NTU/9fX1//b29v/3t7e/+Hh4f/k5OT/5+fn/+rq6v/t7e3/8PDw//Ly8v/19fX/9/f3//r6+v/8/Pz//f39//39/f/5+fn/9PT0//Dw8P/s7Oz/6Ojo/+Tk5P/g4OD/3Nzc/9jY2P/U1NT/0dHR/83Nzf/Kysr/xsbG/8PDw//AwMD/vb29/7q6uv+3t7f/tbW1/7Ozs/+wsLD/rq6u/62trf+rq6v/qamp/6ioqP+np6f/pqam/6Wlpf+kpKT/pKSk/6SkpP+lpaX/pqam/6ioqP+qqqr/q6ur/62trf+vr6//sbGx/7Ozs/+1tbX/t7e3/7m5uf+7u7v/vr6+/8DAwP+vwrn/KsF2/yrBdv8qwXb/KsF2/yrBdv8qwXb/KsF2/yrBdv8qwXb/KsF2/yrBdv8qwXb/KsF2/yrBdv8qwXb/KsF2/2Sdgf+Dg4P/fHx8/3V1db8AAAAAAAAAAAAAAAAAAAAAAAAAAAAAAAAAAAAAAAAAAAAAAAAAAAAAAAAAAAAAAAAAAAAAAAAAAAAAAAAAAAAAAAAAAAAAAAAAAAAAAAAAAAAAAAAAAAAAAAAAAAAAAAAAAAAAAAAAAAAAAAAAAAAAAAAAAAAAAAAAAAAAAAAAAAAAAAAAAAAAAAAAAAAAAAAAAAAAAAAAAAAAAADNzc0fzs7O/9DQ0P/U1NT/19fX/9vb2//e3t7/4eHh/+Tk5P/n5+f/6urq/+3t7f/w8PD/8vLy//X19f/39/f/+vr6//z8/P/9/f3//f39//n5+f/09PT/8PDw/+zs7P/o6Oj/5OTk/+Dg4P/c3Nz/2NjY/9TU1P/R0dH/zMzM/8XFxf+/vr7/u7q5/7i3tf+0s7H/s7Gv/7Cvrf+vrqz/rqyq/62rqf+tqqj/raqo/6yqp/+sqaf/q6mn/6upp/+rqab/qqim/6mnpv+pp6X/qKel/6inpf+op6b/qain/6qqqf+rq6r/ra2t/6+vr/+xsbH/s7Oz/7W1tf+3t7f/ubm5/7u7u/++vr7/wMDA/6/Cuf8qwnf/KsJ3/yrCd/8qwnf/KsJ3/yrCd/8qwnf/KsJ3/yrCd/8qwnf/KsJ3/yrCd/8qwnf/KsJ3/yrCd/8qwnf/ZJ6B/4ODg/98fHz/dXV1vwAAAAAAAAAAAAAAAAAAAAAAAAAAAAAAAAAAAAAAAAAAAAAAAAAAAAAAAAAAAAAAAAAAAAAAAAAAAAAAAAAAAAAAAAAAAAAAAAAAAAAAAAAAAAAAAAAAAAAAAAAAAAAAAAAAAAAAAAAAAAAAAAAAAAAAAAAAAAAAAAAAAAAAAAAAAAAAAAAAAAAAAAAAAAAAAAAAAAAAAAAAAAAAAM3NzR/Ozs7/0NDQ/9TU1P/X19f/29vb/97e3v/h4eH/5OTk/+fn5//q6ur/7e3t//Dw8P/y8vL/9fX1//f39//6+vr//Pz8//39/f/9/f3/+fn5//T09P/w8PD/7Ozs/+jo6P/b2tr/z87N/8XEwv+8urj/tbKw/7Ctqv+tqqf/raqn/62qp/+tqqf/raqn/62qp/+tqqf/raqn/62qp/+tqqf/raqn/62qp/+tqqf/raqn/62qp/+tqqf/raqn/62qp/+tqqf/raqn/62qp/+tqqf/raqn/62qp/+tqqf/raqn/62qp/+tqqf/raqo/66rqf+vraz/sbCu/7Szsv+4uLj/u7u7/76+vv/AwMD/r8K5/ynCeP8pwnj/KcJ4/ynCeP8pwnj/KcJ4/ynCeP8pwnj/KcJ4/ynCeP8pwnj/KcJ4/ynCeP8pwnj/KcJ4/ynCeP9knoL/g4OD/3x8fP91dXW/AAAAAAAAAAAAAAAAAAAAAAAAAAAAAAAAAAAAAAAAAAAAAAAAAAAAAAAAAAAAAAAAAAAAAAAAAAAAAAAAAAAAAAAAAAAAAAAAAAAAAAAAAAAAAAAAAAAAAAAAAAAAAAAAAAAAAAAAAAAAAAAAAAAAAAAAAAAAAAAAAAAAAAAAAAAAAAAAAAAAAAAAAAAAAAAAAAAAAAAAAAAAAAAAzc3NH87Ozv/Q0ND/1NTU/9fX1//b29v/3t7e/+Hh4f/k5OT/5+fn/+rq6v/t7e3/8PDw//Ly8v/19fX/9/f3//r6+v/8/Pz//f39//39/f/w8PD/3Nva/8rJx/+8ubf/sK2q/62qp/+tqqf/raqn/62qp/+tqqf/raqn/62qp/+tqqf/raqn/62qp/+tqqf/raqn/62qp/+tqqf/raqn/62qp/+tqqf/raqn/62qp/+tqqf/raqn/62qp/+tqqf/raqn/62qp/+tqqf/raqn/62qp/+tqqf/raqn/62qp/+tqqf/raqn/62qp/+tqqf/raqn/62qp/+tqqf/raqn/62qp/+urKn/srCu/7e1tP+qvLL/KMN5/yjDef8ow3n/KMN5/yjDef8ow3n/KMN5/yjDef8ow3n/KMN5/yjDef8ow3n/KMN5/yjDef8ow3n/KMN5/2Segv+Dg4P/fHx8/3V1db8AAAAAAAAAAAAAAAAAAAAAAAAAAAAAAAAAAAAAAAAAAAAAAAAAAAAAAAAAAAAAAAAAAAAAAAAAAAAAAAAAAAAAAAAAAAAAAAAAAAAAAAAAAAAAAAAAAAAAAAAAAAAAAAAAAAAAAAAAAAAAAAAAAAAAAAAAAAAAAAAAAAAAAAAAAAAAAAAAAAAAAAAAAAAAAAAAAAAAAAAAAAAAAADNzc0fzs7O/9DQ0P/U1NT/19fX/9vb2//e3t7/4eHh/+Tk5P/n5+f/6urq/+3t7f/w8PD/8vLy//X19f/39/f/9vb2/+Pi4f/Pzcv/uba0/6+sqf+vrKn/r6yp/6+sqf+vrKn/r6yp/6+sqf+vrKn/r6yp/6+sqf+vrKn/r6yp/6+sqf+vrKn/r6yp/6+sqf+vrKn/r6yp/6+sqf+vrKn/r6yp/6+sqf+vrKn/r6yp/6+sqf+vrKn/r6yp/6+sqf+vrKn/r6yp/6+sqf+vrKn/r6yp/6+sqf+vrKn/r6yp/6+sqf+vrKn/r6yp/6+sqf+vrKn/r6yp/6+sqf+vrKn/r6yp/6+sqf+vrKn/r6yp/56vo/8oxHr/KMR6/yjEev8oxHr/KMR6/yjEev8oxHr/KMR6/yjEev8oxHr/KMR6/yjEev8oxHr/KMR6/yjEev8oxHr/Y5+D/4ODg/98fHz/dXV1vwAAAAAAAAAAAAAAAAAAAAAAAAAAAAAAAAAAAAAAAAAAAAAAAAAAAAAAAAAAAAAAAAAAAAAAAAAAAAAAAAAAAAAAAAAAAAAAAAAAAAAAAAAAAAAAAAAAAAAAAAAAAAAAAAAAAAAAAAAAAAAAAAAAAAAAAAAAAAAAAAAAAAAAAAAAAAAAAAAAAAAAAAAAAAAAAAAAAAAAAAAAAAAAAM3NzR/Ozs7/0NDQ/9TU1P/X19f/29vb/97e3v/h4eH/5OTk/+fn5//q6ur/7e3t//Dw8P/v7+//3dva/8XDwf+zsK3/sa6r/7Guq/+xrqv/sa6r/7Guq/+xrqv/sa6r/7Guq/+xrqv/sa6r/7Guq/+xrqv/sa6r/7Guq/+xrqv/sa6r/7Guq/+xrqv/sa6r/7Guq/+xrqv/sa6r/7Guq/+xrqv/sa6r/7Guq/+xrqv/sa6r/7Guq/+xrqv/sa6r/5uxo/9yuZX/a7qT/2u6k/9rupP/a7qT/2u6k/9rupP/a7qT/2u6k/9rupP/a7qT/2u6k/9rupP/a7qT/2u6k/9rupP/a7qT/2u6k/9rupP/Y7uQ/yfGe/8nxnv/J8Z7/yfGe/8nxnv/J8Z7/yfGe/8nxnv/J8Z7/yfGe/8nxnv/J8Z7/yfGe/8nxnv/J8Z7/yfGe/9Fs3//VKV//1GhfP9Io3nfJsZ8fybGfH8mxnx/JsZ8fybGfH8mxnx/JsZ8fybGfH8mxnx/JsZ8fybGfH8mxnx/JsZ8fybGfH8mxnx/J8d8eybFeUMAAAAAAAAAAAAAAAAAAAAAAAAAAAAAAAAAAAAAAAAAAAAAAAAAAAAAAAAAAAAAAAAAAAAAAAAAAAAAAAAAAAAAAAAAAAAAAAAAAAAAAAAAAAAAAAAAAAAAzc3NH87Ozv/Q0ND/1NTU/9fX1//b29v/3t7e/+Hh4f/k5OT/5+fn/+rq6v/g4N//ycjG/7Sxrv+yr6z/sq+s/7KvrP+yr6z/sq+s/7KvrP+yr6z/sq+s/7KvrP+yr6z/sq+s/7KvrP+yr6z/sq+s/7KvrP+yr6z/sq+s/7KvrP+yr6z/sq+s/7KvrP+yr6z/sq+s/7KvrP+yr6z/sq+s/7KvrP+yr6z/sq+s/7KvrP+yr6z/sq+s/7Cvq/9cvI7/J8d8/yfHfP8nx3z/J8d8/yfHfP8nx3z/J8d8/yfHfP8nx3z/J8d8/yfHfP8nx3z/J8d8/yfHfP8nx3z/J8d8/yfHfP8nx3z/J8d8/yfHfP8nx3z/J8d8/yfHfP8nx3z/J8d8/yfHfP8nx3z/J8d8/yfHfP8nx3z/J8d8/yfHfP8nx3z/J8d8/yfHfP8nx3z/J8d8/yfHfP8nx3z/J8d8/yfHfP8nx3z/J8d8/yfHfP8nx3z/J8d8/yfHfP8nx3z/J8d8/yfHfP8nx3z/J8d8/yfHfP8nx3z/J8d8/yfHfP8nx3z/J8d8/ybGe8cgxXsfAAAAAAAAAAAAAAAAAAAAAAAAAAAAAAAAAAAAAAAAAAAAAAAAAAAAAAAAAAAAAAAAAAAAAAAAAAAAAAAAAAAAAAAAAAAAAAAAAAAAAAAAAADNzc0fzs7O/9DQ0P/U1NT/19fX/9vb2//e3t7/4eHh/+Tk5P/X1tX/vry6/7Oxrv+zsa7/s7Gu/7Oxrv+zsa7/s7Gu/7Oxrv+zsa7/s7Gu/7Oxrv+zsa7/s7Gu/7Oxrv+zsa7/s7Gu/7Oxrv+zsa7/s7Gu/7Oxrv+zsa7/s7Gu/7Oxrv+zsa7/s7Gu/7Oxrv+zsa7/s7Gu/7Oxrv+zsa7/s7Gu/7Oxrv+zsa7/s7Gu/7Oxrv+zsa7/WL6O/ybIff8myH3/Jsh9/ybIff8myH3/Jsh9/ybIff8myH3/Jsh9/ybIff8myH3/Jsh9/ybIff8myH3/Jsh9/ybIff8myH3/Jsh9/ybIff8myH3/Jsh9/ybIff8myH3/Jsh9/ybIff8myH3/Jsh9/ybIff8myH3/Jsh9/ybIff8myH3/Jsh9/ybIff8myH3/Jsh9/ybIff8myH3/Jsh9/ybIff8myH3/Jsh9/ybIff8myH3/Jsh9/ybIff8myH3/Jsh9/ybIff8myH3/Jsh9/ybIff8myH3/Jsh9/ybIff8myH3/Jsh9/ybIff8myH3/Jsh9/yXIfN8izHcPAAAAAAAAAAAAAAAAAAAAAAAAAAAAAAAAAAAAAAAAAAAAAAAAAAAAAAAAAAAAAAAAAAAAAAAAAAAAAAAAAAAAAAAAAAAAAAAAAAAAAM3NzR/Ozs7/0NDQ/9TU1P/X19f/29vb/97e3v/W1dX/vru5/7Wyr/+1sq//tbKv/7Wyr/+1sq//tbKv/7Wyr/+1sq//tbKv/7Wyr/+1sq//tbKv/7Wyr/+1sq//tbKv/7Wyr/+1sq//tbKv/7Wyr/+1sq//tbKv/7Wyr/+1sq//tbKv/7Wyr/+1sq//tbKv/7Wyr/+1sq//tbKv/7Wyr/+1sq//tbKv/7Wyr/+1sq//tbKv/4+3ov8myX7/Jsl+/ybJfv8myX7/Jsl+/ybJfv8myX7/Jsl+/ybJfv8myX7/Jsl+/ybJfv8myX7/Jsl+/ybJfv8myX7/Jsl+/ybJfv8myX7/Jsl+/ybJfv8myX7/Jsl+/ybJfv8myX7/Jsl+/ybJfv8myX7/Jsl+/ybJfv8myX7/Jsl+/ybJfv8myX7/Jsl+/ybJfv8myX7/Jsl+/ybJfv8myX7/Jsl+/ybJfv8myX7/Jsl+/ybJfv8myX7/Jsl+/ybJfv8myX7/Jsl+/ybJfv8myX7/Jsl+/ybJfv8myX7/Jsl+/ybJfv8myX7/Jsl+/ybJfv8myX7/Jsl+/yXJfo8AAAAAAAAAAAAAAAAAAAAAAAAAAAAAAAAAAAAAAAAAAAAAAAAAAAAAAAAAAAAAAAAAAAAAAAAAAAAAAAAAAAAAAAAAAAAAAAAAAAAAzc3NH87Ozv/Q0ND/1NTU/9fX1//Z2Nj/xcPB/7e0sf+3tLH/t7Sx/7e0sf+3tLH/t7Sx/7e0sf+3tLH/t7Sx/7e0sf+3tLH/t7Sx/7e0sf+3tLH/t7Sx/7e0sf+3tLH/t7Sx/7e0sf+3tLH/t7Sx/7e0sf+3tLH/t7Sx/7e0sf+3tLH/t7Sx/7e0sf+3tLH/t7Sx/7e0sf+3tLH/t7Sx/7e0sf+3tLH/t7Sx/7e0sf+3tLH/W8GR/yXJf/8lyX//Jcl//yXJf/8lyX//Jcl//yXJf/8lyX//Jcl//yXJf/8lyX//Jcl//yXJf/8lyX//Jcl//yXJf/8lyX//Jcl//yXJf/8lyX//Jcl//yXJf/8lyX//Jcl//yXJf/8lyX//Jcl//yXJf/8lyX//Jcl//yXJf/8lyX//Jcl//yXJf/8lyX//Jcl//yXJf/8lyX//Jcl//yXJf/8lyX//Jcl//yXJf/8lyX//Jcl//yXJf/8lyX//Jcl//yXJf/8lyX//Jcl//yXJf/8lyX//Jcl//yXJf/8lyX//Jcl//yXJf/8lyX//Jcl//yXJf/8lyX//JMh+5wAAAAAAAAAAAAAAAAAAAAAAAAAAAAAAAAAAAAAAAAAAAAAAAAAAAAAAAAAAAAAAAAAAAAAAAAAAAAAAAAAAAAAAAAAAAAAAAAAAAADNzc0fzs7O/9DQ0P/U1NT/0dDQ/7y5tv+4tbL/uLWy/7i1sv+4tbL/uLWy/7i1sv+4tbL/uLWy/7i1sv+4tbL/uLWy/7i1sv+4tbL/uLWy/7i1sv+4tbL/uLWy/7i1sv+4tbL/uLWy/7i1sv+4tbL/uLWy/7i1sv+4tbL/uLWy/7i1sv+4tbL/uLWy/7i1sv+4tbL/uLWy/7i1sv+4tbL/uLWy/7i1sv+4tbL/uLWy/7i1sv9JxIz/JcqA/yXKgP8lyoD/JcqA/yXKgP8lyoD/JcqA/yXKgP8lyoD/JcqA/yXKgP8lyoD/JcqA/yXKgP8lyoD/JcqA/yXKgP8lyoD/JcqA/yXKgP8lyoD/JcqA/yXKgP8lyoD/JcqA/yXKgP8lyoD/JcqA/yXKgP8lyoD/JcqA/yXKgP8lyoD/JcqA/yXKgP8lyoD/JcqA/yXKgP8lyoD/JcqA/yXKgP8lyoD/JcqA/yXKgP8lyoD/JcqA/yXKgP8lyoD/JcqA/yXKgP8lyoD/JcqA/yXKgP8lyoD/JcqA/yXKgP8lyoD/JcqA/yXKgP8lyoD/JcqA/yXKgP8lyoD/AAAAAAAAAAAAAAAAAAAAAAAAAAAAAAAAAAAAAAAAAAAAAAAAAAAAAAAAAAAAAAAAAAAAAAAAAAAAAAAAAAAAAAAAAAAAAAAAAAAAAM3NzR/Ozs7/0NDQ/83MzP+6uLX/ube0/7m3tP+5t7T/ube0/7m3tP+5t7T/ube0/7m3tP+5t7T/ube0/7m3tP+5t7T/ube0/7m3tP+5t7T/ube0/7m3tP+5t7T/ube0/7m3tP+5t7T/ube0/7m3tP+5t7T/ube0/7m3tP+5t7T/ube0/7m3tP+5t7T/ube0/7m3tP+5t7T/ube0/7m3tP+5t7T/ube0/7m3tP+5t7T/ube0/0nFjf8ky4H/JMuB/yTLgf8ky4H/JMuB/yTLgf8ky4H/JMuB/yTLgf8ky4H/JMuB/yTLgf8ky4H/JMuB/yTLgf8ky4H/JMuB/yTLgf8ky4H/JMuB/yTLgf8ky4H/JMuB/yTLgf8ky4H/JMuB/yTLgf8ky4H/JMuB/yTLgf8ky4H/JMuB/yTLgf8ky4H/JMuB/yTLgf8ky4H/JMuB/yTLgf8ky4H/JMuB/yTLgf8ky4H/JMuB/yTLgf8ky4H/JMuB/yTLgf8ky4H/JMuB/yTLgf8ky4H/JMuB/yTLgf8ky4H/JMuB/yTLgf8ky4H/JMuB/yTLgf8ky4H/JMuB/yTLgf8AAAAAAAAAAAAAAAAAAAAAAAAAAAAAAAAAAAAAAAAAAAAAAAAAAAAAAAAAAAAAAAAAAAAAAAAAAAAAAAAAAAAAAAAAAAAAAAAAAAAAzc3NH87Ozv/My8v/vLm2/7u4tf+7uLX/u7i1/7u4tf+7uLX/u7i1/7u4tf+7uLX/u7i1/7u4tf+7uLX/u7i1/7u4tf+7uLX/u7i1/7u4tf+7uLX/u7i1/7u4tf+7uLX/u7i1/7u4tf+7uLX/u7i1/7u4tf+7uLX/u7i1/7u4tf+7uLX/u7i1/7u4tf+7uLX/u7i1/7u4tf+7uLX/u7i1/7u4tf+7uLX/u7i1/7u4tf+7uLX/ScaO/yTMgv8kzIL/JMyC/yTMgv8kzIL/JMyC/yTMgv8kzIL/JMyC/yTMgv8kzIL/JMyC/yTMgv8kzIL/JMyC/yTMgv8kzIL/JMyC/yTMgv8kzIL/JMyC/yTMgv8kzIL/JMyC/yTMgv8kzIL/JMyC/yTMgv8kzIL/JMyC/yTMgv8kzIL/JMyC/yTMgv8kzIL/JMyC/yTMgv8kzIL/JMyC/yTMgv8kzIL/JMyC/yTMgv8kzIL/JMyC/yTMgv8kzIL/JMyC/yTMgv8kzIL/JMyC/yTMgv8kzIL/JMyC/yTMgv8kzIL/JMyC/yTMgv8kzIL/JMyC/yTMgv8kzIL/JMyC/wAAAAAAAAAAAAAAAAAAAAAAAAAAAAAAAAAAAAAAAAAAAAAAAAAAAAAAAAAAAAAAAAAAAAAAAAAAAAAAAAAAAAAAAAAAAAAAAAAAAADNzc0fzc3N/7+8uv+9urf/vbq3/726t/+9urf/vbq3/726t/+9urf/vbq3/726t/+9urf/vbq3/726t/+9urf/vbq3/726t/+9urf/vbq3/726t/+9urf/vbq3/726t/+9urf/vbq3/726t/+9urf/vbq3/726t/+9urf/vbq3/726t/+9urf/vbq3/726t/+9urj/vLq3/7u5t/+6uLb/ube1/7i2tP+3tbP/trWz/7a0sv9HxY7/I8yD/yPMg/8jzIP/I8yD/yPMg/8jzIP/I8yD/yPMg/8jzIP/I8yD/yPMg/8jzIP/I8yD/yPMg/8jzIP/I8yD/yPMg/8jzIP/I8yD/yPMg/8jzIP/I8yD/yPMg/8jzIP/I8yD/yPMg/8jzIP/I8yD/yPMg/8jzIP/I8yD/yPMg/8jzIP/I8yD/yPMg/8jzIP/I8yD/yPMg/8jzIP/I8yD/yPMg/8jzIP/I8yD/yPMg/8jzIP/I8yD/yPMg/8jzIP/I8yD/yPMg/8jzIP/I8yD/yPMg/8jzIP/I8yD/yPMg/8jzIP/I8yD/yPMg/8jzIP/I8yD/yPMg/8jzIP/AAAAAAAAAAAAAAAAAAAAAAAAAAAAAAAAAAAAAAAAAAAAAAAAAAAAAAAAAAAAAAAAAAAAAAAAAAAAAAAAAAAAAAAAAAAAAAAAAAAAAM3NzR/GxcT/vru5/767uf++u7n/vru5/767uf++u7n/vru5/767uf++u7n/vru5/767uf++u7n/vru5/767uf++u7n/vru5/767uf++u7n/vru5/767uf++u7n/vru5/767uf++u7n/vru5/8G/vf/Fw8L/x8XE/8jHxv/Hxsb/xsbF/8XExP/CwsL/wMDA/729vf+6urr/t7e3/7W1tf+zs7P/sLCw/66urv+tra3/q6ur/0XEjf8jzYP/I82D/yPNg/8jzYP/I82D/yPNg/8jzYP/I82D/yPNg/8jzYP/I82D/yPNg/8jzYP/I82D/yPNg/8jzYP/I82D/yPNg/8jzYP/I82D/yPNg/8jzYP/I82D/yPNg/8jzYP/I82D/yPNg/8jzYP/I82D/yPNg/8jzYP/I82D/yPNg/8jzYP/I82D/yPNg/8jzYP/I82D/yPNg/8jzYP/I82D/yPNg/8jzYP/I82D/yPNg/8jzYP/I82D/yPNg/8jzYP/I82D/yPNg/8jzYP/I82D/yPNg/8jzYP/I82D/yPNg/8jzYP/I82D/yPNg/8jzYP/I82D/yPNg/8AAAAAAAAAAAAAAAAAAAAAAAAAAAAAAAAAAAAAAAAAAAAAAAAAAAAAAAAAAAAAAAAAAAAAAAAAAAAAAAAAAAAAAAAAAAAAAAAAAAAAzc3NH8LAvf/Avbv/wL67/7+9uv+/vbr/v726/7+9uv+/vbr/v726/7+9uv+/vbr/v726/7+9uv+/vbr/v726/7+9uv+/vbr/v726/7+9uv+/vbr/wb68/8nHxf/S0M//2NfW/9zc2//e3t3/3Nzc/9jY2P/U1NT/0dHR/83Nzf/Kysr/xsbG/8PDw//AwMD/vb29/7q6uv+3t7f/tbW1/7Ozs/+wsLD/rq6u/62trf+rq6v/RMSO/zXTjv8izoT/Is6E/yLOhP8izoT/Is6E/yLOhP8izoT/Is6E/yLOhP8izoT/Is6E/yLOhP8izoT/Is6E/yLOhP8izoT/Is6E/yLOhP8izoT/Is6E/yLOhP8izoT/Is6E/yLOhP8izoT/Is6E/yLOhP8izoT/Is6E/yLOhP8izoT/Is6E/yLOhP8izoT/Is6E/yLOhP8izoT/Is6E/yLOhP8izoT/Is6E/yLOhP8izoT/Is6E/yLOhP8izoT/Is6E/yLOhP8izoT/Is6E/yLOhP8izoT/Is6E/yLOhP8izoT/Is6E/yLOhP8izoT/Is6E/yLOhP8z0o3/Is6E/wAAAAAAAAAAAAAAAAAAAAAAAAAAAAAAAAAAAAAAAAAAAAAAAAAAAAAAAAAAAAAAAAAAAAAAAAAAAAAAAAAAAAAAAAAAAAAAAAAAAADNzc0fwb68/8TBv//IxcP/wb68/8G+vP/Bvrz/wb68/8G+vP/Bvrz/wb68/8G+vP/Bvrz/wb68/8G+vP/Bvrz/wb68/8PAvf/Qzsz/4d/e/+vr6v/y8vL/8PDw/+zs7P/o6Oj/5OTk/+Dg4P/c3Nz/2NjY/9TU1P/R0dH/zc3N/8rKyv/Gxsb/w8PD/8DAwP+9vb3/urq6/7e3t/+1tbX/s7Oz/7CwsP+urq7/ra2t/6urq/9ExY7/Tdub/ybQh/8iz4X/Is+F/yLPhf8iz4X/Is+F/yLPhf8iz4X/Is+F/yLPhf8iz4X/Is+F/yLPhf8iz4X/Is+F/yLPhf8iz4X/Is+F/yLPhf8iz4X/Is+F/yLPhf8iz4X/Is+F/yLPhf8iz4X/Is+F/yLPhf8iz4X/Is+F/yLPhf8iz4X/Is+F/yLPhf8iz4X/Is+F/yLPhf8iz4X/Is+F/yLPhf8iz4X/Is+F/yLPhf8iz4X/Is+F/yLPhf8iz4X/Is+F/yLPhf8iz4X/Is+F/yLPhf8iz4X/Is+F/yLPhf8iz4X/Is+F/yLPhf8iz4X/Is+F/03bm/8iz4X/AAAAAAAAAAAAAAAAAAAAAAAAAAAAAAAAAAAAAAAAAAAAAAAAAAAAAAAAAAAAAAAAAAAAAAAAAAAAAAAAAAAAAAAAAAAAAAAAAAAAALy8vBfDwL3/xsPA/9PS0P/DwL3/w8C9/8PAvf/DwL3/w8C9/8PAvf/DwL3/w8C9/8PAvf/DwL3/x8TB/9fV0//p6Of/+fn5//39/f/9/f3/+fn5//T09P/w8PD/7Ozs/+jo6P/k5OT/4ODg/9zc3P/Y2Nj/1NTU/9HR0f/Nzc3/ysrK/8bGxv/Dw8P/wMDA/729vf+6urr/t7e3/7W1tf+zs7P/sLCw/66urv+tra3/q6ur/0rEkP801Y//WuCj/yHPhv8hz4b/Ic+G/yHPhv8hz4b/Ic+G/yHPhv8hz4b/Ic+G/yHPhv8hz4b/Ic+G/yHPhv8hz4b/Ic+G/yHPhv8hz4b/Ic+G/yHPhv8hz4b/Ic+G/yHPhv8hz4b/Ic+G/yHPhv8hz4b/Ic+G/yHPhv8hz4b/Ic+G/yHPhv8hz4b/Ic+G/yHPhv8hz4b/Ic+G/yHPhv8hz4b/Ic+G/yHPhv8hz4b/Ic+G/yHPhv8hz4b/Ic+G/yHPhv8hz4b/Ic+G/yHPhv8hz4b/Ic+G/yHPhv8hz4b/Ic+G/yHPhv8hz4b/Ic+G/yHPhv801I//WuCj/yHOhfcAAAAAAAAAAAAAAAAAAAAAAAAAAAAAAAAAAAAAAAAAAAAAAAAAAAAAAAAAAAAAAAAAAAAAAAAAAAAAAAAAAAAAAAAAAAAAAAAAAAAAAAAAAMTCvubEwb//2tnX/8vJx//Ewb//xMG//8TBv//Ewb//xMG//8TBv//Fwr//0tDO/+Tj4//z8/P/9/f3//r6+v/8/Pz//f39//39/f/5+fn/9PT0//Dw8P/s7Oz/6Ojo/+Tk5P/g4OD/3Nzc/9jY2P/U1NT/0dHR/83Nzf/Kysr/xsbG/8PDw//AwMD/vb29/7q6uv+3t7f/tbW1/7Ozs/+wsLD/rq6u/62trf+rq6v/cLmb/yHQh/946bL/QdmX/yHQh/8h0If/IdCH/yHQh/8h0If/IdCH/yHQh/8h0If/IdCH/yHQh/8h0If/IdCH/yHQh/8h0If/IdCH/yHQh/8h0If/IdCH/yHQh/8h0If/IdCH/yHQh/8h0If/IdCH/yHQh/8h0If/IdCH/yHQh/8h0If/IdCH/yHQh/8h0If/IdCH/yHQh/8h0If/IdCH/yHQh/8h0If/IdCH/yHQh/8h0If/IdCH/yHQh/8h0If/IdCH/yHQh/8h0If/IdCH/yHQh/8h0If/IdCH/yHQh/8h0If/IdCH/yHQh/8h0If/K9OM/4jtu/8p0ov/IM+FtwAAAAAAAAAAAAAAAAAAAAAAAAAAAAAAAAAAAAAAAAAAAAAAAAAAAAAAAAAAAAAAAAAAAAAAAAAAAAAAAAAAAAAAAAAAAAAAAAAAAAAAAAAAxMK+i8bDwP/T0c//29rY/8rHxf/Gw8D/xsPA/8bDwP/HxcL/19bU/+np6P/w8PD/8vLy//X19f/39/f/+vr6//z8/P/9/f3//f39//n5+f/09PT/8PDw/+zs7P/o6Oj/5OTk/+Dg4P/c3Nz/2NjY/9TU1P/R0dH/zc3N/8rKyv/Gxsb/w8PD/8DAwP+9vb3/urq6/7e3t/+1tbX/s7Oz/7CwsP+urq7/ra2t/6urq/+lqqj/McuM/yvTjf+Q8L//Z+Wr/zLWkP8g0Yj/INGI/yDRiP8g0Yj/INGI/yDRiP8g0Yj/INGI/yDRiP8g0Yj/INGI/yDRiP8g0Yj/INGI/yDRiP8g0Yj/INGI/yDRiP8g0Yj/INGI/yDRiP8g0Yj/INGI/yDRiP8g0Yj/INGI/yDRiP8g0Yj/INGI/yDRiP8g0Yj/INGI/yDRiP8g0Yj/INGI/yDRiP8g0Yj/INGI/yDRiP8g0Yj/INGI/yDRiP8g0Yj/INGI/yDRiP8g0Yj/INGI/yDRiP8g0Yj/INGI/yDRiP8g0Yj/KdOM/1fgo/+X8sP/QdmX/x/Rh/og0IY3AAAAAAAAAAAAAAAAAAAAAAAAAAAAAAAAAAAAAAAAAAAAAAAAAAAAAAAAAAAAAAAAAAAAAAAAAAAAAAAAAAAAAAAAAAAAAAAAAAAAAAAAAADMzLsPyMXD6srHxP/b2tj/3NrZ/83LyP/JxsP/1tXT/+Xl5f/q6ur/7e3t//Dw8P/y8vL/9fX1//f39//6+vr//Pz8//39/f/9/f3/+fn5//T09P/w8PD/7Ozs/+jo6P/k5OT/4ODg/9zc3P/Y2Nj/1NTU/9HR0f/Nzc3/ysrK/8bGxv/Dw8P/wMDA/729vf+6urr/t7e3/7W1tf+zs7P/sLCw/66urv+tra3/q6ur/6mpqf+TrqP/LsyL/ybTi/9m5av/lfHC/675z/+u+c//rvnP/675z/+u+c//rvnP/675z/+u+c//rvnP/675z/+u+c//rvnP/675z/+u+c//rvnP/675z/+u+c//rvnP/1Xgov8g0Yj/INGI/yDRiP8g0Yj/INGI/yDRiP8g0Yj/INGI/yDRiP8g0Yj/INGI/yDRiP8g0Yj/INGI/zHWkf+u+c//rvnP/675z/+u+c//rvnP/675z/+u+c//rvnP/675z/+u+c//rvnP/675z/+u+c//rvnP/675z/+u+c//rvnP/675z/+i9cj/dumz/zHWkf8e0Ij3HtCHUwAAAAAAAAAAAAAAAAAAAAAAAAAAAAAAAAAAAAAAAAAAAAAAAAAAAAAAAAAAAAAAAAAAAAAAAAAAAAAAAAAAAAAAAAAAAAAAAAAAAAAAAAAAAAAAAAAAAADJxcJDycfD+s/Myv/d3Nr/3dzb/9/f3//k5OT/5+fn/+rq6v/t7e3/8PDw//Ly8v/19fX/9/f3//r6+v/8/Pz//f39//39/f/5+fn/9PT0//Dw8P/s7Oz/6Ojo/+Tk5P/g4OD/3Nzc/9jY2P/U1NT/0dHR/83Nzf/Kysr/xsbG/8PDw//AwMD/vb29/7q6uv+3t7f/tbW1/7Ozs/+wsLD/rq6u/62trf+rq6v/qamp/6ioqP+eqaX/ZLuX/zrIjv8wy4z/MMuM/zDLjP8wzIz/MMyN/zHMjf8xzI3/McyN/zHNjf8xzY7/Ms2O/zLNjv8yzo7/Ms6P/zPOj/8zzo//M8+Q/zTPkP8x0I//INKJ/yDSif8g0on/INKJ/yDSif8g0on/INKJ/yDSif8g0on/INKJ/yDSif8g0on/INKJ/yDSif8g0on/INKJ/y3Qjf8q0IzvH9KI3h/SiN4f0ojeH9KI3h/SiN4f0ojeH9KI3h/SiN4f0ojeH9KI3h/SiN4f0ojeH9KI3h/SiN4f0ojeH9KI3h/SiN4e0YnWHtKIlhrRiScAAAAAAAAAAAAAAAAAAAAAAAAAAAAAAAAAAAAAAAAAAAAAAAAAAAAAAAAAAAAAAAAAAAAAAAAAAAAAAAAAAAAAAAAAAAAAAAAAAAAAAAAAAAAAAAAAAAAAAAAAAAAAAADKx8RTzMjG+tjX1v/e3t7/4eHh/+Tk5P/n5+f/6urq/+3t7f/w8PD/8vLy//X19f/39/f/+vr6//z8/P/9/f3//f39//n5+f/09PT/8PDw/+zs7P/o6Oj/5OTk/+Dg4P/c3Nz/2NjY/9TU1P/R0dH/zc3N/8rKyv/Gxsb/w8PD/8DAwP+9vb3/urq6/7e3t/+1tbX/s7Oz/7CwsP+urq7/ra2t/6urq/+pqan/qKio/6enp/+mpqb/paWl/6SkpP+kpKT/pKSk/6Wlpf+mpqb/qKio/6qqqv+rq6v/ra2t/6+vr/+xsbH/s7Oz/7W1tf+3t7f/ubm5/7u7u/++vr7/wMDA/67Eu/8f04r/H9OK/x/Tiv8f04r/H9OK/x/Tiv8f04r/H9OK/x/Tiv8f04r/H9OK/x/Tiv8f04r/H9OK/x/Tiv8f04r/fcyp18fHxxcAAAAAAAAAAAAAAAAAAAAAAAAAAAAAAAAAAAAAAAAAAAAAAAAAAAAAAAAAAAAAAAAAAAAAAAAAAAAAAAAAAAAAAAAAAAAAAAAAAAAAAAAAAAAAAAAAAAAAAAAAAAAAAAAAAAAAAAAAAAAAAAAAAAAAAAAAAAAAAAAAAAAAAAAAAAAAAAAAAAAAAAAAAAAAAAAAAAAAAAAAAAAAAAAAAAAAAAAAAAAAAAAAAAAAAAAAANnZ2RvY2Nja29vb/97e3v/h4eH/5OTk/+fn5//q6ur/7e3t//Dw8P/y8vL/9fX1//f39//6+vr//Pz8//39/f/9/f3/+fn5//T09P/w8PD/7Ozs/+jo6P/k5OT/4ODg/9zc3P/Y2Nj/1NTU/9HR0f/Nzc3/ysrK/8bGxv/Dw8P/wMDA/729vf+6urr/t7e3/7W1tf+zs7P/sLCw/66urv+tra3/q6ur/6mpqf+oqKj/p6en/6ampv+lpaX/pKSk/6SkpP+kpKT/paWl/6ampv+oqKj/qqqq/6urq/+tra3/r6+v/7Gxsf+zs7P/tbW1/7e3t/+5ubn/u7u7/76+vv/AwMD/rsS7/x/Ti/8f04v/H9OL/x/Ti/8f04v/H9OL/x/Ti/8f04v/H9OL/x/Ti/8f04v/H9OL/x/Ti/8f04v/H9OL/x/Ti/9MsomnqqqqAwAAAAAAAAAAAAAAAAAAAAAAAAAAAAAAAAAAAAAAAAAAAAAAAAAAAAAAAAAAAAAAAAAAAAAAAAAAAAAAAAAAAAAAAAAAAAAAAAAAAAAAAAAAAAAAAAAAAAAAAAAAAAAAAAAAAAAAAAAAAAAAAAAAAAAAAAAAAAAAAAAAAAAAAAAAAAAAAAAAAAAAAAAAAAAAAAAAAAAAAAAAAAAAAAAAAAAAAAAAAAAAAAAAAADS0tIX09PT39fX1//b29v/3t7e/+Hh4f/k5OT/5+fn/+rq6v/t7e3/8PDw//Ly8v/19fX/9/f3//r6+v/8/Pz//f39//39/f/5+fn/9PT0//Dw8P/s7Oz/6Ojo/+Tk5P/g4OD/3Nzc/9jY2P/U1NT/0dHR/83Nzf/Kysr/xsbG/8PDw//AwMD/vb29/7q6uv+3t7f/tbW1/7Ozs/+wsLD/rq6u/62trf+rq6v/qamp/6ioqP+np6f/pqam/6Wlpf+kpKT/pKSk/6SkpP+lpaX/pqam/6ioqP+qqqr/q6ur/62trf+vr6//sbGx/7Ozs/+1tbX/t7e3/7m5uf+7u7v/vr6+/8DAwP+uxLv/HtSL/x7Ui/8e1Iv/HtSL/x7Ui/8e1Iv/HtSL/x7Ui/8e1Iv/HtSL/x7Ui/8e1Iv/HtSL/x7Ui/8e1Iv/HtSL/2Ckif+Dg4OjAAAAAAAAAAAAAAAAAAAAAAAAAAAAAAAAAAAAAAAAAAAAAAAAAAAAAAAAAAAAAAAAAAAAAAAAAAAAAAAAAAAAAAAAAAAAAAAAAAAAAAAAAAAAAAAAAAAAAAAAAAAAAAAAAAAAAAAAAAAAAAAAAAAAAAAAAAAAAAAAAAAAAAAAAAAAAAAAAAAAAAAAAAAAAAAAAAAAAAAAAAAAAAAAAAAAAAAAAAAAAAAAqqqqA9LS0sLU1NT/19fX/9vb2//e3t7/4eHh/+Tk5P/n5+f/6urq/+3t7f/w8PD/8vLy//X19f/39/f/+vr6//z8/P/9/f3//f39//n5+f/09PT/8PDw/+zs7P/o6Oj/5OTk/+Dg4P/c3Nz/2NjY/9TU1P/R0dH/zc3N/8rKyv/Gxsb/w8PD/8DAwP+9vb3/urq6/7e3t/+1tbX/s7Oz/7CwsP+urq7/ra2t/6urq/+pqan/qKio/6enp/+mpqb/paWl/6SkpP+kpKT/pKSk/6Wlpf+mpqb/qKio/6qqqv+rq6v/ra2t/6+vr/+xsbH/s7Oz/7W1tf+3t7f/ubm5/7u7u/++vr7/wMDA/67Eu/8e1Iz/HtSM/x7UjP8e1Iz/HtSM/x7UjP8e1Iz/HtSM/x7UjP8e1Iz/HtSM/x7UjP8e1Iz/HtSM/x7UjP8e1Iz/YKSJ/4ODg/98fHxvAAAAAAAAAAAAAAAAAAAAAAAAAAAAAAAAAAAAAAAAAAAAAAAAAAAAAAAAAAAAAAAAAAAAAAAAAAAAAAAAAAAAAAAAAAAAAAAAAAAAAAAAAAAAAAAAAAAAAAAAAAAAAAAAAAAAAAAAAAAAAAAAAAAAAAAAAAAAAAAAAAAAAAAAAAAAAAAAAAAAAAAAAAAAAAAAAAAAAAAAAAAAAAAAAAAAAAAAAADOzs5f0NDQ/9TU1P/X19f/29vb/97e3v/h4eH/5OTk/+fn5//q6ur/7e3t//Dw8P/y8vL/9fX1//f39//6+vr//Pz8//39/f/9/f3/+fn5//T09P/w8PD/7Ozs/+jo6P/k5OT/4ODg/9zc3P/Y2Nj/1NTU/9HR0f/Nzc3/ysrK/8bGxv/Dw8P/wMDA/729vf+6urr/t7e3/7W1tf+zs7P/sLCw/66urv+tra3/q6ur/6mpqf+oqKj/p6en/6ampv+lpaX/pKSk/6SkpP+kpKT/paWl/6ampv+oqKj/qqqq/6urq/+tra3/r6+v/7Gxsf+zs7P/tbW1/7e3t/+5ubn/u7u7/76+vv/AwMD/rsS7/x7Vjf8e1Y3/HtWN/x7Vjf8e1Y3/HtWN/x7Vjf8e1Y3/HtWN/x7Vjf8e1Y3/HtWN/x7Vjf8e1Y3/HtWN/x7Vjf9gpIr/g4OD/3t7e/N5eXkXAAAAAAAAAAAAAAAAAAAAAAAAAAAAAAAAAAAAAAAAAAAAAAAAAAAAAAAAAAAAAAAAAAAAAAAAAAAAAAAAAAAAAAAAAAAAAAAAAAAAAAAAAAAAAAAAAAAAAAAAAAAAAAAAAAAAAAAAAAAAAAAAAAAAAAAAAAAAAAAAAAAAAAAAAAAAAAAAAAAAAAAAAAAAAAAAAAAAAAAAAAAAAAAAAAAAAM7Ozs7Q0ND/1NTU/9fX1//b29v/3t7e/+Hh4f/k5OT/5+fn/+rq6v/t7e3/8PDw//Ly8v/19fX/9/f3//r6+v/8/Pz//f39//39/f/5+fn/9PT0//Dw8P/s7Oz/6Ojo/+Tk5P/g4OD/3Nzc/9jY2P/U1NT/0dHR/83Nzf/Kysr/xsbG/8PDw//AwMD/vb29/7q6uv+3t7f/tbW1/7Ozs/+wsLD/rq6u/62trf+rq6v/qamp/6ioqP+np6f/pqam/6Wlpf+kpKT/pKSk/6SkpP+lpaX/pqam/6ioqP+qqqr/q6ur/62trf+vr6//sbGx/7Ozs/+1tbX/t7e3/7m5uf+7u7v/vr6+/8DAwP+txLv/HdWN/x3Vjf8d1Y3/HdWN/x3Vjf8d1Y3/HdWN/x3Vjf8d1Y3/HdWN/x3Vjf8d1Y3/HdWN/x3Vjf8d1Y3/HdWN/2Cliv+Dg4P/fHx8/3V1dXcAAAAAAAAAAAAAAAAAAAAAAAAAAAAAAAAAAAAAAAAAAAAAAAAAAAAAAAAAAAAAAAAAAAAAAAAAAAAAAAAAAAAAAAAAAAAAAAAAAAAAAAAAAAAAAAAAAAAAAAAAAAAAAAAAAAAAAAAAAAAAAAAAAAAAAAAAAAAAAAAAAAAAAAAAAAAAAAAAAAAAAAAAAAAAAAAAAAAAAAAAAAAAAADMzMwPzs7O/9DQ0P/U1NT/19fX/9vb2//e3t7/4eHh/+Tk5P/n5+f/6urq/+3t7f/w8PD/8vLy//X19f/39/f/+vr6//z8/P/9/f3//f39//n5+f/09PT/8PDw/+zs7P/o6Oj/5OTk/+Dg4P/c3Nz/2NjY/9TU1P/R0dH/zc3N/8rKyv/Gxsb/w8PD/8DAwP+9vb3/urq6/7e3t/+1tbX/s7Oz/7CwsP+urq7/ra2t/6urq/+pqan/qKio/6enp/+mpqb/paWl/6SkpP+kpKT/pKSk/6Wlpf+mpqb/qKio/6qqqv+rq6v/ra2t/6+vr/+xsbH/s7Oz/7W1tf+3t7f/ubm5/7u7u/++vr7/wMDA/63EvP8d1o7/HdaO/x3Wjv8d1o7/HdaO/x3Wjv8d1o7/HdaO/x3Wjv8d1o7/HdaO/x3Wjv8d1o7/HdaO/x3Wjv8d1o7/X6WK/4ODg/98fHz/dnZ2swAAAAAAAAAAAAAAAAAAAAAAAAAAAAAAAAAAAAAAAAAAAAAAAAAAAAAAAAAAAAAAAAAAAAAAAAAAAAAAAAAAAAAAAAAAAAAAAAAAAAAAAAAAAAAAAAAAAAAAAAAAAAAAAAAAAAAAAAAAAAAAAAAAAAAAAAAAAAAAAAAAAAAAAAAAAAAAAAAAAAAAAAAAAAAAAAAAAAAAAAAAAAAAAM3NzR/Ozs7/0NDQ/9TU1P/X19f/29vb/97e3v/h4eH/5OTk/+fn5//q6ur/7e3t//Dw8P/y8vL/9fX1//f39//6+vr//Pz8//39/f/9/f3/+fn5//T09P/w8PD/7Ozs/+jo6P/k5OT/4ODg/9zc3P/Y2Nj/1NTU/9HR0f/Nzc3/ysrK/8bGxv/Dw8P/wMDA/729vf+6urr/t7e3/7W1tf+zs7P/sLCw/66urv+tra3/q6ur/6mpqf+oqKj/p6en/6ampv+lpaX/pKSk/6SkpP+kpKT/paWl/6ampv+oqKj/qqqq/6urq/+tra3/r6+v/7Gxsf+zs7P/tbW1/7e3t/+5ubn/u7u7/76+vv/AwMD/rcW8/x3Wj/8d1o//HdaP/x3Wj/8d1o//HdaP/x3Wj/8d1o//HdaP/x3Wj/8d1o//HdaP/x3Wj/8d1o//HdaP/x3Wj/9fpYv/g4OD/3x8fP91dXW/AAAAAAAAAAAAAAAAAAAAAAAAAAAAAAAAAAAAAAAAAAAAAAAAAAAAAAAAAAAAAAAAAAAAAAAAAAAAAAAAAAAAAAAAAAAAAAAAAAAAAAAAAAAAAAAAAAAAAAAAAAAAAAAAAAAAAAAAAAAAAAAAAAAAAAAAAAAAAAAAAAAAAAAAAAAAAAAAAAAAAAAAAAAAAAAAAAAAAAAAAAAAAAAAzc3NH87Ozv/Q0ND/1NTU/9fX1//b29v/3t7e/+Hh4f/k5OT/5+fn/+rq6v/t7e3/8PDw//Ly8v/19fX/9/f3//r6+v/8/Pz//f39//39/f/5+fn/9PT0//Dw8P/s7Oz/6Ojo/+Tk5P/g4OD/3Nzc/9jY2P/U1NT/0dHR/83Nzf/Kysr/xsbG/8PDw//AwMD/vb29/7q6uv+3t7f/tbW1/7Ozs/+wsLD/rq6u/62trf+rq6v/qamp/6ioqP+np6f/pqam/6Wlpf+kpKT/pKSk/6SkpP+lpaX/pqam/6ioqP+qqqr/q6ur/62trf+vr6//sbGx/7Ozs/+1tbX/t7e3/7m5uf+7u7v/vr6+/8DAwP+txbz/HNeP/xzXj/8c14//HNeP/xzXj/8c14//HNeP/xzXj/8c14//HNeP/xzXj/8c14//HNeP/xzXj/8c14//HNeP/1+li/+Dg4P/fHx8/3V1db8AAAAAAAAAAAAAAAAAAAAAAAAAAAAAAAAAAAAAAAAAAAAAAAAAAAAAAAAAAAAAAAAAAAAAAAAAAAAAAAAAAAAAAAAAAAAAAAAAAAAAAAAAAAAAAAAAAAAAAAAAAAAAAAAAAAAAAAAAAAAAAAAAAAAAAAAAAAAAAAAAAAAAAAAAAAAAAAAAAAAAAAAAAAAAAAAAAAAAAAAAAAAAAADNzc0fzs7O/9DQ0P/U1NT/19fX/9vb2//e3t7/4eHh/+Tk5P/n5+f/6urq/+3t7f/w8PD/8vLy//X19f/39/f/+vr6//z8/P/9/f3//f39//n5+f/09PT/8PDw/+zs7P/o6Oj/5OTk/+Dg4P/c3Nz/2NjY/9TU1P/R0dH/zc3N/8rKyv/Gxsb/w8PD/8DAwP+9vb3/urq6/7e3t/+1tbX/s7Oz/7CwsP+urq7/ra2t/6urq/+pqan/qKio/6enp/+mpqb/paWl/6SkpP+kpKT/pKSk/6Wlpf+mpqb/qKio/6qqqv+rq6v/ra2t/6+vr/+xsbH/s7Oz/7W1tf+3t7f/ubm5/7u7u/++vr7/wMDA/63FvP8c15D/HNeQ/xzXkP8c15D/HNeQ/xzXkP8c15D/HNeQ/xzXkP8c15D/HNeQ/xzXkP8c15D/HNeQ/xzXkP8c15D/X6WL/4ODg/98fHz/dXV1vwAAAAAAAAAAAAAAAAAAAAAAAAAAAAAAAAAAAAAAAAAAAAAAAAAAAAAAAAAAAAAAAAAAAAAAAAAAAAAAAAAAAAAAAAAAAAAAAAAAAAAAAAAAAAAAAAAAAAAAAAAAAAAAAAAAAAAAAAAAAAAAAAAAAAAAAAAAAAAAAAAAAAAAAAAAAAAAAAAAAAAAAAAAAAAAAAAAAAAAAAAAAAAAAM3NzR/Ozs7/0NDQ/9TU1P/X19f/29vb/97e3v/h4eH/5OTk/+fn5//q6ur/7e3t//Dw8P/y8vL/9fX1//f39//6+vr//Pz8//39/f/9/f3/+fn5//T09P/w8PD/7Ozs/+jo6P/k5OT/4ODg/9zc3P/Y2Nj/1NTU/9HR0f/Nzc3/ysrK/8bGxv/Dw8P/wMDA/729vf+6urr/t7e3/7W1tf+zs7P/sLCw/66urv+tra3/q6ur/6mpqf+oqKj/p6en/6ampv+lpaX/pKSk/6SkpP+kpKT/paWl/6ampv+oqKj/qqqq/6urq/+tra3/r6+v/7Gxsf+zs7P/tbW1/7e3t/+5ubn/u7u7/76+vv/AwMD/rcW8/xzYkP8c2JD/HNiQ/xzYkP8c2JD/HNiQ/xzYkP8c2JD/HNiQ/xzYkP8c2JD/HNiQ/xzYkP8c2JD/HNiQ/xzYkP9fpov/g4OD/3x8fP91dXW/AAAAAAAAAAAAAAAAAAAAAAAAAAAAAAAAAAAAAAAAAAAAAAAAAAAAAAAAAAAAAAAAAAAAAAAAAAAAAAAAAAAAAAAAAAAAAAAAAAAAAAAAAAAAAAAAAAAAAAAAAAAAAAAAAAAAAAAAAAAAAAAAAAAAAAAAAAAAAAAAAAAAAAAAAAAAAAAAAAAAAAAAAAAAAAAAAAAAAAAAAAAAAAAAzc3NH87Ozv/Q0ND/1NTU/9fX1//b29v/3t7e/+Hh4f/k5OT/5+fn/+rq6v/t7e3/8PDw//Ly8v/19fX/9/f3//r6+v/8/Pz//f39//39/f/5+fn/9PT0//Dw8P/s7Oz/6Ojo/+Tk5P/g4OD/3Nzc/9jY2P/U1NT/0dHR/83Nzf/Kysr/xsbG/8PDw//AwMD/vb29/7q6uv+3t7f/tbW1/7Ozs/+wsLD/rq6u/62trf+rq6v/qamp/6ioqP+np6f/pqam/6Wlpf+kpKT/pKSk/6SkpP+lpaX/pqam/6ioqP+qqqr/q6ur/62trf+vr6//sbGx/7Ozs/+1tbX/t7e3/7m5uf+7u7v/vr6+/8DAwP+txbz/HNiR/xzYkf8c2JH/HNiR/xzYkf8c2JH/HNiR/xzYkf8c2JH/HNiR/xzYkf8c2JH/HNiR/xzYkf8c2JH/HNiR/1+mi/+Dg4P/fHx8/3V1db8AAAAAAAAAAAAAAAAAAAAAAAAAAAAAAAAAAAAAAAAAAAAAAAAAAAAAAAAAAAAAAAAAAAAAAAAAAAAAAAAAAAAAAAAAAAAAAAAAAAAAAAAAAAAAAAAAAAAAAAAAAAAAAAAAAAAAAAAAAAAAAAAAAAAAAAAAAAAAAAAAAAAAAAAAAAAAAAAAAAAAAAAAAAAAAAAAAAAAAAAAAAAAAADNzc0fzs7O/9DQ0P/U1NT/19fX/9vb2//e3t7/4eHh/+Tk5P/n5+f/6urq/+3t7f/w8PD/8vLy//X19f/39/f/+vr6//z8/P/9/f3//f39//n5+f/09PT/8PDw/+zs7P/o6Oj/5OTk/+Dg4P/c3Nz/2NjY/9TU1P/R0dH/zc3N/8rKyv/Gxsb/w8PD/8DAwP+9vb3/ubm5/7W1tf+0s7P/sbCw/6+urf+traz/raur/6uqqv+qqaj/qain/6inp/+np6b/pqWl/6WlpP+kpKT/pKSk/6Wlpf+mpqb/qKio/6qqqv+rq6v/ra2t/6+vr/+xsbH/s7Oz/7W1tf+3t7f/ubm5/7u7u/++vr7/wMDA/63FvP8b2ZH/G9mR/xvZkf8b2ZH/G9mR/xvZkf8b2ZH/G9mR/xvZkf8b2ZH/G9mR/xvZkf8b2ZH/G9mR/xvZkf8b2ZH/X6aL/4ODg/98fHz/dXV1vwAAAAAAAAAAAAAAAAAAAAAAAAAAAAAAAAAAAAAAAAAAAAAAAAAAAAAAAAAAAAAAAAAAAAAAAAAAAAAAAAAAAAAAAAAAAAAAAAAAAAAAAAAAAAAAAAAAAAAAAAAAAAAAAAAAAAAAAAAAAAAAAAAAAAAAAAAAAAAAAAAAAAAAAAAAAAAAAAAAAAAAAAAAAAAAAAAAAAAAAAAAAAAAAM3NzR/Ozs7/0NDQ/9TU1P/X19f/29vb/97e3v/h4eH/5OTk/+fn5//q6ur/7e3t//Dw8P/y8vL/9fX1//f39//6+vr//Pz8//39/f/9/f3/+fn5//T09P/w8PD/7Ozs/+jo6P/k5OT/4ODg/9zc3P/R0dH/yMfH/8LBwP+9u7n/t7a0/7Oxr/+xrqz/r6yq/62qp/+tqqf/raqn/62qp/+tqqf/raqn/62qp/+tqqf/raqn/62qp/+tqqf/raqn/62qp/+tqqf/raqn/62qp/+tqqf/raqn/6yqp/+sqqj/rKqo/62rqf+trKr/rq2s/7Cvr/+zsrL/tbW1/7e3t/+5ubn/u7u7/76+vv/AwMD/rcW8/xvZkv8b2ZL/G9mS/xvZkv8b2ZL/G9mS/xvZkv8b2ZL/G9mS/xvZkv8b2ZL/G9mS/xvZkv8b2ZL/G9mS/xvZkv9fpoz/g4OD/3x8fP91dXW/AAAAAAAAAAAAAAAAAAAAAAAAAAAAAAAAAAAAAAAAAAAAAAAAAAAAAAAAAAAAAAAAAAAAAAAAAAAAAAAAAAAAAAAAAAAAAAAAAAAAAAAAAAAAAAAAAAAAAAAAAAAAAAAAAAAAAAAAAAAAAAAAAAAAAAAAAAAAAAAAAAAAAAAAAAAAAAAAAAAAAAAAAAAAAAAAAAAAAAAAAAAAAAAAzc3NH87Ozv/Q0ND/1NTU/9fX1//b29v/3t7e/+Hh4f/k5OT/5+fn/+rq6v/t7e3/8PDw//Ly8v/19fX/9/f3//r6+v/8/Pz//f39//39/f/5+fn/9PT0/+vr6//b2tn/zczL/8C/vf+3tbL/r6yq/66rqP+uq6j/rquo/66rqP+uq6j/rquo/66rqP+uq6j/rquo/66rqP+uq6j/rquo/66rqP+uq6j/rquo/66rqP+uq6j/rquo/66rqP+uq6j/rquo/66rqP+uq6j/rquo/66rqP+uq6j/rquo/66rqP+uq6j/rquo/66rqP+uq6j/rquo/66rqP+vrKn/sK6s/7Oxr/+2tbP/u7q6/8DAv/+txbz/G9mS/xvZkv8b2ZL/G9mS/xvZkv8b2ZL/G9mS/xvZkv8b2ZL/G9mS/xvZkv8b2ZL/G9mS/xvZkv8b2ZL/G9mS/1+mjP+Dg4P/fHx8/3V1db8AAAAAAAAAAAAAAAAAAAAAAAAAAAAAAAAAAAAAAAAAAAAAAAAAAAAAAAAAAAAAAAAAAAAAAAAAAAAAAAAAAAAAAAAAAAAAAAAAAAAAAAAAAAAAAAAAAAAAAAAAAAAAAAAAAAAAAAAAAAAAAAAAAAAAAAAAAAAAAAAAAAAAAAAAAAAAAAAAAAAAAAAAAAAAAAAAAAAAAAAAAAAAAADNzc0fzs7O/9DQ0P/U1NT/19fX/9vb2//e3t7/4eHh/+Tk5P/n5+f/6urq/+3t7f/w8PD/8vLy//X19f/39/f/+vr6//z8/P/29fX/4N/d/8zKyP+6uLX/sK2q/7Ctqv+wrar/sK2q/7Ctqv+wrar/sK2q/7Ctqv+wrar/sK2q/7Ctqv+wrar/sK2q/7Ctqv+wrar/sK2q/7Ctqv+wrar/sK2q/7Ctqv+wrar/sK2q/7Ctqv+wrar/sK2q/7Ctqv+wrar/sK2q/7Ctqv+wrar/sK2q/7Ctqv+wrar/sK2q/7Ctqv+wrar/sK2q/7Ctqv+wrar/sK2q/7Ctqv+wrar/sK2q/7Ctqv+wrar/sK2q/6G2q/8b2pL/G9qS/xvakv8b2pL/G9qS/xvakv8b2pL/G9qS/xvakv8b2pL/G9qS/xvakv8b2pL/G9qS/xvakv8b2pL/X6aM/4ODg/98fHz/dXV1vwAAAAAAAAAAAAAAAAAAAAAAAAAAAAAAAAAAAAAAAAAAAAAAAAAAAAAAAAAAAAAAAAAAAAAAAAAAAAAAAAAAAAAAAAAAAAAAAAAAAAAAAAAAAAAAAAAAAAAAAAAAAAAAAAAAAAAAAAAAAAAAAAAAAAAAAAAAAAAAAAAAAAAAAAAAAAAAAAAAAAAAAAAAAAAAAAAAAAAAAAAAAAAAAM3NzR/Ozs7/0NDQ/9TU1P/X19f/29vb/97e3v/h4eH/5OTk/+fn5//q6ur/7e3t//Dw8P/y8vL/9fX1/+no6P/U0tH/vbu4/7Guq/+xrqv/sa6r/7Guq/+xrqv/sa6r/7Guq/+xrqv/sa6r/7Guq/+xrqv/sa6r/7Guq/+xrqv/sa6r/7Guq/+xrqv/sa6r/7Guq/+xrqv/sa6r/7Guq/+xrqv/sa6r/7Guq/+xrqv/sa6r/7Guq/+xrqv/sa6r/7Guq/+xrqv/sa6r/7Guq/+xrqv/sa6r/7Guq/+xrqv/sa6r/7Guq/+xrqv/sa6r/7Guq/+xrqv/sa6r/7Guq/+xrqv/sa6r/7Guq/+xrqv/nrOo/x/alP8b2pP/G9qT/xvak/8b2pP/G9qT/xvak/8b2pP/G9qT/xvak/8b2pP/G9qT/xvak/8b2pP/G9qT/x/alP9fpoz/g4OD/3x8fP91dXW/AAAAAAAAAAAAAAAAAAAAAAAAAAAAAAAAAAAAAAAAAAAAAAAAAAAAAAAAAAAAAAAAAAAAAAAAAAAAAAAAAAAAAAAAAAAAAAAAAAAAAAAAAAAAAAAAAAAAAAAAAAAAAAAAAAAAAAAAAAAAAAAAAAAAAAAAAAAAAAAAAAAAAAAAAAAAAAAAAAAAAAAAAAAAAAAAAAAAAAAAAAAAAAAAzc3NH87Ozv/Q0ND/1NTU/9fX1//b29v/3t7e/+Hh4f/k5OT/5+fn/+rq6v/t7e3/6Ojn/9HQzv+7ubb/sq+s/7KvrP+yr6z/sq+s/7KvrP+yr6z/sq+s/7KvrP+yr6z/sq+s/7KvrP+yr6z/sq+s/7KvrP+yr6z/sq+s/7KvrP+yr6z/sq+s/7KvrP+yr6z/sq+s/7KvrP+yr6z/sq+s/7KvrP+yr6z/sq+s/7KvrP+yr6z/sq+s/7KvrP+yr6z/sq+s/7KvrP+yr6z/sq+s/7KvrP+yr6z/sq+s/7KvrP+yr6z/sq+s/7KvrP+yr6z/sq+s/7KvrP+yr6z/sq+s/7KvrP+yr6z/sq+s/7KvrP+ftKn/OOCe/xrak/8a2pP/GtqT/xrak/8a2pP/GtqT/xrak/8a2pP/GtqT/xrak/8a2pP/GtqT/xrak/8a2pP/M96c/16mjP+Dg4P/fHx8/3V1db8AAAAAAAAAAAAAAAAAAAAAAAAAAAAAAAAAAAAAAAAAAAAAAAAAAAAAAAAAAAAAAAAAAAAAAAAAAAAAAAAAAAAAAAAAAAAAAAAAAAAAAAAAAAAAAAAAAAAAAAAAAAAAAAAAAAAAAAAAAAAAAAAAAAAAAAAAAAAAAAAAAAAAAAAAAAAAAAAAAAAAAAAAAAAAAAAAAAAAAAAAAAAAAADNzc0fzs7O/9DQ0P/U1NT/19fX/9vb2//e3t7/4eHh/+Tk5P/n5+f/2tnY/8TBv/+zsK3/s7Ct/7Owrf+zsK3/s7Ct/7Owrf+zsK3/s7Ct/7Owrf+zsK3/s7Ct/7Owrf+zsK3/s7Ct/7Owrf+zsK3/s7Ct/7Owrf+zsK3/s7Ct/7Owrf+zsK3/s7Ct/7Owrf+zsK3/s7Ct/7Owrf+zsK3/s7Ct/7Owrf+zsK3/s7Ct/7Owrf+zsK3/s7Ct/7Owrf+zsK3/s7Ct/7Owrf+zsK3/s7Ct/7Owrf+zsK3/s7Ct/7Owrf+zsK3/s7Ct/7Owrf+zsK3/s7Ct/7Owrf+zsK3/s7Ct/7Owrf+zsK3/s7Ct/6S0qv9T5an/GtqT/xrak/8a2pP/GtqT/xrak/8a2pP/GtqT/xrak/8a2pP/GtqT/xrak/8a2pP/GtqT/xrak/9T5an/XqeM/4ODg/98fHz/dXV1vwAAAAAAAAAAAAAAAAAAAAAAAAAAAAAAAAAAAAAAAAAAAAAAAAAAAAAAAAAAAAAAAAAAAAAAAAAAAAAAAAAAAAAAAAAAAAAAAAAAAAAAAAAAAAAAAAAAAAAAAAAAAAAAAAAAAAAAAAAAAAAAAAAAAAAAAAAAAAAAAAAAAAAAAAAAAAAAAAAAAAAAAAAAAAAAAAAAAAAAAAAAAAAAAM3NzR/Ozs7/0NDQ/9TU1P/X19f/29vb/97e3v/h4eH/1dTT/727uf+0sa7/tLGu/7Sxrv+0sa7/tLGu/7Sxrv+0sa7/tLGu/7Sxrv+0sa7/tLGu/7Sxrv+0sa7/tLGu/7Sxrv+0sa7/tLGu/7Sxrv+0sa7/tLGu/7Sxrv+0sa7/tLGu/7Sxrv+0sa7/tLGu/7Sxrv+0sa7/tLGu/7Sxrv+0sa7/tLGu/7Sxrv+0sa7/tLGu/7Sxrv+0sa7/tLGu/7Sxrv+0sa7/tLGu/7Sxrv+0sa7/tLGu/7Sxrv+0sa7/tLGu/7Sxrv+0sa7/tLGu/7Sxrv+0sa7/tLGu/7Sxrv+0sa7/tLGu/7Sxrv+0sa7/tLGu/1zjrP864aD/GtuU/xrblP8a25T/GtuU/xrblP8a25T/GtuU/xrblP8a25T/GtuU/xrblP8a25T/INyW/2rqs/9unIv/g4OD/3x8fP91dXW/AAAAAAAAAAAAAAAAAAAAAAAAAAAAAAAAAAAAAAAAAAAAAAAAAAAAAAAAAAAAAAAAAAAAAAAAAAAAAAAAAAAAAAAAAAAAAAAAAAAAAAAAAAAAAAAAAAAAAAAAAAAAAAAAAAAAAAAAAAAAAAAAAAAAAAAAAAAAAAAAAAAAAAAAAAAAAAAAAAAAAAAAAAAAAAAAAAAAAAAAAAAAAAAAzc3NH87Ozv/Q0ND/1NTU/9fX1//b29v/19fW/8C+vP+1s7D/tbOw/7WzsP+1s7D/tbOw/7WzsP+1s7D/tbOw/7WzsP+1s7D/tbOw/7WzsP+1s7D/tbOw/7WzsP+1s7D/tbOw/7WzsP+1s7D/tbOw/7WzsP+1s7D/tbOw/7WzsP+1s7D/tbOw/7WzsP+1s7D/tbOw/7WzsP+1s7D/tbOw/7WzsP+1s7D/tbOw/7WzsP+1s7D/tbOw/7WzsP+1s7D/tbOw/7WzsP+1s7D/tbOw/7WzsP+1s7D/tbOw/7WzsP+1s7D/tbOw/7WzsP+1s7D/tbOw/7WzsP+1s7D/tbOw/7WzsP+1s7D/tbOw/7WzsP+1s7D/Xcqg/4bwvv814J7/GtuU/xrblP8a25T/GtuU/xrblP8a25T/GtuU/xrblP8a25T/GtuU/yPcl/+I8b//Q9Sc/4iLiv+Dg4P/fHx8/3V1db8AAAAAAAAAAAAAAAAAAAAAAAAAAAAAAAAAAAAAAAAAAAAAAAAAAAAAAAAAAAAAAAAAAAAAAAAAAAAAAAAAAAAAAAAAAAAAAAAAAAAAAAAAAAAAAAAAAAAAAAAAAAAAAAAAAAAAAAAAAAAAAAAAAAAAAAAAAAAAAAAAAAAAAAAAAAAAAAAAAAAAAAAAAAAAAAAAAAAAAAAAAAAAAADNzc0fzs7O/9DQ0P/U1NT/19fX/8rJx/+3tbL/t7Sx/7e0sf+3tLH/t7Sx/7e0sf+3tLH/t7Sx/7e0sf+3tLH/t7Sx/7e0sf+3tLH/t7Sx/7e0sf+3tLH/t7Sx/7e0sf+3tLH/t7Sx/7e0sf+3tLH/t7Sx/7e0sf+3tLH/t7Sx/7e0sf+3tLH/t7Sx/7e0sf+3tLH/t7Sx/7e0sf+3tLH/t7Sx/7e0sf+3tLH/t7Sx/7e0sf+3tLH/t7Sx/7e0sf+3tLH/t7Sx/7e0sf+3tLH/t7Sx/7e0sf+3tLH/t7Sx/7e0sf+3tLH/t7Sx/7e0sf+3tLH/t7Sx/7e0sf+3tLH/t7Sx/7e0sf+3tLH/t7Sx/7e0sf+qtq7/P9uf/4/ywv9v7LX/ReOl/z/iov8/4qL/P+Ki/z/iov8/4qL/P+Ki/z/iov9h6bD/mPTG/0zjpv91q5b/ioqK/4ODg/98fHz/dXV1vwAAAAAAAAAAAAAAAAAAAAAAAAAAAAAAAAAAAAAAAAAAAAAAAAAAAAAAAAAAAAAAAAAAAAAAAAAAAAAAAAAAAAAAAAAAAAAAAAAAAAAAAAAAAAAAAAAAAAAAAAAAAAAAAAAAAAAAAAAAAAAAAAAAAAAAAAAAAAAAAAAAAAAAAAAAAAAAAAAAAAAAAAAAAAAAAAAAAAAAAAAAAAAAAM3NzR/Ozs7/0NDQ/9PT0//CwL7/uLWy/7i1sv+4tbL/uLWy/7i1sv+4tbL/uLWy/7i1sv+4tbL/uLWy/7i1sv+4tbL/uLWy/7i1sv+4tbL/uLWy/7i1sv+4tbL/uLWy/7i1sv+4tbL/uLWy/7i1sv+4tbL/uLWy/7i1sv+4tbL/uLWy/7i1sv+4tbL/uLWy/7i1sv+4tbL/uLWy/7i1sv+4tbL/uLWy/7i1sv+4tbL/uLWy/7i1sv+4tbL/uLWy/7i1sv+4tbL/uLWy/7i1sv+4tbL/uLWy/7i1sv+4tbL/uLWy/7i1sv+4tbL/uLWy/7i1sv+4tbL/uLWy/7i1sv+4tbL/uLWy/7i1sv+4tbL/uLWy/7i1sv+fuq3/O9Sb/1jnrP9/77z/iPG//4jxv/+I8b//iPG//4jxv/+I8b//hvC+/2Xqsf8x25r/hsCo/7e0sf+amZj/g4OD/3x8fP91dXW/AAAAAAAAAAAAAAAAAAAAAAAAAAAAAAAAAAAAAAAAAAAAAAAAAAAAAAAAAAAAAAAAAAAAAAAAAAAAAAAAAAAAAAAAAAAAAAAAAAAAAAAAAAAAAAAAAAAAAAAAAAAAAAAAAAAAAAAAAAAAAAAAAAAAAAAAAAAAAAAAAAAAAAAAAAAAAAAAAAAAAAAAAAAAAAAAAAAAAAAAAAAAAAAAzc3NH87Ozv/Q0ND/wb+9/7m2s/+5trP/ubaz/7m2s/+5trP/ubaz/7m2s/+5trP/ubaz/7m2s/+5trP/ubaz/7m2s/+5trP/ubaz/7m2s/+5trP/ubaz/7m2s/+5trP/ubaz/7m2s/+5trP/ubaz/7m2s/+5trP/ubaz/7m2s/+5trP/ubaz/7m2s/+5trP/ubaz/7m2s/+5trP/ubaz/7m2s/+5trP/ubaz/7m2s/+5trP/ubaz/7m2s/+5trP/ubaz/7m2s/+5trP/ubaz/7m2s/+5trP/ubaz/7m2s/+5trP/ubaz/7m2s/+5trP/ubaz/7m2s/+5trP/ubaz/7m2s/+5trP/ubaz/7m2s/+5trP/ubaz/7m2s/+2trP/icCq/2TJo/9VzKD/Vcyg/1XMoP9VzKD/Vcyg/1XMoP9dy6H/esSn/664sf+5trP/ubaz/7m2s/+Yl5b/fHx8/3V1db8AAAAAAAAAAAAAAAAAAAAAAAAAAAAAAAAAAAAAAAAAAAAAAAAAAAAAAAAAAAAAAAAAAAAAAAAAAAAAAAAAAAAAAAAAAAAAAAAAAAAAAAAAAAAAAAAAAAAAAAAAAAAAAAAAAAAAAAAAAAAAAAAAAAAAAAAAAAAAAAAAAAAAAAAAAAAAAAAAAAAAAAAAAAAAAAAAAAAAAAAAAAAAAADNzc0fzs7O/8PBwP+6t7T/ure0/7q3tP+6t7T/ure0/7q3tP+6t7T/ure0/7q3tP+6t7T/ure0/7q3tP+6t7T/ure0/7q3tP+6t7T/ure0/7q3tP+6t7T/ure0/7q3tP+6t7T/ure0/7q3tP+6t7T/ure0/7q3tP+6t7T/ure0/7q3tP+6t7T/ure0/7q3tP+6t7T/ure0/7q3tP+6t7T/ure0/7q3tP+6t7T/ure0/7q3tP+6t7T/ure0/7q3tP+6t7T/ure0/7q3tP+6t7T/ure0/7q3tP+6t7T/ure0/7q3tP+6t7T/ure0/7q3tP+6t7T/ure0/7q3tP+6t7T/ure0/7q3tP+6t7T/ure0/7q3tP+6t7T/ure0/7q3tP+6t7T/ure0/7q3tP+6t7T/ure0/7q3tP+6t7T/ure0/7q3tP+6t7T/ure0/7q3tP+6t7T/ure0/7m2s/+Kion/dXV1vwAAAAAAAAAAAAAAAAAAAAAAAAAAAAAAAAAAAAAAAAAAAAAAAAAAAAAAAAAAAAAAAAAAAAAAAAAAAAAAAAAAAAAAAAAAAAAAAAAAAAAAAAAAAAAAAAAAAAAAAAAAAAAAAAAAAAAAAAAAAAAAAAAAAAAAAAAAAAAAAAAAAAAAAAAAAAAAAAAAAAAAAAAAAAAAAAAAAAAAAAAAAAAAAM3NzR/Kycn/u7i2/7u4tv+7uLb/u7i2/7u4tv+7uLb/u7i2/7u4tv+7uLb/u7i2/7u4tv+7uLb/u7i2/7u4tv+7uLb/u7i2/7u4tv+7uLb/u7i2/7u4tv+7uLb/u7i2/7u4tv+7uLb/u7i2/7u4tv+7uLb/u7i2/7y5tv+9u7n/v7y7/7+9u/++vbz/vby7/7y7uv+6ubj/uLe3/7a1tf+zs7P/sbGx/6+vr/+urq3/rays/6urqv+qqqn/qaio/6inp/+pqKj/qamo/6moqP+sq6r/rayr/7Cvrv+ysbD/tbOx/7e1s/+5trT/u7i2/7u4tv+7uLb/u7i2/7u4tv+7uLb/u7i2/7u4tv+7uLb/u7i2/7u4tv+7uLb/u7i2/7u4tv+7uLb/u7i2/7u4tv+7uLb/u7i2/7u4tv+7uLb/u7i2/7u4tv+7uLb/u7i2/7u4tv+7uLb/u7i2/7GurP92dna/AAAAAAAAAAAAAAAAAAAAAAAAAAAAAAAAAAAAAAAAAAAAAAAAAAAAAAAAAAAAAAAAAAAAAAAAAAAAAAAAAAAAAAAAAAAAAAAAAAAAAAAAAAAAAAAAAAAAAAAAAAAAAAAAAAAAAAAAAAAAAAAAAAAAAAAAAAAAAAAAAAAAAAAAAAAAAAAAAAAAAAAAAAAAAAAAAAAAAAAAAAAAAAAAzc3NH8LAvv+8ubf/vLm3/7y5t/+8ubf/vLm3/7y5t/+8ubf/vLm3/7y5t/+8ubf/vLm3/7y5t/+8ubf/vLm3/7y5t/+8ubf/vLm3/7y5t/+8ubf/vLm3/7y5t/+8ubf/wL67/8jGxP/Mysn/z87N/9HR0P/S0dH/0dHR/83Nzf/Kysr/xsbG/8PDw//AwMD/vb29/7q6uv+3t7f/tbW1/7Ozs/+wsLD/rq6u/62trf+rq6v/qamp/6ioqP+np6f/pqam/6Wlpf+kpKT/pKSk/6SkpP+lpaX/pqam/6ioqP+qqqr/q6ur/62trf+vr6//srKx/7W0tP+4trX/ubi3/7u5t/+8ubf/vLm3/7y5t/+8ubf/vLm3/7y5t/+8ubf/vLm3/7y5t/+8ubf/vLm3/7y5t/+8ubf/vLm3/7y5t/+8ubf/vLm3/7y5t/+8ubf/vLm3/7y5t/+8ubf/vLm3/5GQjr8AAAAAAAAAAAAAAAAAAAAAAAAAAAAAAAAAAAAAAAAAAAAAAAAAAAAAAAAAAAAAAAAAAAAAAAAAAAAAAAAAAAAAAAAAAAAAAAAAAAAAAAAAAAAAAAAAAAAAAAAAAAAAAAAAAAAAAAAAAAAAAAAAAAAAAAAAAAAAAAAAAAAAAAAAAAAAAAAAAAAAAAAAAAAAAAAAAAAAAAAAAAAAAADNzc0fvry5/7+9uv/Bvrv/vbu4/727uP+9u7j/vbu4/727uP+9u7j/vbu4/727uP+9u7j/vbu4/727uP+9u7j/vbu4/727uP+9u7j/wL67/83Lyf/Y19b/4eDf/+jn5//o6Oj/5OTk/+Dg4P/c3Nz/2NjY/9TU1P/R0dH/zc3N/8rKyv/Gxsb/w8PD/8DAwP+9vb3/urq6/7e3t/+1tbX/s7Oz/7CwsP+urq7/ra2t/6urq/+pqan/qKio/6enp/+mpqb/paWl/6SkpP+kpKT/pKSk/6Wlpf+mpqb/qKio/6qqqv+rq6v/ra2t/6+vr/+xsbH/s7Oz/7W1tf+3t7f/ubm5/7u7u/+9vb3/v769/7++vP++vLr/vbu4/727uP+9u7j/vbu4/727uP+9u7j/vbu4/727uP+9u7j/vbu4/727uP+9u7j/vbu4/727uP+9u7j/vbu4/8LAvf+9u7j/qqmmvwAAAAAAAAAAAAAAAAAAAAAAAAAAAAAAAAAAAAAAAAAAAAAAAAAAAAAAAAAAAAAAAAAAAAAAAAAAAAAAAAAAAAAAAAAAAAAAAAAAAAAAAAAAAAAAAAAAAAAAAAAAAAAAAAAAAAAAAAAAAAAAAAAAAAAAAAAAAAAAAAAAAAAAAAAAAAAAAAAAAAAAAAAAAAAAAAAAAAAAAAAAAAAAAMXFxR++vLn/wb+8/8rIxv++vLn/vry5/768uf++vLn/vry5/768uf++vLn/vry5/768uf++vLn/vry5/768uf/Jx8X/3NvZ/+3t7P/7+/v/+fn5//T09P/w8PD/7Ozs/+jo6P/k5OT/4ODg/9zc3P/Y2Nj/1NTU/9HR0f/Nzc3/ysrK/8bGxv/Dw8P/wMDA/729vf+6urr/t7e3/7W1tf+zs7P/sLCw/66urv+tra3/q6ur/6mpqf+oqKj/p6en/6ampv+lpaX/pKSk/6SkpP+kpKT/paWl/6ampv+oqKj/qqqq/6urq/+tra3/r6+v/7Gxsf+zs7P/tbW1/7e3t/+5ubn/u7u7/76+vv/AwMD/wsLC/8TExP/Hx8f/xcTE/8PCwP+/vbv/vry5/768uf++vLn/vry5/768uf++vLn/vry5/768uf++vLn/vry5/768uf++vLn/0M7M/768uf+4tbK/AAAAAAAAAAAAAAAAAAAAAAAAAAAAAAAAAAAAAAAAAAAAAAAAAAAAAAAAAAAAAAAAAAAAAAAAAAAAAAAAAAAAAAAAAAAAAAAAAAAAAAAAAAAAAAAAAAAAAAAAAAAAAAAAAAAAAAAAAAAAAAAAAAAAAAAAAAAAAAAAAAAAAAAAAAAAAAAAAAAAAAAAAAAAAAAAAAAAAAAAAAAAAAAAqqqqA7+8uvbBvrz/19bV/8G+vP/Avbr/wL26/8C9uv/Avbr/wL26/8C9uv/Avbr/wL26/8nHxf/d3Nr/8PDw//r6+v/8/Pz//f39//39/f/5+fn/9PT0//Dw8P/s7Oz/6Ojo/+Tk5P/g4OD/3Nzc/9jY2P/U1NT/0dHR/83Nzf/Kysr/xsbG/8PDw//AwMD/vb29/7q6uv+3t7f/tbW1/7Ozs/+wsLD/rq6u/62trf+rq6v/qamp/6ioqP+np6f/pqam/6Wlpf+kpKT/pKSk/6SkpP+lpaX/pqam/6ioqP+qqqr/q6ur/62trf+vr6//sbGx/7Ozs/+1tbX/t7e3/7m5uf+7u7v/vr6+/8DAwP/CwsL/xMTE/8jIyP/Kysr/zMzM/87Ozv/NzMv/xsTD/8C+u//Avbr/wL26/8C9uv/Avbr/wL26/8C9uv/Avbr/wL26/8fFw//S0c//wL26/767up8AAAAAAAAAAAAAAAAAAAAAAAAAAAAAAAAAAAAAAAAAAAAAAAAAAAAAAAAAAAAAAAAAAAAAAAAAAAAAAAAAAAAAAAAAAAAAAAAAAAAAAAAAAAAAAAAAAAAAAAAAAAAAAAAAAAAAAAAAAAAAAAAAAAAAAAAAAAAAAAAAAAAAAAAAAAAAAAAAAAAAAAAAAAAAAAAAAAAAAAAAAAAAAAAAAAAAwb67qsG+u//U09L/0tDP/8G+u//Bvrv/wb67/8G+u//Bvrv/wr+8/9PRz//n5+b/8vLy//X19f/39/f/+vr6//z8/P/9/f3//f39//n5+f/09PT/8PDw/+zs7P/o6Oj/5OTk/+Dg4P/c3Nz/2NjY/9TU1P/R0dH/zc3N/8rKyv/Gxsb/w8PD/8DAwP+9vb3/urq6/7e3t/+1tbX/s7Oz/7CwsP+urq7/ra2t/6urq/+pqan/qKio/6enp/+mpqb/paWl/6SkpP+kpKT/pKSk/6Wlpf+mpqb/qKio/6qqqv+rq6v/ra2t/6+vr/+xsbH/s7Oz/7W1tf+3t7f/ubm5/7u7u/++vr7/wMDA/8LCwv/ExMT/yMjI/8rKyv/MzMz/zs7O/9HR0f/Pz8//x8fH/8C/v/+/vbv/wb67/8G+u//Bvrv/wb67/8G+u//Ewb7/19bV/8zKyP/Bvrv/wb67UwAAAAAAAAAAAAAAAAAAAAAAAAAAAAAAAAAAAAAAAAAAAAAAAAAAAAAAAAAAAAAAAAAAAAAAAAAAAAAAAAAAAAAAAAAAAAAAAAAAAAAAAAAAAAAAAAAAAAAAAAAAAAAAAAAAAAAAAAAAAAAAAAAAAAAAAAAAAAAAAAAAAAAAAAAAAAAAAAAAAAAAAAAAAAAAAAAAAAAAAAAAAAAAAAAAAADDvbgvwr+8+srHxf/b2dj/0c/N/8K/vP/Cv7z/xMG//9XT0v/o6Oj/7e3t//Dw8P/y8vL/9fX1//f39//6+vr//Pz8//39/f/9/f3/+fn5//T09P/w8PD/7Ozs/+jo6P/k5OT/4ODg/9zc3P/Y2Nj/1NTU/9HR0f/Nzc3/ysrK/8bGxv/Dw8P/wMDA/729vf+6urr/t7e3/7W1tf+zs7P/sLCw/66urv+tra3/q6ur/6mpqf+oqKj/p6en/6ampv+lpaX/pKSk/6SkpP+kpKT/paWl/6ampv+oqKj/qqqq/6urq/+tra3/r6+v/7Gxsf+zs7P/tbW1/7e3t/+5ubn/u7u7/76+vv/AwMD/wsLC/8TExP/IyMj/ysrK/8zMzP/Ozs7/0dHR/8/Pz//Hx8f/wMDA/7m5uf+2tbX/vLq4/8K/vP/Cv7z/xcK//9fV1P/Y19b/xMC+/8G+vM+qqqoDAAAAAAAAAAAAAAAAAAAAAAAAAAAAAAAAAAAAAAAAAAAAAAAAAAAAAAAAAAAAAAAAAAAAAAAAAAAAAAAAAAAAAAAAAAAAAAAAAAAAAAAAAAAAAAAAAAAAAAAAAAAAAAAAAAAAAAAAAAAAAAAAAAAAAAAAAAAAAAAAAAAAAAAAAAAAAAAAAAAAAAAAAAAAAAAAAAAAAAAAAAAAAAAAAAAAAAAAAADCvrx/w8C+/9LQzv/b2tn/1NLR/9HPzv/i4uL/5+fn/+rq6v/t7e3/8PDw//Ly8v/19fX/9/f3//r6+v/8/Pz//f39//39/f/5+fn/9PT0//Dw8P/s7Oz/6Ojo/+Tk5P/g4OD/3Nzc/9jY2P/U1NT/0dHR/83Nzf/Kysr/xsbG/8PDw//AwMD/vb29/7q6uv+3t7f/tbW1/7Ozs/+wsLD/rq6u/62trf+rq6v/qamp/6ioqP+np6f/pqam/6Wlpf+kpKT/pKSk/6SkpP+lpaX/pqam/6ioqP+qqqr/q6ur/62trf+vr6//sbGx/7Ozs/+1tbX/t7e3/7m5uf+7u7v/vr6+/8DAwP/CwsL/xMTE/8jIyP/Kysr/zMzM/87Ozv/R0dH/z8/P/8fHx//AwMD/ubm5/7Ozs/+srKz/rKur/7+9u//Y19b/29rZ/8rIxf/CwL3yw729LwAAAAAAAAAAAAAAAAAAAAAAAAAAAAAAAAAAAAAAAAAAAAAAAAAAAAAAAAAAAAAAAAAAAAAAAAAAAAAAAAAAAAAAAAAAAAAAAAAAAAAAAAAAAAAAAAAAAAAAAAAAAAAAAAAAAAAAAAAAAAAAAAAAAAAAAAAAAAAAAAAAAAAAAAAAAAAAAAAAAAAAAAAAAAAAAAAAAAAAAAAAAAAAAAAAAAAAAAAAAAAAAAAAAADEwL6PxcO//9fW1P/d3d3/4eHh/+Tk5P/n5+f/6urq/+3t7f/w8PD/8vLy//X19f/39/f/+vr6//z8/P/9/f3//f39//n5+f/09PT/8PDw/+zs7P/o6Oj/5OTk/+Dg4P/c3Nz/2NjY/9TU1P/R0dH/zc3N/8rKyv/Gxsb/w8PD/8DAwP+9vb3/urq6/7e3t/+1tbX/s7Oz/7CwsP+urq7/ra2t/6urq/+pqan/qKio/6enp/+mpqb/paWl/6SkpP+kpKT/pKSk/6Wlpf+mpqb/qKio/6qqqv+rq6v/ra2t/6+vr/+xsbH/s7Oz/7W1tf+3t7f/ubm5/7u7u/++vr7/wMDA/8LCwv/ExMT/yMjI/8rKyv/MzMz/zs7O/9HR0f/Pz8//x8fH/8DAwP+5ubn/s7Oz/6ysrP+lpaX/np6e/7Cwr//Lysf/xMG998XBvksAAAAAAAAAAAAAAAAAAAAAAAAAAAAAAAAAAAAAAAAAAAAAAAAAAAAAAAAAAAAAAAAAAAAAAAAAAAAAAAAAAAAAAAAAAAAAAAAAAAAAAAAAAAAAAAAAAAAAAAAAAAAAAAAAAAAAAAAAAAAAAAAAAAAAAAAAAAAAAAAAAAAAAAAAAAAAAAAAAAAAAAAAAAAAAAAAAAAAAAAAAAAAAAAAAAAAAAAAAAAAAAAAAAAAAAAAAAAAAADQzs2+2tra/97e3v/h4eH/5OTk/+fn5//q6ur/7e3t//Dw8P/y8vL/9fX1//f39//6+vr//Pz8//39/f/9/f3/+fn5//T09P/w8PD/7Ozs/+jo6P/k5OT/4ODg/9zc3P/Y2Nj/1NTU/9HR0f/Nzc3/ysrK/8bGxv/Dw8P/wMDA/729vf+6urr/t7e3/7W1tf+zs7P/sLCw/66urv+tra3/q6ur/6mpqf+oqKj/p6en/6ampv+lpaX/pKSk/6SkpP+kpKT/paWl/6ampv+oqKj/qqqq/6urq/+tra3/r6+v/7Gxsf+zs7P/tbW1/7e3t/+5ubn/u7u7/76+vv/AwMD/wsLC/8TExP/IyMj/ysrK/8zMzP/Ozs7/0dHR/8/Pz//Hx8f/wMDA/7m5uf+zs7P/rKys/6Wlpf+enp7/l5eX/5eXl/+rq6lfAAAAAAAAAAAAAAAAAAAAAAAAAAAAAAAAAAAAAAAAAAAAAAAAAAAAAAAAAAAAAAAAAAAAAAAAAAAAAAAAAAAAAAAAAAAAAAAAAAAAAAAAAAAAAAAAAAAAAAAAAAAAAAAAAAAAAAAAAAAAAAAAAAAAAAAAAAAAAAAAAAAAAAAAAAAAAAAAAAAAAAAAAAAAAAAAAAAAAAAAAAAAAAAAAAAAAAAAAAAAAAAAAAAAAAAAAAAAAAAA1dXVe9fX1//b29v/3t7e/+Hh4f/k5OT/5+fn/+rq6v/t7e3/8PDw//Ly8v/19fX/9/f3//r6+v/8/Pz//f39//39/f/5+fn/9PT0//Dw8P/s7Oz/6Ojo/+Tk5P/g4OD/3Nzc/9jY2P/U1NT/0dHR/83Nzf/Kysr/xsbG/8PDw//AwMD/vb29/7q6uv+3t7f/tbW1/7Ozs/+wsLD/rq6u/62trf+rq6v/qamp/6ioqP+np6f/pqam/6Wlpf+kpKT/pKSk/6SkpP+lpaX/pqam/6ioqP+qqqr/q6ur/62trf+vr6//sbGx/7Ozs/+1tbX/t7e3/7m5uf+7u7v/vr6+/8DAwP/CwsL/xMTE/8jIyP/Kysr/zMzM/87Ozv/R0dH/z8/P/8fHx//AwMD/ubm5/7Ozs/+srKz/paWl/56env+Xl5f/kJCQ/4mJifOFhYU7AAAAAAAAAAAAAAAAAAAAAAAAAAAAAAAAAAAAAAAAAAAAAAAAAAAAAAAAAAAAAAAAAAAAAAAAAAAAAAAAAAAAAAAAAAAAAAAAAAAAAAAAAAAAAAAAAAAAAAAAAAAAAAAAAAAAAAAAAAAAAAAAAAAAAAAAAAAAAAAAAAAAAAAAAAAAAAAAAAAAAAAAAAAAAAAAAAAAAAAAAAAAAAAAAAAAAAAAAAAAAAAAAAAAANDQ0GPU1NT/19fX/9vb2//e3t7/4eHh/+Tk5P/n5+f/6urq/+3t7f/w8PD/8vLy//X19f/39/f/+vr6//z8/P/9/f3//f39//n5+f/09PT/8PDw/+zs7P/o6Oj/5OTk/+Dg4P/c3Nz/2NjY/9TU1P/R0dH/zc3N/8rKyv/Gxsb/w8PD/8DAwP+9vb3/urq6/7e3t/+1tbX/s7Oz/7CwsP+urq7/ra2t/6urq/+pqan/qKio/6enp/+mpqb/paWl/6SkpP+kpKT/pKSk/6Wlpf+mpqb/qKio/6qqqv+rq6v/ra2t/6+vr/+xsbH/s7Oz/7W1tf+3t7f/ubm5/7u7u/++vr7/wMDA/8LCwv/ExMT/yMjI/8rKyv/MzMz/zs7O/9HR0f/Pz8//x8fH/8DAwP+5ubn/s7Oz/6ysrP+lpaX/np6e/5eXl/+QkJD/ioqK/4ODg+t7e3sfAAAAAAAAAAAAAAAAAAAAAAAAAAAAAAAAAAAAAAAAAAAAAAAAAAAAAAAAAAAAAAAAAAAAAAAAAAAAAAAAAAAAAAAAAAAAAAAAAAAAAAAAAAAAAAAAAAAAAAAAAAAAAAAAAAAAAAAAAAAAAAAAAAAAAAAAAAAAAAAAAAAAAAAAAAAAAAAAAAAAAAAAAAAAAAAAAAAAAAAAAAAAAAAAAAAAAAAAAADMzMwj0NDQ99TU1P/X19f/29vb/97e3v/h4eH/5OTk/+fn5//q6ur/7e3t//Dw8P/y8vL/9fX1//f39//6+vr//Pz8//39/f/9/f3/+fn5//T09P/w8PD/7Ozs/+jo6P/k5OT/4ODg/9zc3P/Y2Nj/1NTU/9HR0f/Nzc3/ysrK/8bGxv/Dw8P/wMDA/729vf+6urr/t7e3/7W1tf+zs7P/sLCw/66urv+tra3/q6ur/6mpqf+oqKj/p6en/6ampv+lpaX/pKSk/6SkpP+kpKT/paWl/6ampv+oqKj/qqqq/6urq/+tra3/r6+v/7Gxsf+zs7P/tbW1/7e3t/+5ubn/u7u7/76+vv/AwMD/wsLC/8TExP/IyMj/ysrK/8zMzP/Ozs7/0dHR/8/Pz//Hx8f/wMDA/7m5uf+zs7P/rKys/6Wlpf+enp7/l5eX/5CQkP+Kior/g4OD/3x8fMMAAAAAAAAAAAAAAAAAAAAAAAAAAAAAAAAAAAAAAAAAAAAAAAAAAAAAAAAAAAAAAAAAAAAAAAAAAAAAAAAAAAAAAAAAAAAAAAAAAAAAAAAAAAAAAAAAAAAAAAAAAAAAAAAAAAAAAAAAAAAAAAAAAAAAAAAAAAAAAAAAAAAAAAAAAAAAAAAAAAAAAAAAAAAAAAAAAAAAAAAAAAAAAAAAAAAAAAAAAM7OzprQ0ND/1NTU/9fX1//b29v/3t7e/+Hh4f/k5OT/5+fn/+rq6v/t7e3/8PDw//Ly8v/19fX/9/f3//r6+v/8/Pz//f39//39/f/5+fn/9PT0//Dw8P/s7Oz/6Ojo/+Tk5P/g4OD/3Nzc/9jY2P/U1NT/0dHR/83Nzf/Kysr/xsbG/8PDw//AwMD/vb29/7q6uv+3t7f/tbW1/7Ozs/+wsLD/rq6u/62trf+rq6v/qamp/6ioqP+np6f/pqam/6Wlpf+kpKT/pKSk/6SkpP+lpaX/pqam/6ioqP+qqqr/q6ur/62trf+vr6//sbGx/7Ozs/+1tbX/t7e3/7m5uf+7u7v/vr6+/8DAwP/CwsL/xMTE/8jIyP/Kysr/zMzM/87Ozv/R0dH/z8/P/8fHx//AwMD/ubm5/7Ozs/+srKz/paWl/56env+Xl5f/kJCQ/4qKiv+Dg4P/fHx8/3Z2dkcAAAAAAAAAAAAAAAAAAAAAAAAAAAAAAAAAAAAAAAAAAAAAAAAAAAAAAAAAAAAAAAAAAAAAAAAAAAAAAAAAAAAAAAAAAAAAAAAAAAAAAAAAAAAAAAAAAAAAAAAAAAAAAAAAAAAAAAAAAAAAAAAAAAAAAAAAAAAAAAAAAAAAAAAAAAAAAAAAAAAAAAAAAAAAAAAAAAAAAAAAAAAAAAAAAAAAzs7O8tDQ0P/U1NT/19fX/9vb2//e3t7/4eHh/+Tk5P/n5+f/6urq/+3t7f/w8PD/8vLy//X19f/39/f/+vr6//z8/P/9/f3//f39//n5+f/09PT/8PDw/+zs7P/o6Oj/5OTk/+Dg4P/c3Nz/2NjY/9TU1P/R0dH/zc3N/8rKyv/Gxsb/w8PD/8DAwP+9vb3/urq6/7e3t/+1tbX/s7Oz/7CwsP+urq7/ra2t/6urq/+pqan/qKio/6enp/+mpqb/paWl/6SkpP+kpKT/pKSk/6Wlpf+mpqb/qKio/6qqqv+rq6v/ra2t/6+vr/+xsbH/s7Oz/7W1tf+3t7f/ubm5/7u7u/++vr7/wMDA/8LCwv/ExMT/yMjI/8rKyv/MzMz/zs7O/9HR0f/Pz8//x8fH/8DAwP+5ubn/s7Oz/6ysrP+lpaX/np6e/5eXl/+QkJD/ioqK/4ODg/98fHz/dnZ2mwAAAAAAAAAAAAAAAAAAAAAAAAAAAAAAAAAAAAAAAAAAAAAAAAAAAAAAAAAAAAAAAAAAAAAAAAAAAAAAAAAAAAAAAAAAAAAAAAAAAAAAAAAAAAAAAAAAAAAAAAAAAAAAAAAAAAAAAAAAAAAAAAAAAAAAAAAAAAAAAAAAAAAAAAAAAAAAAAAAAAAAAAAAAAAAAAAAAAAAAAAAAAAAAM3NzR/Ozs7/0NDQ/9TU1P/X19f/29vb/97e3v/h4eH/5OTk/+fn5//q6ur/7e3t//Dw8P/y8vL/9fX1//f39//6+vr//Pz8//39/f/9/f3/+fn5//T09P/w8PD/7Ozs/+jo6P/k5OT/4ODg/9zc3P/Y2Nj/1NTU/9HR0f/Nzc3/ysrK/8bGxv/Dw8P/wMDA/729vf+6urr/t7e3/7W1tf+zs7P/sLCw/66urv+tra3/q6ur/6mpqf+oqKj/p6en/6ampv+lpaX/pKSk/6SkpP+kpKT/paWl/6ampv+oqKj/qqqq/6urq/+tra3/r6+v/7Gxsf+zs7P/tbW1/7e3t/+5ubn/u7u7/76+vv/AwMD/wsLC/8TExP/IyMj/ysrK/8zMzP/Ozs7/0dHR/8/Pz//Hx8f/wMDA/7m5uf+zs7P/rKys/6Wlpf+enp7/l5eX/5CQkP+Kior/g4OD/3x8fP91dXW/AAAAAAAAAAAAAAAAAAAAAAAAAAAAAAAAAAAAAAAAAAAAAAAAAAAAAAAAAAAAAAAAAAAAAAAAAAAAAAAAAAAAAAAAAAAAAAAAAAAAAAAAAAAAAAAAAAAAAAAAAAAAAAAAAAAAAAAAAAAAAAAAAAAAAAAAAAAAAAAAAAAAAAAAAAAAAAAAAAAAAAAAAAAAAAAAAAAAAAAAAAAAAAAAzc3NH87Ozv/Q0ND/1NTU/9fX1//b29v/3t7e/+Hh4f/k5OT/5+fn/+rq6v/t7e3/8PDw//Ly8v/19fX/9/f3//r6+v/8/Pz//f39//39/f/5+fn/9PT0//Dw8P/s7Oz/6Ojo/+Tk5P/g4OD/3Nzc/9jY2P/U1NT/0dHR/83Nzf/Kysr/xsbG/8PDw//AwMD/vb29/7q6uv+3t7f/tbW1/7Ozs/+wsLD/rq6u/62trf+rq6v/qamp/6ioqP+np6f/pqam/6Wlpf+kpKT/pKSk/6SkpP+lpaX/pqam/6ioqP+qqqr/q6ur/62trf+vr6//sbGx/7Ozs/+1tbX/t7e3/7m5uf+7u7v/vr6+/8DAwP/CwsL/xMTE/8jIyP/Kysr/zMzM/87Ozv/R0dH/z8/P/8fHx//AwMD/ubm5/7Ozs/+srKz/paWl/56env+Xl5f/kJCQ/4qKiv+Dg4P/fHx8/3V1db8AAAAAAAAAAAAAAAAAAAAAAAAAAAAAAAAAAAAAAAAAAAAAAAAAAAAAAAAAAAAAAAAAAAAAAAAAAAAAAAAAAAAAAAAAAAAAAAAAAAAAAAAAAAAAAAAAAAAAAAAAAAAAAAAAAAAAAAAAAAAAAAAAAAAAAAAAAAAAAAAAAAAAAAAAAAAAAAAAAAAAAAAAAAAAAAAAAAAAAAAAAAAAAADNzc0fzs7O/9DQ0P/U1NT/19fX/9vb2//e3t7/4eHh/+Tk5P/n5+f/6urq/+3t7f/w8PD/8vLy//X19f/39/f/+vr6//z8/P/9/f3//f39//n5+f/09PT/8PDw/+zs7P/o6Oj/5OTk/+Dg4P/c3Nz/2NjY/9TU1P/R0dH/zc3N/8rKyv/Gxsb/w8PD/8DAwP+9vb3/urq6/7e3t/+1tbX/s7Oz/7CwsP+urq7/ra2t/6urq/+pqan/qKio/6enp/+mpqb/paWl/6SkpP+kpKT/pKSk/6Wlpf+mpqb/qKio/6qqqv+rq6v/ra2t/6+vr/+xsbH/s7Oz/7W1tf+3t7f/ubm5/7u7u/++vr7/wMDA/8LCwv/ExMT/yMjI/8rKyv/MzMz/zs7O/9HR0f/Pz8//x8fH/8DAwP+5ubn/s7Oz/6ysrP+lpaX/np6e/5eXl/+QkJD/ioqK/4ODg/98fHz/dXV1vwAAAAAAAAAAAAAAAAAAAAAAAAAAAAAAAAAAAAAAAAAAAAAAAAAAAAAAAAAAAAAAAAAAAAAAAAAAAAAAAAAAAAAAAAAAAAAAAAAAAAAAAAAAAAAAAAAAAAAAAAAAAAAAAAAAAAAAAAAAAAAAAAAAAAAAAAAAAAAAAAAAAAAAAAAAAAAAAAAAAAAAAAAAAAAAAAAAAAAAAAAAAAAAAM3NzR/Ozs7/0NDQ/9TU1P/X19f/29vb/97e3v/h4eH/5OTk/+fn5//q6ur/7e3t//Dw8P/y8vL/9fX1//f39//6+vr//Pz8//39/f/9/f3/+fn5//T09P/w8PD/7Ozs/+jo6P/k5OT/4ODg/9zc3P/Y2Nj/1NTU/9HR0f/Nzc3/ysrK/8bGxv/Dw8P/wMDA/729vf+6urr/t7e3/7W1tf+zs7P/sLCw/66urv+tra3/q6ur/6mpqf+oqKj/p6en/6ampv+lpaX/pKSk/6SkpP+kpKT/paWl/6ampv+oqKj/qqqq/6urq/+tra3/r6+v/7Gxsf+zs7P/tbW1/7e3t/+5ubn/u7u7/76+vv/AwMD/wsLC/8TExP/IyMj/ysrK/8zMzP/Ozs7/0dHR/8/Pz//Hx8f/wMDA/7m5uf+zs7P/rKys/6Wlpf+enp7/l5eX/5CQkP+Kior/g4OD/3x8fP91dXW/AAAAAAAAAAAAAAAAAAAAAAAAAAAAAAAAAAAAAAAAAAAAAAAAAAAAAAAAAAAAAAAAAAAAAAAAAAAAAAAAAAAAAAAAAAAAAAAAAAAAAAAAAAAAAAAAAAAAAAAAAAAAAAAAAAAAAAAAAAAAAAAAAAAAAAAAAAAAAAAAAAAAAAAAAAAAAAAAAAAAAAAAAAAAAAAAAAAAAAAAAAAAAAAAzc3NH87Ozv/Q0ND/1NTU/9fX1//b29v/3t7e/+Hh4f/k5OT/5+fn/+rq6v/t7e3/8PDw//Ly8v/19fX/9/f3//r6+v/8/Pz//f39//39/f/5+fn/9PT0//Dw8P/s7Oz/6Ojo/+Tk5P/g4OD/3Nzc/9jY2P/U1NT/0dHR/83Nzf/Kysr/xsbG/8PDw//AwMD/vb29/7q6uv+3t7f/tbW1/7Ozs/+wsLD/rq6u/62trf+rq6v/qamp/6ioqP+np6f/pqam/6Wlpf+kpKT/pKSk/6SkpP+lpaX/pqam/6ioqP+qqqr/q6ur/62trf+vr6//sbGx/7Ozs/+1tbX/t7e3/7m5uf+7u7v/vr6+/8DAwP/CwsL/xMTE/8jIyP/Kysr/zMzM/87Ozv/R0dH/z8/P/8fHx//AwMD/ubm5/7Ozs/+srKz/paWl/56env+Xl5f/kJCQ/4qKiv+Dg4P/fHx8/3V1db8AAAAAAAAAAAAAAAAAAAAAAAAAAAAAAAAAAAAAAAAAAAAAAAAAAAAAAAAAAAAAAAAAAAAAAAAAAAAAAAAAAAAAAAAAAAAAAAAAAAAAAAAAAAAAAAAAAAAAAAAAAAAAAAAAAAAAAAAAAAAAAAAAAAAAAAAAAAAAAAAAAAAAAAAAAAAAAAAAAAAAAAAAAAAAAAAAAAAAAAAAAAAAAADNzc0fzs7O/9DQ0P/U1NT/19fX/9vb2//e3t7/4eHh/+Tk5P/n5+f/6urq/+3t7f/w8PD/8vLy//X19f/39/f/+vr6//z8/P/9/f3//f39//n5+f/09PT/8PDw/+zs7P/o6Oj/5OTk/+Dg4P/c3Nz/2NjY/9TU1P/R0dH/zc3N/8rKyv/Gxsb/w8PD/8DAwP+9vb3/urq6/7e3t/+1tbX/s7Oz/7CwsP+urq7/ra2t/6urq/+pqan/qKio/6enp/+mpqb/paWl/6SkpP+kpKT/pKSk/6Wlpf+mpqb/qKio/6qqqv+rq6v/ra2t/6+vr/+xsbH/s7Oz/7W1tf+3t7f/ubm5/7u7u/++vr7/wMDA/8LCwv/ExMT/yMjI/8rKyv/MzMz/zs7O/9HR0f/Pz8//x8fH/8DAwP+5ubn/s7Oz/6ysrP+lpaX/np6e/5eXl/+QkJD/ioqK/4ODg/98fHz/dXV1vwAAAAAAAAAAAAAAAAAAAAAAAAAAAAAAAAAAAAAAAAAAAAAAAAAAAAAAAAAAAAAAAAAAAAAAAAAAAAAAAAAAAAAAAAAAAAAAAAAAAAAAAAAAAAAAAAAAAAAAAAAAAAAAAAAAAAAAAAAAAAAAAAAAAAAAAAAAAAAAAAAAAAAAAAAAAAAAAAAAAAAAAAAAAAAAAAAAAAAAAAAAAAAAAM3NzR/Ozs7/0NDQ/9TU1P/X19f/29vb/97e3v/h4eH/5OTk/+fn5//q6ur/7e3t//Dw8P/y8vL/9fX1//f39//6+vr//Pz8//39/f/9/f3/+fn5//T09P/w8PD/7Ozs/+jo6P/k5OT/4ODg/9zc3P/Y2Nj/1NTU/9HR0f/MzMz/xcXF/7++vv+7urn/uLe1/7Szsf+zsa//sK+t/6+urP+urKr/raup/62qqP+tqqj/rKqn/6ypp/+rqaf/q6mn/6uppv+qqKb/qaem/6mnpf+op6X/qKel/6inpv+pqKf/qqqp/6urqv+tra3/r6+v/7Gxsf+zs7P/tbW1/7e3t/+5ubn/u7u7/76+vv/AwMD/wsLC/8TExP/IyMj/ysrK/8zMzP/Ozs7/0dHR/8/Pz//Hx8f/wMDA/7m5uf+zs7P/rKys/6Wlpf+enp7/l5eX/5CQkP+Kior/g4OD/3x8fP91dXW/AAAAAAAAAAAAAAAAAAAAAAAAAAAAAAAAAAAAAAAAAAAAAAAAAAAAAAAAAAAAAAAAAAAAAAAAAAAAAAAAAAAAAAAAAAAAAAAAAAAAAAAAAAAAAAAAAAAAAAAAAAAAAAAAAAAAAAAAAAAAAAAAAAAAAAAAAAAAAAAAAAAAAAAAAAAAAAAAAAAAAAAAAAAAAAAAAAAAAAAAAAAAAAAAzc3NH87Ozv/Q0ND/1NTU/9fX1//b29v/3t7e/+Hh4f/k5OT/5+fn/+rq6v/t7e3/8PDw//Ly8v/19fX/9/f3//r6+v/8/Pz//f39//39/f/5+fn/9PT0//Dw8P/s7Oz/6Ojo/9vb2v/Qz87/xsTD/7y7uf+1s7H/sK6r/62qp/+tqqf/raqn/62qp/+tqqf/raqn/62qp/+tqqf/raqn/62qp/+tqqf/raqn/62qp/+tqqf/raqn/62qp/+tqqf/raqn/62qp/+tqqf/raqn/62qp/+tqqf/raqn/62qp/+tqqf/raqn/62qp/+uq6j/rqyq/7CurP+ysa//tbSz/7i4uP+7u7v/vr6+/8DAwP/CwsL/xMTE/8jIyP/Kysr/zMzM/87Ozv/R0dH/z8/P/8fHx//AwMD/ubm5/7Ozs/+srKz/paWl/56env+Xl5f/kJCQ/4qKiv+Dg4P/fHx8/3V1db8AAAAAAAAAAAAAAAAAAAAAAAAAAAAAAAAAAAAAAAAAAAAAAAAAAAAAAAAAAAAAAAAAAAAAAAAAAAAAAAAAAAAAAAAAAAAAAAAAAAAAAAAAAAAAAAAAAAAAAAAAAAAAAAAAAAAAAAAAAAAAAAAAAAAAAAAAAAAAAAAAAAAAAAAAAAAAAAAAAAAAAAAAAAAAAAAAAAAAAAAAAAAAAADNzc0fzs7O/9DQ0P/U1NT/19fX/9vb2//e3t7/4eHh/+Tk5P/n5+f/6urq/+3t7f/w8PD/8vLy//X19f/39/f/+vr6//z8/P/9/f3//f39//Hw8P/d3Nv/y8rI/727uf+yr6z/r6yp/6+sqf+vrKn/r6yp/6+sqf+vrKn/r6yp/6+sqf+vrKn/r6yp/6+sqf+vrKn/r6yp/6+sqf+vrKn/r6yp/6+sqf+vrKn/r6yp/6+sqf+vrKn/r6yp/6+sqf+vrKn/r6yp/6+sqf+vrKn/r6yp/6+sqf+vrKn/r6yp/6+sqf+vrKn/r6yp/6+sqf+vrKn/r6yp/6+sqf+vrKn/r6yp/7Ctq/+0srD/uLe1/728u//Dw8P/yMjI/8rKyv/MzMz/zs7O/9HR0f/Pz8//x8fH/8DAwP+5ubn/s7Oz/6ysrP+lpaX/np6e/5eXl/+QkJD/ioqK/4ODg/98fHz/dXV1vwAAAAAAAAAAAAAAAAAAAAAAAAAAAAAAAAAAAAAAAAAAAAAAAAAAAAAAAAAAAAAAAAAAAAAAAAAAAAAAAAAAAAAAAAAAAAAAAAAAAAAAAAAAAAAAAAAAAAAAAAAAAAAAAAAAAAAAAAAAAAAAAAAAAAAAAAAAAAAAAAAAAAAAAAAAAAAAAAAAAAAAAAAAAAAAAAAAAAAAAAAAAAAAAM3NzR/Ozs7/0NDQ/9TU1P/X19f/29vb/97e3v/h4eH/5OTk/+fn5//q6ur/7e3t//Dw8P/y8vL/9fX1//f39//29vb/5OLi/9DOzf+7uLX/sa6r/7Guq/+xrqv/sa6r/7Guq/+xrqv/sa6r/7Guq/+xrqv/sa6r/7Guq/+xrqv/sa6r/7Guq/+xrqv/sa6r/7Guq/+xrqv/sa6r/7Guq/+xrqv/sa6r/7Guq/+xrqv/sa6r/7Guq/+xrqv/sa6r/7Guq/+xrqv/sa6r/7Guq/+xrqv/sa6r/7Guq/+xrqv/sa6r/7Guq/+xrqv/sa6r/7Guq/+xrqv/sa6r/7Guq/+xrqv/sa6r/7Guq/+xrqv/sa6r/7Guq/+2tLH/vry6/8bFxf/Ozs7/0dHR/8/Pz//Hx8f/wMDA/7m5uf+zs7P/rKys/6Wlpf+enp7/l5eX/5CQkP+Kior/g4OD/3x8fP91dXW/AAAAAAAAAAAAAAAAAAAAAAAAAAAAAAAAAAAAAAAAAAAAAAAAAAAAAAAAAAAAAAAAAAAAAAAAAAAAAAAAAAAAAAAAAAAAAAAAAAAAAAAAAAAAAAAAAAAAAAAAAAAAAAAAAAAAAAAAAAAAAAAAAAAAAAAAAAAAAAAAAAAAAAAAAAAAAAAAAAAAAAAAAAAAAAAAAAAAAAAAAAAAAAAAzc3NH87Ozv/Q0ND/1NTU/9fX1//b29v/3t7e/+Hh4f/k5OT/5+fn/+rq6v/t7e3/8PDw/+/v7//d3dv/yMXD/7Wyr/+zsK3/s7Ct/7Owrf+zsK3/s7Ct/7Owrf+zsK3/s7Ct/7Owrf+zsK3/s7Ct/7Owrf+zsK3/s7Ct/7Owrf+zsK3/s7Ct/7Owrf+zsK3/s7Ct/7Owrf+zsK3/s7Ct/7Owrf+zsK3/s7Ct/7Owrf+zsK3/s7Ct/7Owrf+zsK3/s7Ct/7Owrf+zsK3/s7Ct/7Owrf+zsK3/s7Ct/7Owrf+zsK3/s7Ct/7Owrf+zsK3/s7Ct/7Owrf+zsK3/s7Ct/7Owrf+zsK3/s7Ct/7Owrf+zsK3/s7Ct/7Owrf+zsK3/s7Ct/7WzsP+/vbv/x8fG/8fHx//AwMD/ubm5/7Ozs/+srKz/paWl/56env+Xl5f/kJCQ/4qKiv+Dg4P/fHx8/3V1db8AAAAAAAAAAAAAAAAAAAAAAAAAAAAAAAAAAAAAAAAAAAAAAAAAAAAAAAAAAAAAAAAAAAAAAAAAAAAAAAAAAAAAAAAAAAAAAAAAAAAAAAAAAAAAAAAAAAAAAAAAAAAAAAAAAAAAAAAAAAAAAAAAAAAAAAAAAAAAAAAAAAAAAAAAAAAAAAAAAAAAAAAAAAAAAAAAAAAAAAAAAAAAAADNzc0fzs7O/9DQ0P/U1NT/19fX/9vb2//e3t7/4eHh/+Tk5P/n5+f/6urq/+Hg4P/Lycj/t7Sx/7Wyr/+1sq//tbKv/7Wyr/+1sq//tbKv/7Wyr/+1sq//tbKv/7Wyr/+1sq//tbKv/7Wyr/+1sq//tbKv/7Wyr/+1sq//tbKv/7Wyr/+1sq//tbKv/7Wyr/+1sq//tbKv/7Wyr/+1sq//tbKv/7Wyr/+1sq//tbKv/7Wyr/+1sq//tbKv/7Wyr/+1sq//tbKv/7Wyr/+1sq//tbKv/7Wyr/+1sq//tbKv/7Wyr/+1sq//tbKv/7Wyr/+1sq//tbKv/7Wyr/+1sq//tbKv/7Wyr/+1sq//tbKv/7Wyr/+1sq//tbKv/7Wyr/+1sq//tbKv/7Wyr/+1sq//t7Sx/7q5t/+4uLj/s7Oz/6ysrP+lpaX/np6e/5eXl/+QkJD/ioqK/4ODg/98fHz/dXV1vwAAAAAAAAAAAAAAAAAAAAAAAAAAAAAAAAAAAAAAAAAAAAAAAAAAAAAAAAAAAAAAAAAAAAAAAAAAAAAAAAAAAAAAAAAAAAAAAAAAAAAAAAAAAAAAAAAAAAAAAAAAAAAAAAAAAAAAAAAAAAAAAAAAAAAAAAAAAAAAAAAAAAAAAAAAAAAAAAAAAAAAAAAAAAAAAAAAAAAAAAAAAAAAAM3NzR/Ozs7/0NDQ/9TU1P/X19f/29vb/97e3v/h4eH/5OTk/9jX1//Bv73/t7Sx/7e0sf+3tLH/t7Sx/7e0sf+3tLH/t7Sx/7e0sf+3tLH/t7Sx/7e0sf+3tLH/t7Sx/7e0sf+3tLH/t7Sx/7e0sf+3tLH/t7Sx/7e0sf+3tLH/t7Sx/7e0sf+3tLH/t7Sx/7e0sf+3tLH/t7Sx/7e0sf+3tLH/t7Sx/7e0sf+3tLH/t7Sx/7e0sf+3tLH/t7Sx/7e0sf+3tLH/t7Sx/7e0sf+3tLH/t7Sx/7e0sf+3tLH/t7Sx/7e0sf+3tLH/t7Sx/7e0sf+3tLH/t7Sx/7e0sf+3tLH/t7Sx/7e0sf+3tLH/t7Sx/7e0sf+3tLH/t7Sx/7e0sf+3tLH/t7Sx/7e0sf+3tLH/t7Sx/7e0sf+1s7L/ra2s/6Wlpf+enp7/l5eX/5CQkP+Kior/g4OD/3x8fP91dXW/AAAAAAAAAAAAAAAAAAAAAAAAAAAAAAAAAAAAAAAAAAAAAAAAAAAAAAAAAAAAAAAAAAAAAAAAAAAAAAAAAAAAAAAAAAAAAAAAAAAAAAAAAAAAAAAAAAAAAAAAAAAAAAAAAAAAAAAAAAAAAAAAAAAAAAAAAAAAAAAAAAAAAAAAAAAAAAAAAAAAAAAAAAAAAAAAAAAAAAAAAAAAAAAAzc3NH87Ozv/Q0ND/1NTU/9fX1//b29v/3t7e/9fW1v/Avrz/uLaz/7i2s/+4trP/uLaz/7i2s/+4trP/uLaz/7i2s/+4trP/uLaz/7i2s/+4trP/uLaz/7i2s/+4trP/uLaz/7i2s/+4trP/uLaz/7i2s/+4trP/uLaz/7i2s/+4trP/uLaz/7i2s/+4trP/uLaz/7i2s/+4trP/uLaz/7i2s/+4trP/uLaz/7i2s/+4trP/uLaz/7i2s/+4trP/uLaz/7i2s/+4trP/uLaz/7i2s/+4trP/uLaz/7i2s/+4trP/uLaz/7i2s/+4trP/uLaz/7i2s/+4trP/uLaz/7i2s/+4trP/uLaz/7i2s/+4trP/uLaz/7i2s/+4trP/uLaz/7i2s/+4trP/uLaz/7i2s/+4trP/uLaz/7i2s/+4trP/sa+u/6CgoP+Xl5f/kJCQ/4qKiv+Dg4P/fHx8/3V1db8AAAAAAAAAAAAAAAAAAAAAAAAAAAAAAAAAAAAAAAAAAAAAAAAAAAAAAAAAAAAAAAAAAAAAAAAAAAAAAAAAAAAAAAAAAAAAAAAAAAAAAAAAAAAAAAAAAAAAAAAAAAAAAAAAAAAAAAAAAAAAAAAAAAAAAAAAAAAAAAAAAAAAAAAAAAAAAAAAAAAAAAAAAAAAAAAAAAAAAAAAAAAAAADNzc0fzs7O/9DQ0P/U1NT/19fX/9nZ2f/IxsT/uri1/7q4tf+6uLX/uri1/7q4tf+6uLX/uri1/7q4tf+6uLX/uri1/7q4tf+6uLX/uri1/7q4tf+6uLX/uri1/7q4tf+6uLX/uri1/7q4tf+6uLX/uri1/7q4tf+6uLX/uri1/7q4tf+6uLX/uri1/7q4tf+6uLX/uri1/7q4tf+6uLX/uri1/7q4tf+6uLX/uri1/7q4tf+6uLX/uri1/7q4tf+6uLX/uri1/7q4tf+6uLX/uri1/7q4tf+6uLX/uri1/7q4tf+6uLX/uri1/7q4tf+6uLX/uri1/7q4tf+6uLX/uri1/7q4tf+6uLX/uri1/7q4tf+6uLX/uri1/7q4tf+6uLX/uri1/7q4tf+6uLX/uri1/7q4tf+6uLX/uri1/7q4tf+6uLX/uLa0/6alpP+QkJD/ioqK/4ODg/98fHz/dXV1vwAAAAAAAAAAAAAAAAAAAAAAAAAAAAAAAAAAAAAAAAAAAAAAAAAAAAAAAAAAAAAAAAAAAAAAAAAAAAAAAAAAAAAAAAAAAAAAAAAAAAAAAAAAAAAAAAAAAAAAAAAAAAAAAAAAAAAAAAAAAAAAAAAAAAAAAAAAAAAAAAAAAAAAAAAAAAAAAAAAAAAAAAAAAAAAAAAAAAAAAAAAAAAAAM3NzR/Ozs7/0NDQ/9TU1P/S0dH/v727/7y6t/+8urf/vLq3/7y6t/+8urf/vLq3/7y6t/+8urf/vLq3/7y6t/+8urf/vLq3/7y6t/+8urf/vLq3/7y6t/+8urf/vLq3/7y6t/+8urf/vLq3/7y6t/+8urf/vLq3/7y6t/+8urf/vLq3/7y6t/+8urf/vLq3/7y6t/+8urf/vLq3/7y6t/+8urf/vLq3/7y6t/+8urf/vLq3/7y6t/+8urf/vLq3/7y6t/+8urf/vLq3/7y6t/+8urf/vLq3/7y6t/+8urf/vLq3/7y6t/+8urf/vLq3/7y6t/+8urf/vLq3/7y6t/+8urf/vLq3/7y6t/+8urf/vLq3/7y6t/+8urf/vLq3/7y6t/+8urf/vLq3/7y6t/+8urf/vLq3/7y6t/+8urf/vLq3/7y6t/+8urf/vLq3/66tq/+MjIz/g4OD/3x8fP91dXW/AAAAAAAAAAAAAAAAAAAAAAAAAAAAAAAAAAAAAAAAAAAAAAAAAAAAAAAAAAAAAAAAAAAAAAAAAAAAAAAAAAAAAAAAAAAAAAAAAAAAAAAAAAAAAAAAAAAAAAAAAAAAAAAAAAAAAAAAAAAAAAAAAAAAAAAAAAAAAAAAAAAAAAAAAAAAAAAAAAAAAAAAAAAAAAAAAAAAAAAAAAAAAAAAzc3NH87Ozv/Q0ND/zs7N/7+8uv++vLn/vry5/768uf++vLn/vry5/768uf++vLn/vry5/768uf++vLn/vry5/768uf++vLn/vry5/768uf++vLn/vry5/768uf++vLn/vry5/768uf++vLn/vry5/768uf++vLn/vry5/768uf++vLn/vry5/768uf++vLn/vry5/768uf++vLn/vry5/768uf++vLn/vry5/768uf++vLn/vry5/768uf++vLn/vry5/768uf++vLn/vry5/768uf++vLn/vry5/768uf++vLn/vry5/768uf++vLn/vry5/768uf++vLn/vry5/768uf++vLn/vry5/768uf++vLn/vry5/768uf++vLn/vry5/768uf++vLn/vry5/768uf++vLn/vry5/768uf++vLn/vry5/768uf++vLn/vry5/7Wysf+IiIj/fHx8/3V1db8AAAAAAAAAAAAAAAAAAAAAAAAAAAAAAAAAAAAAAAAAAAAAAAAAAAAAAAAAAAAAAAAAAAAAAAAAAAAAAAAAAAAAAAAAAAAAAAAAAAAAAAAAAAAAAAAAAAAAAAAAAAAAAAAAAAAAAAAAAAAAAAAAAAAAAAAAAAAAAAAAAAAAAAAAAAAAAAAAAAAAAAAAAAAAAAAAAAAAAAAAAAAAAADNzc0fzs7O/83MzP/Bvrz/wL27/8C9u//Avbv/wL27/8C9u//Avbv/wL27/8C9u//Avbv/wL27/8C9u//Avbv/wL27/8C9u//Avbv/wL27/8C9u//Avbv/wL27/8C9u//Avbv/wL27/8C9u//Avbv/wL27/8C9u//Avbv/wL27/8C9u//Avbv/wL27/8C9u//Avbv/wL27/8C9u//Avbv/wL27/8C9u//Avbv/wL27/8C9u//Avbv/wL27/8C9u//Avbv/wL27/8C9u//Avbv/wL27/8C9u//Avbv/wL27/8C9u//Avbv/wL27/8C9u//Avbv/wL27/8C9u//Avbv/wL27/8C9u//Avbv/wL27/8C9u//Avbv/wL27/8C9u//Avbv/wL27/8C9u//Avbv/wL27/8C9u//Avbv/wL27/8C9u//Avbv/wL27/8C9u//Avbv/wL27/7Oxr/9+fn7/dXV1vwAAAAAAAAAAAAAAAAAAAAAAAAAAAAAAAAAAAAAAAAAAAAAAAAAAAAAAAAAAAAAAAAAAAAAAAAAAAAAAAAAAAAAAAAAAAAAAAAAAAAAAAAAAAAAAAAAAAAAAAAAAAAAAAAAAAAAAAAAAAAAAAAAAAAAAAAAAAAAAAAAAAAAAAAAAAAAAAAAAAAAAAAAAAAAAAAAAAAAAAAAAAAAAAM3NzR/Nzc3/xMG//8K/vf/Cv73/wr+9/8K/vf/Cv73/wr+9/8K/vf/Cv73/wr+9/8K/vf/Cv73/wr+9/8K/vf/Cv73/wr+9/8K/vf/Cv73/wr+9/8K/vf/Cv73/wr+9/8K/vf/Cv73/wr+9/8K/vf/Cv73/wr+9/8K/vf/Cv73/wr+9/8K/vf/Cv73/wr+9/8K/vf/Cv73/wr+9/8K/vf/Cv73/wr+9/8K/vf/Cv73/wr+9/8K/vf/Cv73/wr+9/8K/vf/Cv73/wr+9/8K/vf/Cv73/wr+9/8K/vf/Cv73/wr+9/8K/vf/Cv73/wr+9/8K/vf/Cv73/wr+9/8K/vf/Cv73/wr+9/8K/vf/Cv73/wr+9/8K/vf/Cv73/wr+9/8K/vf/Cv73/wr+9/8K/vf/Cv73/wr+9/8K/vf/Cv73/wr+9/8K/vf/Cv73/wr+9/8K/vf/Cv73/wr+9/6OhoP91dXW/AAAAAAAAAAAAAAAAAAAAAAAAAAAAAAAAAAAAAAAAAAAAAAAAAAAAAAAAAAAAAAAAAAAAAAAAAAAAAAAAAAAAAAAAAAAAAAAAAAAAAAAAAAAAAAAAAAAAAAAAAAAAAAAAAAAAAAAAAAAAAAAAAAAAAAAAAAAAAAAAAAAAAAAAAAAAAAAAAAAAAAAAAAAAAAAAAAAAAAAAAAAAAAAAzc3NH8nIx//Ewb//xMG//8TBv//Ewb//xMG//8TBv//Ewb//xMG//8TBv//Ewb//xMG//8TBv//Ewb//xMG//8TBv//Ewb//xMG//8TBv//Ewb//xMG//8TBv//Ewb//xMG//8TBv//Ewb//xMG//8TBv//Ewb//xMG//8TBv//Ewb//xMG//8TBv//Ewb//xMG//8TBv//Ewb//xMG//8TBv//Ewb//xMG//8TBv//Ewb//xMG//8TBv//Ewb//xMG//8TBv//Ewb//xMG//8TBv//Ewb//xMG//8TBv//Ewb//xMG//8TBv//Ewb//xMG//8TBv//Ewb//xMG//8TBv//Ewb//xMG//8TBv//Ewb//xMG//8TBv//Ewb//xMG//8TBv//Ewb//xMG//8TBv//Ewb//xMG//8TBv//Ewb//xMG//8TBv//Ewb//xMG//8TBv//Ewb//w8C+/4GAgL8AAAAAAAAAAAAAAAAAAAAAAAAAAAAAAAAAAAAAAAAAAAAAAAAAAAAAAAAAAAAAAAAAAAAAAAAAAAAAAAAAAAAAAAAAAAAAAAAAAAAAAAAAAAAAAAAAAAAAAAAAAAAAAAAAAAAAAAAAAAAAAAAAAAAAAAAAAAAAAAAAAAAAAAAAAAAAAAAAAAAAAAAAAAAAAAAAAAAAAAAAAAAAAADNzc0fyMXD/8vIxf/Mycf/x8PA/8fDwP/Hw8D/x8PA/8fDwP/Hw8D/x8PA/8fDwP/Hw8D/x8PA/8fDwP/Hw8D/x8PA/8fDwP/Hw8D/x8PA/8fDwP/Hw8D/x8PA/8fDwP/Hw8D/x8PA/8fDwP/Hw8D/x8PA/8fDwP/Hw8D/x8PA/8fDwP/Hw8D/x8PA/8fDwP/Hw8D/x8PA/8fDwP/Hw8D/x8PA/8fDwP/Hw8D/x8PA/8fDwP/Hw8D/x8PA/8fDwP/Hw8D/x8PA/8fDwP/Hw8D/x8PA/8fDwP/Hw8D/x8PA/8fDwP/Hw8D/x8PA/8fDwP/Hw8D/x8PA/8fDwP/Hw8D/x8PA/8fDwP/Hw8D/x8PA/8fDwP/Hw8D/x8PA/8fDwP/Hw8D/x8PA/8fDwP/Hw8D/x8PA/8fDwP/Hw8D/x8PA/8fDwP/Hw8D/x8PA/8fDwP/Hw8D/x8PA/87Myf/Hw8D/paShvwAAAAAAAAAAAAAAAAAAAAAAAAAAAAAAAAAAAAAAAAAAAAAAAAAAAAAAAAAAAAAAAAAAAAAAAAAAAAAAAAAAAAAAAAAAAAAAAAAAAAAAAAAAAAAAAAAAAAAAAAAAAAAAAAAAAAAAAAAAAAAAAAAAAAAAAAAAAAAAAAAAAAAAAAAAAAAAAAAAAAAAAAAAAAAAAAAAAAAAAAAAAAAAAM3NzR/JxsL/zsvI/9vZ2P/JxsL/ycbC/8nGwv/JxsL/ycbC/8nGwv/JxsL/ycbC/8nGwv/JxsL/ycbC/8nGwv/JxsL/ycbC/8nGwv/JxsL/ycbC/8nGwv/JxsL/ycbC/8nGwv/JxsL/ycbC/8nGwv/JxsL/ycbC/8nGwv/JxsL/ycbC/8nGwv/JxsL/ycbC/8nGwv/JxsL/ycbC/8nGwv/JxsL/ycbC/8nGwv/JxsL/ycbC/8nGwv/JxsL/ycbC/8nGwv/JxsL/ycbC/8nGwv/JxsL/ycbC/8nGwv/JxsL/ycbC/8nGwv/JxsL/ycbC/8nGwv/JxsL/ycbC/8nGwv/JxsL/ycbC/8nGwv/JxsL/ycbC/8nGwv/JxsL/ycbC/8nGwv/JxsL/ycbC/8nGwv/JxsL/ycbC/8nGwv/JxsL/ycbC/8nGwv/JxsL/ycbC/8nGwv/JxsL/5OPi/8nGwv+6uLW/AAAAAAAAAAAAAAAAAAAAAAAAAAAAAAAAAAAAAAAAAAAAAAAAAAAAAAAAAAAAAAAAAAAAAAAAAAAAAAAAAAAAAAAAAAAAAAAAAAAAAAAAAAAAAAAAAAAAAAAAAAAAAAAAAAAAAAAAAAAAAAAAAAAAAAAAAAAAAAAAAAAAAAAAAAAAAAAAAAAAAAAAAAAAAAAAAAAAAAAAAAAAAAAA0NC5C8rIxP/Ny8j/7u7t/83Lx//KyMT/ysjE/8rIxP/KyMT/ysjE/8rIxP/KyMT/ysjE/8rIxP/KyMT/ysjE/8rIxP/KyMT/ysjE/8rIxP/KyMT/ysjE/8rIxP/KyMT/ysjE/8rIxP/KyMT/ysjE/8rIxP/KyMT/ysjE/8rIxP/KyMT/ysjE/8rIxP/KyMT/ysjE/8rIxP/KyMT/ysjE/8rIxP/KyMT/ysjE/8rIxP/KyMT/ysjE/8rIxP/KyMT/ysjE/8rIxP/KyMT/ysjE/8rIxP/KyMT/ysjE/8rIxP/KyMT/ysjE/8rIxP/KyMT/ysjE/8rIxP/KyMT/ysjE/8rIxP/KyMT/ysjE/8rIxP/KyMT/ysjE/8rIxP/KyMT/ysjE/8rIxP/KyMT/ysjE/8rIxP/KyMT/ysjE/8rIxP/KyMT/ysjE/8rIxP/KyMT/ysjE/9bU0v/m5uX/ysjE/8rHxK8AAAAAAAAAAAAAAAAAAAAAAAAAAAAAAAAAAAAAAAAAAAAAAAAAAAAAAAAAAAAAAAAAAAAAAAAAAAAAAAAAAAAAAAAAAAAAAAAAAAAAAAAAAAAAAAAAAAAAAAAAAAAAAAAAAAAAAAAAAAAAAAAAAAAAAAAAAAAAAAAAAAAAAAAAAAAAAAAAAAAAAAAAAAAAAAAAAAAAAAAAAAAAAAAAAAAAzcrHwszKx//q6en/5uXl/83LyP/Mysf/zMrH/8zKx//Mysf/zMrH/8zKx//Mysf/zMrH/8zKx//Mysf/zMrH/8zKx//Mysf/zMrH/8zKx//Mysf/zMrH/8zKx//Mysf/zMrH/8zKx//Mysf/zMrH/8zKx//Mysf/zMrH/8zKx//Mysf/zMrH/8zKx//Mysf/zMrH/8zKx//Mysf/zMrH/8zKx//Mysf/zMrH/8zKx//Mysf/zMrH/8zKx//Mysf/zMrH/8zKx//Mysf/zMrH/8zKx//Mysf/zMrH/8zKx//Mysf/zMrH/8zKx//Mysf/zMrH/8zKx//Mysf/zMrH/8zKx//Mysf/zMrH/8zKx//Mysf/zMrH/8zKx//Mysf/zMrH/8zKx//Mysf/zMrH/8zKx//Mysf/zMrH/8zKx//Mysf/zMrH/8zKx//Qz8z/7u7u/93c2//Mysf/zMrHbwAAAAAAAAAAAAAAAAAAAAAAAAAAAAAAAAAAAAAAAAAAAAAAAAAAAAAAAAAAAAAAAAAAAAAAAAAAAAAAAAAAAAAAAAAAAAAAAAAAAAAAAAAAAAAAAAAAAAAAAAAAAAAAAAAAAAAAAAAAAAAAAAAAAAAAAAAAAAAAAAAAAAAAAAAAAAAAAAAAAAAAAAAAAAAAAAAAAAAAAAAAAAAAAAAAAADNysdXzszJ/9rY1v/y8vL/4+Ph/8/Nyv/OzMn/zszJ/87Myf/OzMn/zszJ/87Myf/OzMn/zszJ/87Myf/OzMn/zszJ/87Myf/OzMn/zszJ/87Myf/OzMn/zszJ/87Myf/OzMn/zszJ/87Myf/OzMn/zszJ/87Myf/OzMn/zszJ/87Myf/OzMn/zszJ/87Myf/OzMn/zszJ/87Myf/OzMn/zszJ/87Myf/OzMn/zszJ/87Myf/OzMn/zszJ/87Myf/OzMn/zszJ/87Myf/OzMn/zszJ/87Myf/OzMn/zszJ/87Myf/OzMn/zszJ/87Myf/OzMn/zszJ/87Myf/OzMn/zszJ/87Myf/OzMn/zszJ/87Myf/OzMn/zszJ/87Myf/OzMn/zszJ/87Myf/OzMn/zszJ/87Myf/OzMn/zszJ/87Myf/OzMn/0tDN/+zr6//v7u7/0M7L/83LyO/MzMwPAAAAAAAAAAAAAAAAAAAAAAAAAAAAAAAAAAAAAAAAAAAAAAAAAAAAAAAAAAAAAAAAAAAAAAAAAAAAAAAAAAAAAAAAAAAAAAAAAAAAAAAAAAAAAAAAAAAAAAAAAAAAAAAAAAAAAAAAAAAAAAAAAAAAAAAAAAAAAAAAAAAAAAAAAAAAAAAAAAAAAAAAAAAAAAAAAAAAAAAAAAAAAAAAAAAAAAAAAADRzsuy0M7L/+Xk5P/y8vL/6Ofm/9PRzv/Qzsv/0M7L/9DOy//Qzsv/0M7L/9DOy//Qzsv/0M7L/9DOy//Qzsv/0M7L/9DOy//Qzsv/0M7L/9DOy//Qzsv/0M7L/9DOy//Qzsv/0M7L/9DOy//Qzsv/0M7L/9DOy//Qzsv/0M7L/9DOy//Qzsv/0M7L/9DOy//Qzsv/0M7L/9DOy//Qzsv/0M7L/9DOy//Qzsv/0M7L/9DOy//Qzsv/0M7L/9DOy//Qzsv/0M7L/9DOy//Qzsv/0M7L/9DOy//Qzsv/0M7L/9DOy//Qzsv/0M7L/9DOy//Qzsv/0M7L/9DOy//Qzsv/0M7L/9DOy//Qzsv/0M7L/9DOy//Qzsv/0M7L/9DOy//Qzsv/0M7L/9DOy//Qzsv/0M7L/9DOy//Qzsv/0M7L/9fW1P/u7u7/8vLy/9rZ1//Qzsv/z8zJWwAAAAAAAAAAAAAAAAAAAAAAAAAAAAAAAAAAAAAAAAAAAAAAAAAAAAAAAAAAAAAAAAAAAAAAAAAAAAAAAAAAAAAAAAAAAAAAAAAAAAAAAAAAAAAAAAAAAAAAAAAAAAAAAAAAAAAAAAAAAAAAAAAAAAAAAAAAAAAAAAAAAAAAAAAAAAAAAAAAAAAAAAAAAAAAAAAAAAAAAAAAAAAAAAAAAAAAAAAAAAAAAMzMzA/S0M7W09HP/+rp6f/y8vL/7u7u/9va2P/S0M3/0tDN/9LQzf/S0M3/0tDN/9LQzf/S0M3/0tDN/9LQzf/S0M3/0tDN/9LQzf/S0M3/0tDN/9LQzf/S0M3/0tDN/9LQzf/S0M3/0tDN/9LQzf/S0M3/0tDN/9LQzf/S0M3/0tDN/9LQzf/S0M3/0tDN/9LQzf/S0M3/0tDN/9LQzf/S0M3/0tDN/9LQzf/S0M3/0tDN/9LQzf/S0M3/0tDN/9LQzf/S0M3/0tDN/9LQzf/S0M3/0tDN/9LQzf/S0M3/0tDN/9LQzf/S0M3/0tDN/9LQzf/S0M3/0tDN/9LQzf/S0M3/0tDN/9LQzf/S0M3/0tDN/9LQzf/S0M3/0tDN/9LQzf/S0M3/0tDN/9LQzf/S0M3/0tDN/9PRzv/j4uH/8fHx//Ly8v/g3t3/0tDN/9HPzYsAAAAAAAAAAAAAAAAAAAAAAAAAAAAAAAAAAAAAAAAAAAAAAAAAAAAAAAAAAAAAAAAAAAAAAAAAAAAAAAAAAAAAAAAAAAAAAAAAAAAAAAAAAAAAAAAAAAAAAAAAAAAAAAAAAAAAAAAAAAAAAAAAAAAAAAAAAAAAAAAAAAAAAAAAAAAAAAAAAAAAAAAAAAAAAAAAAAAAAAAAAAAAAAAAAAAAAAAAAAAAAAAAAAAAAAAAANLS0hfU0s/C1dLQ/+bm5f/y8vL/8vLy/+np6P/Z2NX/1NLP/9TSz//U0s//1NLP/9TSz//U0s//1NLP/9TSz//U0s//1NLP/9TSz//U0s//1NLP/9TSz//U0s//1NLP/9TSz//U0s//1NLP/9TSz//U0s//1NLP/9TSz//U0s//1NLP/9TSz//U0s//1NLP/9TSz//U0s//1NLP/9TSz//U0s//1NLP/9TSz//U0s//1NLP/9TSz//U0s//1NLP/9TSz//U0s//1NLP/9TSz//U0s//1NLP/9TSz//U0s//1NLP/9TSz//U0s//1NLP/9TSz//U0s//1NLP/9TSz//U0s//1NLP/9TSz//U0s//1NLP/9TSz//U0s//1NLP/9TSz//U0s//1NLP/9TSz//f3dv/7u3t//Ly8v/w8PD/393c/9TSz//U0M6DAAAAAAAAAAAAAAAAAAAAAAAAAAAAAAAAAAAAAAAAAAAAAAAAAAAAAAAAAAAAAAAAAAAAAAAAAAAAAAAAAAAAAAAAAAAAAAAAAAAAAAAAAAAAAAAAAAAAAAAAAAAAAAAAAAAAAAAAAAAAAAAAAAAAAAAAAAAAAAAAAAAAAAAAAAAAAAAAAAAAAAAAAAAAAAAAAAAAAAAAAAAAAAAAAAAAAAAAAAAAAAAAAAAAAAAAAAAAAAAAAAAAAP+qqgPV0dCT1tPR/+Hg3v/w7+//8vLy//Ly8v/p6Of/3NrY/9bT0f/W09H/1tPR/9bT0f/W09H/1tPR/9bT0f/W09H/1tPR/9bT0f/W09H/1tPR/9bT0f/W09H/1tPR/9bT0f/W09H/1tPR/9bT0f/W09H/1tPR/9bT0f/W09H/1tPR/9bT0f/W09H/1tPR/9bT0f/W09H/1tPR/9bT0f/W09H/1tPR/9bT0f/W09H/1tPR/9bT0f/W09H/1tPR/9bT0f/W09H/1tPR/9bT0f/W09H/1tPR/9bT0f/W09H/1tPR/9bT0f/W09H/1tPR/9bT0f/W09H/1tPR/9bT0f/W09H/1tPR/9bT0f/W09H/1tPR/9bT0f/W09H/1tPR/9fU0v/g3t3/7ezs//Ly8v/y8vL/7Ozr/9vZ1//V09Hv1dHOTwAAAAAAAAAAAAAAAAAAAAAAAAAAAAAAAAAAAAAAAAAAAAAAAAAAAAAAAAAAAAAAAAAAAAAAAAAAAAAAAAAAAAAAAAAAAAAAAAAAAAAAAAAAAAAAAAAAAAAAAAAAAAAAAAAAAAAAAAAAAAAAAAAAAAAAAAAAAAAAAAAAAAAAAAAAAAAAAAAAAAAAAAAAAAAAAAAAAAAAAAAAAAAAAAAAAAAAAAAAAAAAAAAAAAAAAAAAAAAAAAAAAAAAAAAAAAAAAAAAAADW0tI/2NXU1tvY1v/o5+b/8vLy//Ly8v/y8vL/7Ozr/+Lg3//a19X/2NXT/9jV0//Y1dP/2NXT/9jV0//Y1dP/2NXT/9jV0//Y1dP/2NXT/9jV0//Y1dP/2NXT/9jV0//Y1dP/2NXT/9jV0//Y1dP/2NXT/9jV0//Y1dP/2NXT/9jV0//Y1dP/2NXT/9jV0//Y1dP/2NXT/9jV0//Y1dP/2NXT/9jV0//Y1dP/2NXT/9jV0//Y1dP/2NXT/9jV0//Y1dP/2NXT/9jV0//Y1dP/2NXT/9jV0//Y1dP/2NXT/9jV0//Y1dP/2NXT/9jV0//Y1dP/2NXT/9jV0//Y1dP/2NXT/9jV0//Y1dP/2NXT/9za2P/l5OP/7+/v//Ly8v/y8vL/8PDv/+Ph4P/Y1tT/2NXTptLS0hcAAAAAAAAAAAAAAAAAAAAAAAAAAAAAAAAAAAAAAAAAAAAAAAAAAAAAAAAAAAAAAAAAAAAAAAAAAAAAAAAAAAAAAAAAAAAAAAAAAAAAAAAAAAAAAAAAAAAAAAAAAAAAAAAAAAAAAAAAAAAAAAAAAAAAAAAAAAAAAAAAAAAAAAAAAAAAAAAAAAAAAAAAAAAAAAAAAAAAAAAAAAAAAAAAAAAAAAAAAAAAAAAAAAAAAAAAAAAAAAAAAAAAAAAAAAAAAAAAAAAAAAAAAAAAAAD///8D2dTUZ9rY1ebe3Nr/6ejo//Hx8f/y8vL/8vLy//Hx8f/q6ej/4+Hg/9za1//a19X/2tfV/9rX1f/a19X/2tfV/9rX1f/a19X/2tfV/9rX1f/a19X/2tfV/9rX1f/a19X/2tfV/9rX1f/a19X/2tfV/9rX1f/a19X/2tfV/9rX1f/a19X/2tfV/9rX1f/a19X/2tfV/9rX1f/a19X/2tfV/9rX1f/a19X/2tfV/9rX1f/a19X/2tfV/9rX1f/a19X/2tfV/9rX1f/a19X/2tfV/9rX1f/a19X/2tfV/9rX1f/a19X/2tfV/9rX1f/a19X/2tfV/9rX1f/a19X/3tza/+Xj4v/t7Oz/8vLy//Ly8v/y8vL/7+/v/+Xk4//b2df/2tjVvtjY0zsAAAAAAAAAAAAAAAAAAAAAAAAAAAAAAAAAAAAAAAAAAAAAAAAAAAAAAAAAAAAAAAAAAAAAAAAAAAAAAAAAAAAAAAAAAAAAAAAAAAAAAAAAAAAAAAAAAAAAAAAAAAAAAAAAAAAAAAAAAAAAAAAAAAAAAAAAAAAAAAAAAAAAAAAAAAAAAAAAAAAAAAAAAAAAAAAAAAAAAAAAAAAAAAAAAAAAAAAAAAAAAAAAAAAAAAAAAAAAAAAAAAAAAAAAAAAAAAAAAAAAAAAAAAAAAAAAAAAAAAAAAAAAAAAAAAAA2traB9nW1l/b2dfO3tza/+fm5f/v7+7/8vLy//Ly8v/y8vL/8vLy/+3s7P/n5uX/4eDe/93b2f/b2df/29nX/9vZ1//b2df/29nX/9vZ1//b2df/29nX/9vZ1//b2df/29nX/9vZ1//b2df/29nX/9vZ1//b2df/29nX/9vZ1//b2df/29nX/9vZ1//b2df/29nX/9vZ1//b2df/29nX/9vZ1//b2df/29nX/9vZ1//b2df/29nX/9vZ1//b2df/29nX/9vZ1//b2df/29nX/9vZ1//b2df/29nX/9vZ1//b2df/29nX/97c2v/j4uH/6ejn/+/u7v/y8vL/8vLy//Ly8v/y8vL/7Ozs/+Pi4f/c2tj629nYqtnZ1TcAAAAAAAAAAAAAAAAAAAAAAAAAAAAAAAAAAAAAAAAAAAAAAAAAAAAAAAAAAAAAAAAAAAAAAAAAAAAAAAAAAAAAAAAAAAAAAAAAAAAAAAAAAAAAAAAAAAAAAAAAAAAAAAAAAAAAAAAAAAAAAAAAAAAAAAAAAAAAAAAAAAAAAAAAAAAAAAAAAAAAAAAAAAAAAAAAAAAAAAAAAAAAAAAAAAAAAAAAAAAAAAAAAAAAAAAAAAAAAAAAAAAAAAAAAAAAAAAAAAAAAAAAAAAAAAAAAAAAAAAAAAAAAAAAAAAAAAAAAAAAAAAAAAAAAAAAAAAAAADe2dk33dvZlt7c2eri4d//6uno//Dw7//y8vL/8vLy//Ly8v/y8vL/8vLy/+7t7f/q6ej/5uXk/+Lg3//f3dv/3dvZ/93b2f/d29n/3dvZ/93b2f/d29n/3dvZ/93b2f/d29n/3dvZ/93b2f/d29n/3dvZ/93b2f/d29n/3dvZ/93b2f/d29n/3dvZ/93b2f/d29n/3dvZ/93b2f/d29n/3dvZ/93b2f/d29n/3dvZ/93b2f/d29n/3dvZ/93b2f/d29n/3dvZ/9/e3P/j4uD/5+Xk/+vq6v/v7+//8vLy//Ly8v/y8vL/8vLy//Ly8v/u7e3/5+bl/+De3P/d3NnO3NrYd93d3RcAAAAAAAAAAAAAAAAAAAAAAAAAAAAAAAAAAAAAAAAAAAAAAAAAAAAAAAAAAAAAAAAAAAAAAAAAAAAAAAAAAAAAAAAAAAAAAAAAAAAAAAAAAAAAAAAAAAAAAAAAAAAAAAAAAAAAAAAAAAAAAAAAAAAAAAAAAAAAAAAAAAAAAAAAAAAAAAAAAAAAAAAAAAAAAAAAAAAAAAAAAAAAAAAAAAAAAAAAAAAAAAAAAAAAAAAAAAAAAAAAAAAAAAAAAAAAAAAAAAAAAAAAAAAAAAAAAAAAAAAAAAAAAAAAAAAAAAAAAAAAAAAAAAAAAAAAAAAAAAAAAAAAAAAAAAAAAAAAAAAA////A9zc2EPe3duW4N7c4uPi4P/o5+b/7e3s//Hx8f/y8vL/8vLy//Ly8v/y8vL/8vLy//Ly8v/w8PD/7e3s/+vq6f/o5+b/5uXj/+Tj4f/i4d//4eDe/9/d2//f3dv/393b/9/d2//f3dv/393b/9/d2//f3dv/393b/9/d2//f3dv/393b/9/d2//f3dv/393b/9/d2//f3dv/4N7c/+Hg3v/j4eD/5ePi/+bl5P/p6Of/6+vq/+7t7f/x8fH/8vLy//Ly8v/y8vL/8vLy//Ly8v/y8vL/8PDw/+zr6v/m5eT/4eDe/+Dd3Mbd29l72traIwAAAAAAAAAAAAAAAAAAAAAAAAAAAAAAAAAAAAAAAAAAAAAAAAAAAAAAAAAAAAAAAAAAAAAAAAAAAAAAAAAAAAAAAAAAAAAAAAAAAAAAAAAAAAAAAAAAAAAAAAAAAAAAAAAAAAAAAAAAAAAAAAAAAAAAAAAAAAAAAAAAAAAAAAAAAAAAAAAAAAAAAAAAAAAAAAAAAAAAAAAAAAAAAAAAAAAAAAAAAAAAAAAAAAAAAAAAAAAAAAAAAAAAAAAAAAAAAAAAAAAAAAAAAAAAAAAAAAAAAAAAAAAAAAAAAAAAAAAAAAAAAAAAAAAAAAAAAAAAAAAAAAAAAAAAAAAAAAAAAAAAAAAAAAAAAAAAAAAAAAAAAAAAAAAAAAAAAAAA3t7eJ+Dd3Wvh396q4uHe5uXk4v/p6Of/7Ozr/+/v7v/y8vL/8vLy//Ly8v/y8vL/8vLy//Ly8v/y8vL/8vLy//Ly8v/y8vL/8vLy//Hx8f/v7+//7+/v/+7t7f/t7ez/7e3s/+3t7P/t7ez/7e3s/+3t7P/t7ez/7e3s/+7u7f/v7+//7+/v//Ly8v/y8vL/8vLy//Ly8v/y8vL/8vLy//Ly8v/y8vL/8vLy//Ly8v/y8vL/8fHx/+7u7v/r6un/6Obl/+Tj4f/h4N3O4t7dluHe21fd3d0PAAAAAAAAAAAAAAAAAAAAAAAAAAAAAAAAAAAAAAAAAAAAAAAAAAAAAAAAAAAAAAAAAAAAAAAAAAAAAAAAAAAAAAAAAAAAAAAAAAAAAAAAAAAAAAAAAAAAAAAAAAAAAAAAAAAAAAAAAAAAAAAAAAAAAAAAAAAAAAAAAAAAAAAAAAAAAAAAAAAAAAAAAAAAAAAAAAAAAAAAAAAAAAAAAAAAAAAAAAAAAAAAAAAAAAAAAAAAAAAAAAAAAAAAAAAAAAAAAAAAAAAAAAAAAAAAAAAAAAAAAAAAAAAAAAAAAAAAAAAAAAAAAAAAAAAAAAAAAAAAAAAAAAAAAAAAAAAAAAAAAAAAAAAAAAAAAAAAAAAAAAAAAAAAAAAAAAAAAAAAAAAAAAAAAAAAAAAAAAAAAAAAAAAAAAAAAAAA4uLZG+Pg3VPh392D4+LfsuTi4d7m5OL/6Ofm/+vq6f/s7Ov/7u7t//Dw7//y8vL/8vLy//Ly8v/y8vL/8vLy//Ly8v/y8vL/8vLy//Ly8v/y8vL/8vLy//Ly8v/y8vL/8vLy//Ly8v/y8vL/8vLy//Ly8v/y8vL/8vLy//Ly8v/y8vL/8vLy//Hx8f/v7+//7u3s/+zr6v/q6ej/5+bl/+Xk4vfj4uDO5OHfouLf3XPk4NxD5+fnCwAAAAAAAAAAAAAAAAAAAAAAAAAAAAAAAAAAAAAAAAAAAAAAAAAAAAAAAAAAAAAAAAAAAAAAAAAAAAAAAAAAAAAAAAAAAAAAAAAAAAAAAAAAAAAAAAAAAAAAAAAAAAAAAAAAAAAAAAAAAAAAAAAAAAAAAAAAAAAAAAAAAAAAAAAAAAAAAAAAAAAAAAAAAAAAAAAAAAAAAAAAAAAAAAAAAAAAAAAAAAAAAAAAAAAAAAAAAAAAAAAAAAAAAAAAAAAAAAAAAAAAAAAAAAAAAAAAAAAAAAAAAAAAAAAAAAAAAAAAAAAAAAAAAAAAAAAAAAAAAAAAAAAAAAAAAAAAAAAAAAAAAAAAAAAAAAAAAAAAAAAAAAAAAAAAAAAAAAAAAAAAAAAAAAAAAAAAAAAAAAAAAAAAAAAAAAAAAAAAAAAAAAAAAAAAAAAAAAAAAAAAAAAAAAAAAAAAAAAAAAAAANra2gfj494v5eHhT+Ti33Pk4uCP5eThqubj4sLm5ePe5+Xk8ujm5f/p6Ob/6ejn/+rp6P/r6un/6+rp/+vq6f/r6un/6+rp/+vq6f/r6un/6+rp/+vq6f/r6un/6ejn/+no5//o5+b/6Obl/+fl5Obl5OLW5eThvuXj4Z7j4d+D4+PhZ+Tg4EPh4eEjAAAAAAAAAAAAAAAAAAAAAAAAAAAAAAAAAAAAAAAAAAAAAAAAAAAAAAAAAAAAAAAAAAAAAAAAAAAAAAAAAAAAAAAAAAAAAAAAAAAAAAAAAAAAAAAAAAAAAAAAAAAAAAAAAAAAAAAAAAAAAAAAAAAAAAAAAAAAAAAAAAAAAAAAAAAAAAAAAAAAAAAAAAAAAAAAAAAAAAAAAAAAAAAAAAAAAAAAAAAAAAAAAAAAAAAAAAAAAAAAAAAAAAAAAAAAAAAAAAAAAAAAAAAAAAAAAAAAAAAAAAAAAAAAAAAAAAAAAAAAAAAAAAAAAAAAAAAAAAAAAAAAAAAAAAAAAAAAAAAAAAAAAAAAAAAAAAAAAAAAAAAAAAAAAAAAAAAAAAAAAAAAAAAAAAAAAAAAAAAAAAAAAAAAAAAAAAAAAAAAAAAAAAAAAAAAAAAAAAAAAAAAAAAAAAAAAAAAAAAAAAAAAAAAAAAAAAAAAAAAAAAAAAAAAAAAAAAAAAAAAAAAAAAAAAAAAAAAAAAAAAAAAAAAAAAAAAAAAAAAAAAAAAAAAOLi4hvm5t4f4+PjL+bi4j/m4uI/5uLiP+bi4j/m4uI/5uLiP+bi4j/m4uI/5uLiP+bi4j/p4eEj5ubeH+7u3Q8AAAAAAAAAAAAAAAAAAAAAAAAAAAAAAAAAAAAAAAAAAAAAAAAAAAAAAAAAAAAAAAAAAAAAAAAAAAAAAAAAAAAAAAAAAAAAAAAAAAAAAAAAAAAAAAAAAAAAAAAAAAAAAAAAAAAAAAAAAAAAAAAAAAAAAAAAAAAAAAAAAAAAAAAAAAAAAAAAAAAAAAAAAAAAAAAAAAAAAAAAAAAAAAAAAAAAAAAAAAAAAAAAAAAAAAAAAAAAAAAAAAAAAAAAAAAAAAAAAAAAAAAAAAAAAAAAAAAAAAAAAAAAAAAAAAAAAAAAAAAAAAAAAAAAAAAAAAAAAAAAAAAAAAAAAAAAAAAAAAAAAAAAAAAAAAAAAAAAAAAAAAAAAAAAAAAAAAAAAAAAAAAAAAAAAAAAAAAAAAAAAAAAAAAAAAAAAAAAAAAAAAAAAAAAAAAAAAAAAAAAAAAAAAAAAAAAAAAAAAAAAAAAAAAAAAAAAAAAAAAAAAAAAAAAAAAAAAAAAAAAAAAAAAAAAAAAAAAAAAAAAAAAAAAAAAAAAAAAAAAAAAAAAAAAAAAAAAAAAAAAAAAAAAAAAAAAAAAAAAAAAAAAAAAAAAAAAAAAAAAAAAAAAAAAAAAAAAAAAAAAAAAAAAAAAAAAAAAAAAAAAAAAAAAAAAAAAAAAAAAAAAAAAAAAAAAAAAAAAAAAAAAAAAAAAAAAAAAAAAAAAAAAAAAAAAAAAAAAAAAAAAAAAAAAAAAAAAAAAAAAAAAAAAAAAAAAAAAAAAAAAAAAAAAAAAAAAAAAAAAAAAAAAAAAAAAAAAAAAAAAAAAAAAAAAAAAAAAAAAAAAAAAAAAAAAAAAAAAAAAAAAAAAAAAAAAAAAAAAAAAAAAAAAAAAAAAAAAAAAAAAAAAAAAAAAAAAAAAAAAAAAAAAAAAAAAAAAAAAAAAAAAAAAAAAAAAAAAAAAAAAAAAAAAAAAAAAAAAAAAAAAAAAAAAAAAAAAAAAAAA////+AAAAAAAAAAAD///////4AAAAAAAAAAAAAAD/////gAAAAAAAAAAAAAAAD////gAAAAAAAAAAAAAAAAP///wAAAAAAAAAAAAAAAAB///8AAAAAAAAAAAAAAAAAf//+AAAAAAAAAAAAAAAAAD///gAAAAAAAAAAAAAAAAA///8AAAAAAAAAAAAAAAAAP///AAAAAAAAAAAAAAAAAH///4AAAAAAAAAAAAAAAAD////AAAAAAAAAAAAAAAAB/////gAAAAAAAAAAAAAAP//////+AAAAAAAAAAAAB///////+AAAAAAAAAAAAAf///////AAAAAAAAAAAAAH///////gAAAAAAAAAAAAB///////wAAAAAAAAAAAAAP//////4AAAAAAAAAAAAAB//////8AAAAAAAAAAAAAAf//////AAAAAAAAAAAAAAD//////wAAAAAAAAAAAAAA//////4AAAAAAAAAAAAAAP/////+AAAAAAAAAAAAAAD//////gAAAAAAAAAAAAAA//////4AAAAAAAAAAAAAAP/////+AAAAAAAAAAAAAAD//////gAAAAAAAAAAAAAA//////4AAAAAAAAAAAAAAP/////+AAAAAAAAAAAAAAD//////gAAAAAAAAAAAAAA//////4AAAAAAAAAAAAAAP/////+AAAAAAAAAAAAAAAAAH///gAAAAAAAAAAAAAAAAAf//4AAAAAAAAAAAAAAAAAD//+AAAAAAAAAAAAAAAAAA///gAAAAAAAAAAAAAAAAAP//4AAAAAAAAAAAAAAAAAD//+AAAAAAAAAAAAAAAAAA///gAAAAAAAAAAAAAAAAAP//4AAAAAAAAAAAAAAAAAD//+AAAAAAAAAAAAAAAAAA///gAAAAAAAAAAAAAAAAAP//4AAAAAAAAAAAAAAAAAD//+AAAAAAAAAAAAAAAAAA///wAAAAAAAAAAAAAAAAAP//8AAAAAAAAAAAAAAAAAD///AAAAAAAAAAAAAAAAAB///4AAAAAAAAAAAAAAAAA////AAAAAAAAAAAAAA///////wAAAAAAAAAAAAAP//////4AAAAAAAAAAAAAD//////8AAAAAAAAAAAAAAf//////AAAAAAAAAAAAAAD//////wAAAAAAAAAAAAAA//////4AAAAAAAAAAAAAAP/////+AAAAAAAAAAAAAAD//////gAAAAAAAAAAAAAA//////4AAAAAAAAAAAAAAP/////+AAAAAAAAAAAAAAD//////gAAAAAAAAAAAAAA//////4AAAAAAAAAAAAAAP/////+AAAAAAAAAAAAAAD//////gAAAAAAAAAAAAAA//////4AAAAAAAAAAAAAAP/////+AAAAAAAAAAAAAAD//////gAAAAAAAAAAAAAA//////4AAAAAAAAAAAAAAP/////+AAAAAAAAAAAAAAD//////gAAAAAAAAAAAAAA//////4AAAAAAAAAAAAAAP/////+AAAAAAAAAAAAAAD//////gAAAAAAAAAAAAAA//////4AAAAAAAAAAAAAAP/////+AAAAAAAAAAAAAAD//////gAAAAAAAAAAAAAA//////4AAAAAAAAAAAAAAP/////+AAAAAAAAAAAAAAD//////gAAAAAAAAAAAAAA//////8AAAAAAAAAAAAAAP//////AAAAAAAAAAAAAAD//////4AAAAAAAAAAAAAB///////AAAAAAAAAAAAAA///////4AAAAAAAAAAAAAf//////8AAAAAAAAAAAAAD//////+AAAAAAAAAAAAAAf//////AAAAAAAAAAAAAAH//////wAAAAAAAAAAAAAA//////8AAAAAAAAAAAAAAP/////+AAAAAAAAAAAAAAD//////gAAAAAAAAAAAAAA//////4AAAAAAAAAAAAAAP/////+AAAAAAAAAAAAAAD//////gAAAAAAAAAAAAAA//////4AAAAAAAAAAAAAAP/////+AAAAAAAAAAAAAAD//////gAAAAAAAAAAAAAA//////4AAAAAAAAAAAAAAP/////+AAAAAAAAAAAAAAD//////gAAAAAAAAAAAAAA//////4AAAAAAAAAAAAAAP/////+AAAAAAAAAAAAAAD//////gAAAAAAAAAAAAAA//////4AAAAAAAAAAAAAAP/////+AAAAAAAAAAAAAAD//////gAAAAAAAAAAAAAA//////4AAAAAAAAAAAAAAP/////+AAAAAAAAAAAAAAD//////gAAAAAAAAAAAAAA//////4AAAAAAAAAAAAAAP/////+AAAAAAAAAAAAAAD//////gAAAAAAAAAAAAAA//////8AAAAAAAAAAAAAAP//////AAAAAAAAAAAAAAD//////4AAAAAAAAAAAAAB//////+AAAAAAAAAAAAAA///////wAAAAAAAAAAAAAf//////+AAAAAAAAAAAAAP///////4AAAAAAAAAAAAH////////AAAAAAAAAAAAH////////8AAAAAAAAAAAH/////////4AAAAAAAAAAH//////////gAAAAAAAAAP///////////gAAAAAAAAf////////////gAAAAAAB//////////////wAAAAAf////////////////wAA//////////////////////////////8=;" parent="60e8tbbSV8j_KbbyS9Ai-27" vertex="1">
          <mxGeometry x="70" y="32.5" width="50" height="50" as="geometry" />
        </mxCell>
        <mxCell id="60e8tbbSV8j_KbbyS9Ai-29" value="App Cheuqes Recibidos" style="text;html=1;strokeColor=none;fillColor=none;align=center;verticalAlign=middle;whiteSpace=wrap;rounded=0;" parent="60e8tbbSV8j_KbbyS9Ai-27" vertex="1">
          <mxGeometry x="45" y="102.5" width="100" height="30" as="geometry" />
        </mxCell>
        <mxCell id="60e8tbbSV8j_KbbyS9Ai-35" value="jdbc:sqlserver:RADIOVICTORIA\cheqrec_svc" style="endArrow=classic;startArrow=classic;html=1;rounded=0;exitX=1;exitY=0.5;exitDx=0;exitDy=0;exitPerimeter=0;entryX=0;entryY=0.5;entryDx=0;entryDy=0;fontSize=12;" parent="1" source="60e8tbbSV8j_KbbyS9Ai-24" target="60e8tbbSV8j_KbbyS9Ai-28" edge="1">
          <mxGeometry x="-0.0014" width="50" height="50" relative="1" as="geometry">
            <mxPoint x="670" y="280" as="sourcePoint" />
            <mxPoint x="720" y="230" as="targetPoint" />
            <Array as="points">
              <mxPoint x="620" y="213" />
            </Array>
            <mxPoint as="offset" />
          </mxGeometry>
        </mxCell>
        <mxCell id="60e8tbbSV8j_KbbyS9Ai-37" value="RADIOVICTORIA\cheqrec_svc" style="edgeStyle=orthogonalEdgeStyle;rounded=0;orthogonalLoop=1;jettySize=auto;html=1;exitX=0;exitY=0.75;exitDx=0;exitDy=0;entryX=1;entryY=0.5;entryDx=0;entryDy=0;" parent="1" source="60e8tbbSV8j_KbbyS9Ai-28" target="60e8tbbSV8j_KbbyS9Ai-13" edge="1">
          <mxGeometry relative="1" as="geometry">
            <Array as="points">
              <mxPoint x="1074" y="422" />
            </Array>
          </mxGeometry>
        </mxCell>
      </root>
    </mxGraphModel>
  </diagram>
</mxfile>
